Literata-M3.ufo
<glyph name="exclam" format="2">
	<unicode hex="0021"/>
	<advance width="275"/>
	<outline>
		<contour>
			<point x="121" y="177" type="line"/>
			<point x="159" y="177" type="line"/>
			<point x="159" y="287" type="line" smooth="yes"/>
			<point x="159" y="474"/>
			<point x="179" y="579"/>
			<point x="179" y="641" type="curve" smooth="yes"/>
			<point x="179" y="691"/>
			<point x="174" y="714"/>
			<point x="141" y="714" type="curve" smooth="yes"/>
			<point x="107" y="714"/>
			<point x="101" y="687"/>
			<point x="101" y="642" type="curve" smooth="yes"/>
			<point x="101" y="568"/>
			<point x="121" y="451"/>
			<point x="121" y="288" type="curve" smooth="yes"/>
		</contour>
		<contour>
			<point x="137" y="-10" type="curve" smooth="yes"/>
			<point x="166" y="-10"/>
			<point x="185" y="10"/>
			<point x="185" y="38" type="curve" smooth="yes"/>
			<point x="185" y="66"/>
			<point x="166" y="86"/>
			<point x="137" y="86" type="curve" smooth="yes"/>
			<point x="109" y="86"/>
			<point x="90" y="65"/>
			<point x="90" y="37" type="curve" smooth="yes"/>
			<point x="90" y="9"/>
			<point x="109" y="-10"/>
		</contour>
	</outline>
</glyph>
<glyph name="quotedbl" format="2">
	<unicode hex="0022"/>
	<advance width="364"/>
	<outline>
		<contour>
			<point x="95" y="557" type="line"/>
			<point x="119" y="557" type="line"/>
			<point x="141" y="716" type="line" smooth="yes"/>
			<point x="142" y="724"/>
			<point x="144" y="737"/>
			<point x="144" y="749" type="curve" smooth="yes"/>
			<point x="144" y="766"/>
			<point x="133" y="776"/>
			<point x="113" y="776" type="curve" smooth="yes"/>
			<point x="87" y="776"/>
			<point x="74" y="758"/>
			<point x="74" y="729" type="curve" smooth="yes"/>
			<point x="74" y="726"/>
			<point x="74" y="716"/>
			<point x="76" y="702" type="curve" smooth="yes"/>
		</contour>
		<contour>
			<point x="242" y="557" type="line"/>
			<point x="266" y="557" type="line"/>
			<point x="288" y="716" type="line" smooth="yes"/>
			<point x="289" y="724"/>
			<point x="291" y="737"/>
			<point x="291" y="749" type="curve" smooth="yes"/>
			<point x="291" y="766"/>
			<point x="280" y="776"/>
			<point x="260" y="776" type="curve" smooth="yes"/>
			<point x="234" y="776"/>
			<point x="221" y="758"/>
			<point x="221" y="729" type="curve" smooth="yes"/>
			<point x="221" y="726"/>
			<point x="221" y="716"/>
			<point x="223" y="702" type="curve" smooth="yes"/>
		</contour>
	</outline>
</glyph>
<glyph name="ampersand" format="2">
	<unicode hex="0026"/>
	<advance width="824"/>
	<outline>
		<contour>
			<point x="300" y="-14" type="curve" smooth="yes"/>
			<point x="419" y="-14"/>
			<point x="500" y="46"/>
			<point x="535" y="106" type="curve"/>
			<point x="632" y="11"/>
			<point x="660" y="-7"/>
			<point x="702" y="-7" type="curve" smooth="yes"/>
			<point x="738" y="-7"/>
			<point x="775" y="18"/>
			<point x="804" y="57" type="curve"/>
			<point x="785" y="82" type="line"/>
			<point x="767" y="67"/>
			<point x="733" y="47"/>
			<point x="708" y="47" type="curve" smooth="yes"/>
			<point x="668" y="47"/>
			<point x="648" y="68"/>
			<point x="555" y="156" type="curve"/>
			<point x="586" y="351"/>
			<point x="643" y="412"/>
			<point x="703" y="430" type="curve"/>
			<point x="718" y="387"/>
			<point x="730" y="372"/>
			<point x="753" y="372" type="curve" smooth="yes"/>
			<point x="774" y="372"/>
			<point x="797" y="391"/>
			<point x="797" y="426" type="curve" smooth="yes"/>
			<point x="797" y="464"/>
			<point x="769" y="487"/>
			<point x="731" y="487" type="curve" smooth="yes"/>
			<point x="660" y="487"/>
			<point x="565" y="435"/>
			<point x="516" y="189" type="curve"/>
			<point x="323" y="371" type="line"/>
			<point x="429" y="419"/>
			<point x="500" y="490"/>
			<point x="500" y="573" type="curve" smooth="yes"/>
			<point x="500" y="656"/>
			<point x="435" y="714"/>
			<point x="336" y="714" type="curve" smooth="yes"/>
			<point x="229" y="714"/>
			<point x="145" y="653"/>
			<point x="145" y="554" type="curve" smooth="yes"/>
			<point x="145" y="473"/>
			<point x="199" y="420"/>
			<point x="242" y="382" type="curve"/>
			<point x="149" y="349"/>
			<point x="65" y="290"/>
			<point x="65" y="181" type="curve" smooth="yes"/>
			<point x="65" y="58"/>
			<point x="157" y="-14"/>
		</contour>
		<contour>
			<point x="300" y="27" type="curve" smooth="yes"/>
			<point x="186" y="27"/>
			<point x="115" y="89"/>
			<point x="115" y="188" type="curve" smooth="yes"/>
			<point x="115" y="283"/>
			<point x="198" y="325"/>
			<point x="275" y="351" type="curve"/>
			<point x="502" y="138" type="line"/>
			<point x="468" y="70"/>
			<point x="397" y="27"/>
		</contour>
		<contour>
			<point x="289" y="401" type="curve"/>
			<point x="214" y="468"/>
			<point x="195" y="508"/>
			<point x="195" y="558" type="curve" smooth="yes"/>
			<point x="195" y="628"/>
			<point x="242" y="672"/>
			<point x="337" y="672" type="curve" smooth="yes"/>
			<point x="409" y="672"/>
			<point x="454" y="628"/>
			<point x="454" y="570" type="curve" smooth="yes"/>
			<point x="454" y="520"/>
			<point x="413" y="448"/>
		</contour>
	</outline>
</glyph>
<glyph name="parenleft" format="2">
	<unicode hex="0028"/>
	<advance width="269"/>
	<outline>
		<contour>
			<point x="213" y="-198" type="curve"/>
			<point x="239" y="-183" type="line"/>
			<point x="147" y="-7"/>
			<point x="87" y="125"/>
			<point x="87" y="317" type="curve" smooth="yes"/>
			<point x="87" y="499"/>
			<point x="155" y="642"/>
			<point x="243" y="797" type="curve"/>
			<point x="218" y="811" type="line"/>
			<point x="162" y="728"/>
			<point x="40" y="543"/>
			<point x="40" y="299" type="curve" smooth="yes"/>
			<point x="40" y="75"/>
			<point x="160" y="-120"/>
		</contour>
	</outline>
</glyph>
<glyph name="asterisk" format="2">
	<unicode hex="002A"/>
	<advance width="384"/>
	<outline>
		<contour>
			<point x="183" y="415" type="curve" smooth="yes"/>
			<point x="220" y="415"/>
			<point x="225" y="430"/>
			<point x="221" y="458" type="curve" smooth="yes"/>
			<point x="202" y="580" type="line"/>
			<point x="301" y="493" type="line" smooth="yes"/>
			<point x="321" y="475"/>
			<point x="332" y="477"/>
			<point x="344" y="497" type="curve" smooth="yes"/>
			<point x="363" y="528"/>
			<point x="352" y="541"/>
			<point x="325" y="551" type="curve" smooth="yes"/>
			<point x="210" y="596" type="line"/>
			<point x="335" y="638" type="line" smooth="yes"/>
			<point x="360" y="646"/>
			<point x="364" y="657"/>
			<point x="353" y="677" type="curve" smooth="yes"/>
			<point x="335" y="710"/>
			<point x="319" y="706"/>
			<point x="296" y="688" type="curve" smooth="yes"/>
			<point x="200" y="611" type="line"/>
			<point x="226" y="740" type="line" smooth="yes"/>
			<point x="231" y="766"/>
			<point x="224" y="775"/>
			<point x="201" y="775" type="curve" smooth="yes"/>
			<point x="164" y="775"/>
			<point x="159" y="760"/>
			<point x="163" y="732" type="curve" smooth="yes"/>
			<point x="182" y="610" type="line"/>
			<point x="83" y="697" type="line" smooth="yes"/>
			<point x="63" y="715"/>
			<point x="52" y="713"/>
			<point x="40" y="693" type="curve" smooth="yes"/>
			<point x="21" y="662"/>
			<point x="32" y="649"/>
			<point x="59" y="639" type="curve" smooth="yes"/>
			<point x="174" y="594" type="line"/>
			<point x="49" y="552" type="line" smooth="yes"/>
			<point x="24" y="544"/>
			<point x="20" y="533"/>
			<point x="31" y="513" type="curve" smooth="yes"/>
			<point x="49" y="480"/>
			<point x="65" y="484"/>
			<point x="88" y="502" type="curve" smooth="yes"/>
			<point x="184" y="579" type="line"/>
			<point x="158" y="450" type="line" smooth="yes"/>
			<point x="153" y="424"/>
			<point x="160" y="415"/>
		</contour>
	</outline>
</glyph>
<glyph name="comma" format="2">
	<unicode hex="002C"/>
	<advance width="264"/>
	<outline>
		<contour>
			<point x="98" y="-131" type="line"/>
			<point x="153" y="-86"/>
			<point x="184" y="-28"/>
			<point x="184" y="29" type="curve" smooth="yes"/>
			<point x="184" y="62"/>
			<point x="166" y="91"/>
			<point x="130" y="91" type="curve" smooth="yes"/>
			<point x="98" y="91"/>
			<point x="84" y="66"/>
			<point x="84" y="45" type="curve" smooth="yes"/>
			<point x="84" y="17"/>
			<point x="105" y="0"/>
			<point x="127" y="0" type="curve" smooth="yes"/>
			<point x="136" y="0" type="line"/>
			<point x="135" y="-41"/>
			<point x="121" y="-73"/>
			<point x="80" y="-110" type="curve"/>
		</contour>
	</outline>
</glyph>
<glyph name="slash" format="2">
	<unicode hex="002F"/>
	<advance width="383"/>
	<outline>
		<contour>
			<point x="20" y="-110" type="line"/>
			<point x="58" y="-110" type="line"/>
			<point x="363" y="802" type="line"/>
			<point x="325" y="802" type="line"/>
		</contour>
	</outline>
</glyph>
<glyph name="two" format="2">
	<unicode hex="0032"/>
	<advance width="510"/>
	<outline>
		<contour>
			<point x="54" y="0" type="line"/>
			<point x="432" y="0" type="line"/>
			<point x="455" y="170" type="line"/>
			<point x="425" y="170" type="line"/>
			<point x="401" y="44"/>
			<point x="376" y="41"/>
			<point x="280" y="41" type="curve" smooth="yes"/>
			<point x="106" y="41" type="line"/>
			<point x="360" y="316"/>
			<point x="430" y="414"/>
			<point x="430" y="533" type="curve" smooth="yes"/>
			<point x="430" y="648"/>
			<point x="355" y="714"/>
			<point x="238" y="714" type="curve" smooth="yes"/>
			<point x="126" y="714"/>
			<point x="43" y="650"/>
			<point x="43" y="571" type="curve" smooth="yes"/>
			<point x="43" y="541"/>
			<point x="55" y="517"/>
			<point x="91" y="517" type="curve" smooth="yes"/>
			<point x="115" y="517"/>
			<point x="136" y="532"/>
			<point x="136" y="554" type="curve" smooth="yes"/>
			<point x="136" y="572"/>
			<point x="125" y="589"/>
			<point x="104" y="612" type="curve"/>
			<point x="128" y="651"/>
			<point x="172" y="672"/>
			<point x="231" y="672" type="curve" smooth="yes"/>
			<point x="331" y="672"/>
			<point x="379" y="614"/>
			<point x="379" y="529" type="curve" smooth="yes"/>
			<point x="379" y="425"/>
			<point x="323" y="343"/>
			<point x="45" y="34" type="curve"/>
		</contour>
	</outline>
</glyph>
<glyph name="six" format="2">
	<unicode hex="0036"/>
	<advance width="541"/>
	<outline>
		<contour>
			<point x="276" y="-12" type="curve" smooth="yes"/>
			<point x="397" y="-12"/>
			<point x="490" y="65"/>
			<point x="490" y="230" type="curve" smooth="yes"/>
			<point x="490" y="368"/>
			<point x="409" y="451"/>
			<point x="301" y="451" type="curve" smooth="yes"/>
			<point x="206" y="451"/>
			<point x="138" y="396"/>
			<point x="110" y="337" type="curve"/>
			<point x="116" y="472"/>
			<point x="161" y="672"/>
			<point x="331" y="672" type="curve" smooth="yes"/>
			<point x="374" y="672"/>
			<point x="411" y="662"/>
			<point x="428" y="643" type="curve"/>
			<point x="409" y="619"/>
			<point x="400" y="605"/>
			<point x="400" y="588" type="curve" smooth="yes"/>
			<point x="400" y="567"/>
			<point x="417" y="551"/>
			<point x="441" y="551" type="curve" smooth="yes"/>
			<point x="462" y="551"/>
			<point x="492" y="564"/>
			<point x="492" y="605" type="curve" smooth="yes"/>
			<point x="492" y="683"/>
			<point x="413" y="714"/>
			<point x="340" y="714" type="curve" smooth="yes"/>
			<point x="135" y="714"/>
			<point x="60" y="506"/>
			<point x="60" y="292" type="curve" smooth="yes"/>
			<point x="60" y="121"/>
			<point x="119" y="-12"/>
		</contour>
		<contour>
			<point x="280" y="29" type="curve" smooth="yes"/>
			<point x="164" y="29"/>
			<point x="118" y="112"/>
			<point x="118" y="243" type="curve" smooth="yes"/>
			<point x="118" y="347"/>
			<point x="206" y="407"/>
			<point x="285" y="407" type="curve" smooth="yes"/>
			<point x="376" y="407"/>
			<point x="440" y="349"/>
			<point x="440" y="223" type="curve" smooth="yes"/>
			<point x="440" y="83"/>
			<point x="371" y="29"/>
		</contour>
	</outline>
</glyph>
<glyph name="seven" format="2">
	<unicode hex="0037"/>
	<advance width="495"/>
	<outline>
		<contour>
			<point x="216" y="-7" type="line"/>
			<point x="264" y="0" type="line"/>
			<point x="257" y="261"/>
			<point x="313" y="447"/>
			<point x="490" y="665" type="curve"/>
			<point x="481" y="699" type="line"/>
			<point x="69" y="700" type="line"/>
			<point x="50" y="545" type="line"/>
			<point x="77" y="545" type="line"/>
			<point x="108" y="645"/>
			<point x="118" y="660"/>
			<point x="193" y="660" type="curve" smooth="yes"/>
			<point x="431" y="660" type="line"/>
			<point x="257" y="433"/>
			<point x="214" y="253"/>
			<point x="210" y="-1" type="curve"/>
		</contour>
	</outline>
</glyph>
<glyph name="eight" format="2">
	<unicode hex="0038"/>
	<advance width="547"/>
	<outline>
		<contour>
			<point x="276" y="-12" type="curve" smooth="yes"/>
			<point x="383" y="-12"/>
			<point x="502" y="58"/>
			<point x="502" y="190" type="curve" smooth="yes"/>
			<point x="502" y="268"/>
			<point x="463" y="325"/>
			<point x="345" y="374" type="curve"/>
			<point x="408" y="421"/>
			<point x="473" y="477"/>
			<point x="473" y="567" type="curve" smooth="yes"/>
			<point x="473" y="650"/>
			<point x="399" y="714"/>
			<point x="281" y="714" type="curve" smooth="yes"/>
			<point x="144" y="714"/>
			<point x="82" y="627"/>
			<point x="82" y="544" type="curve" smooth="yes"/>
			<point x="82" y="478"/>
			<point x="114" y="421"/>
			<point x="212" y="380" type="curve"/>
			<point x="78" y="322"/>
			<point x="45" y="242"/>
			<point x="45" y="169" type="curve" smooth="yes"/>
			<point x="45" y="45"/>
			<point x="151" y="-12"/>
		</contour>
		<contour>
			<point x="277" y="31" type="curve" smooth="yes"/>
			<point x="168" y="31"/>
			<point x="97" y="86"/>
			<point x="97" y="176" type="curve" smooth="yes"/>
			<point x="97" y="266"/>
			<point x="158" y="319"/>
			<point x="250" y="362" type="curve"/>
			<point x="379" y="321"/>
			<point x="451" y="283"/>
			<point x="451" y="183" type="curve" smooth="yes"/>
			<point x="451" y="91"/>
			<point x="376" y="31"/>
		</contour>
		<contour>
			<point x="305" y="387" type="curve"/>
			<point x="152" y="439"/>
			<point x="132" y="489"/>
			<point x="132" y="552" type="curve" smooth="yes"/>
			<point x="132" y="637"/>
			<point x="202" y="673"/>
			<point x="276" y="673" type="curve" smooth="yes"/>
			<point x="362" y="673"/>
			<point x="421" y="634"/>
			<point x="421" y="553" type="curve" smooth="yes"/>
			<point x="421" y="494"/>
			<point x="372" y="443"/>
		</contour>
	</outline>
</glyph>
<glyph name="nine" format="2">
	<unicode hex="0039"/>
	<advance width="529"/>
	<outline>
		<contour>
			<point x="232" y="-14" type="curve" smooth="yes"/>
			<point x="405" y="-14"/>
			<point x="469" y="121"/>
			<point x="469" y="417" type="curve" smooth="yes"/>
			<point x="469" y="609"/>
			<point x="399" y="714"/>
			<point x="252" y="714" type="curve" smooth="yes"/>
			<point x="139" y="714"/>
			<point x="46" y="634"/>
			<point x="46" y="481" type="curve" smooth="yes"/>
			<point x="46" y="345"/>
			<point x="118" y="262"/>
			<point x="239" y="262" type="curve" smooth="yes"/>
			<point x="322" y="262"/>
			<point x="387" y="301"/>
			<point x="422" y="365" type="curve"/>
			<point x="419" y="152"/>
			<point x="371" y="29"/>
			<point x="238" y="29" type="curve" smooth="yes"/>
			<point x="162" y="29"/>
			<point x="117" y="58"/>
			<point x="68" y="102" type="curve"/>
			<point x="45" y="75" type="line"/>
			<point x="90" y="22"/>
			<point x="150" y="-14"/>
		</contour>
		<contour>
			<point x="250" y="305" type="curve" smooth="yes"/>
			<point x="155" y="305"/>
			<point x="97" y="359"/>
			<point x="97" y="487" type="curve" smooth="yes"/>
			<point x="97" y="611"/>
			<point x="163" y="671"/>
			<point x="255" y="671" type="curve" smooth="yes"/>
			<point x="371" y="671"/>
			<point x="417" y="572"/>
			<point x="417" y="478" type="curve" smooth="yes"/>
			<point x="417" y="352"/>
			<point x="330" y="305"/>
		</contour>
	</outline>
</glyph>
<glyph name="colon" format="2">
	<unicode hex="003A"/>
	<advance width="255"/>
	<outline>
		<contour>
			<point x="127" y="-10" type="curve" smooth="yes"/>
			<point x="156" y="-10"/>
			<point x="175" y="10"/>
			<point x="175" y="38" type="curve" smooth="yes"/>
			<point x="175" y="66"/>
			<point x="156" y="86"/>
			<point x="127" y="86" type="curve" smooth="yes"/>
			<point x="99" y="86"/>
			<point x="80" y="65"/>
			<point x="80" y="37" type="curve" smooth="yes"/>
			<point x="80" y="9"/>
			<point x="99" y="-10"/>
		</contour>
		<contour>
			<point x="127" y="417" type="curve" smooth="yes"/>
			<point x="156" y="417"/>
			<point x="175" y="437"/>
			<point x="175" y="465" type="curve" smooth="yes"/>
			<point x="175" y="493"/>
			<point x="156" y="513"/>
			<point x="127" y="513" type="curve" smooth="yes"/>
			<point x="99" y="513"/>
			<point x="80" y="492"/>
			<point x="80" y="464" type="curve" smooth="yes"/>
			<point x="80" y="436"/>
			<point x="99" y="417"/>
		</contour>
	</outline>
</glyph>
<glyph name="semicolon" format="2">
	<unicode hex="003B"/>
	<advance width="266"/>
	<outline>
		<contour>
			<point x="100" y="-131" type="line"/>
			<point x="155" y="-86"/>
			<point x="186" y="-28"/>
			<point x="186" y="29" type="curve" smooth="yes"/>
			<point x="186" y="62"/>
			<point x="168" y="91"/>
			<point x="132" y="91" type="curve" smooth="yes"/>
			<point x="100" y="91"/>
			<point x="86" y="66"/>
			<point x="86" y="45" type="curve" smooth="yes"/>
			<point x="86" y="17"/>
			<point x="107" y="0"/>
			<point x="129" y="0" type="curve" smooth="yes"/>
			<point x="138" y="0" type="line"/>
			<point x="137" y="-41"/>
			<point x="123" y="-73"/>
			<point x="82" y="-110" type="curve"/>
		</contour>
		<contour>
			<point x="133" y="417" type="curve" smooth="yes"/>
			<point x="162" y="417"/>
			<point x="181" y="437"/>
			<point x="181" y="465" type="curve" smooth="yes"/>
			<point x="181" y="493"/>
			<point x="162" y="513"/>
			<point x="133" y="513" type="curve" smooth="yes"/>
			<point x="105" y="513"/>
			<point x="86" y="492"/>
			<point x="86" y="464" type="curve" smooth="yes"/>
			<point x="86" y="436"/>
			<point x="105" y="417"/>
		</contour>
	</outline>
</glyph>
<glyph name="less" format="2">
	<unicode hex="003C"/>
	<advance width="582"/>
	<outline>
		<contour>
			<point x="448" y="37" type="line"/>
			<point x="468" y="73" type="line"/>
			<point x="109" y="285" type="line"/>
			<point x="468" y="498" type="line"/>
			<point x="448" y="532" type="line"/>
			<point x="70" y="305" type="line"/>
			<point x="70" y="263" type="line"/>
		</contour>
	</outline>
</glyph>
<glyph name="equal" format="2">
	<unicode hex="003D"/>
	<advance width="582"/>
	<outline>
		<contour>
			<point x="87" y="373" type="line"/>
			<point x="495" y="373" type="line"/>
			<point x="495" y="413" type="line"/>
			<point x="87" y="413" type="line"/>
		</contour>
		<contour>
			<point x="87" y="194" type="line"/>
			<point x="495" y="194" type="line"/>
			<point x="495" y="234" type="line"/>
			<point x="87" y="234" type="line"/>
		</contour>
	</outline>
</glyph>
<glyph name="greater" format="2">
	<unicode hex="003E"/>
	<advance width="582"/>
	<outline>
		<contour>
			<point x="90" y="37" type="line"/>
			<point x="468" y="263" type="line"/>
			<point x="468" y="305" type="line"/>
			<point x="90" y="532" type="line"/>
			<point x="70" y="498" type="line"/>
			<point x="429" y="285" type="line"/>
			<point x="70" y="73" type="line"/>
		</contour>
	</outline>
</glyph>
<glyph name="question" format="2">
	<unicode hex="003F"/>
	<advance width="511"/>
	<outline>
		<contour>
			<point x="216" y="177" type="line"/>
			<point x="255" y="177" type="line"/>
			<point x="255" y="267" type="line" smooth="yes"/>
			<point x="255" y="305"/>
			<point x="263" y="324"/>
			<point x="327" y="393" type="curve" smooth="yes"/>
			<point x="375" y="445"/>
			<point x="415" y="503"/>
			<point x="415" y="569" type="curve" smooth="yes"/>
			<point x="415" y="655"/>
			<point x="353" y="714"/>
			<point x="246" y="714" type="curve" smooth="yes"/>
			<point x="157" y="714"/>
			<point x="69" y="668"/>
			<point x="69" y="589" type="curve" smooth="yes"/>
			<point x="69" y="562"/>
			<point x="85" y="539"/>
			<point x="116" y="539" type="curve" smooth="yes"/>
			<point x="143" y="539"/>
			<point x="158" y="556"/>
			<point x="158" y="574" type="curve" smooth="yes"/>
			<point x="158" y="592"/>
			<point x="151" y="602"/>
			<point x="128" y="628" type="curve"/>
			<point x="149" y="657"/>
			<point x="199" y="673"/>
			<point x="243" y="673" type="curve" smooth="yes"/>
			<point x="320" y="673"/>
			<point x="364" y="629"/>
			<point x="364" y="569" type="curve" smooth="yes"/>
			<point x="364" y="517"/>
			<point x="338" y="469"/>
			<point x="283" y="410" type="curve" smooth="yes"/>
			<point x="234" y="358"/>
			<point x="216" y="330"/>
			<point x="216" y="293" type="curve" smooth="yes"/>
		</contour>
		<contour>
			<point x="233" y="-10" type="curve" smooth="yes"/>
			<point x="262" y="-10"/>
			<point x="281" y="10"/>
			<point x="281" y="38" type="curve" smooth="yes"/>
			<point x="281" y="66"/>
			<point x="262" y="86"/>
			<point x="233" y="86" type="curve" smooth="yes"/>
			<point x="205" y="86"/>
			<point x="186" y="65"/>
			<point x="186" y="37" type="curve" smooth="yes"/>
			<point x="186" y="9"/>
			<point x="205" y="-10"/>
		</contour>
	</outline>
</glyph>
<glyph name="A" format="2">
	<unicode hex="0041"/>
	<advance width="657"/>
	<outline>
		<contour>
			<point x="10" y="0" type="line"/>
			<point x="227" y="0" type="line"/>
			<point x="227" y="27" type="line"/>
			<point x="170" y="34" type="line" smooth="yes"/>
			<point x="140" y="38"/>
			<point x="135" y="54"/>
			<point x="147" y="88" type="curve" smooth="yes"/>
			<point x="198" y="235" type="line"/>
			<point x="464" y="235" type="line"/>
			<point x="515" y="84" type="line" smooth="yes"/>
			<point x="527" y="49"/>
			<point x="522" y="39"/>
			<point x="496" y="35" type="curve" smooth="yes"/>
			<point x="438" y="27" type="line"/>
			<point x="438" y="0" type="line"/>
			<point x="647" y="0" type="line"/>
			<point x="647" y="29" type="line"/>
			<point x="610" y="35" type="line" smooth="yes"/>
			<point x="581" y="40"/>
			<point x="577" y="51"/>
			<point x="565" y="85" type="curve" smooth="yes"/>
			<point x="354" y="700" type="line"/>
			<point x="315" y="700" type="line"/>
			<point x="99" y="88" type="line" smooth="yes"/>
			<point x="84" y="45"/>
			<point x="76" y="40"/>
			<point x="52" y="35" type="curve" smooth="yes"/>
			<point x="10" y="27" type="line"/>
		</contour>
		<contour>
			<point x="211" y="274" type="line"/>
			<point x="331" y="630" type="line"/>
			<point x="333" y="630" type="line"/>
			<point x="451" y="274" type="line"/>
		</contour>
	</outline>
	<anchor name="bottom" x="331" y="-30"/>
	<anchor name="top" x="333" y="730"/>
</glyph>
<glyph name="G" format="2">
	<unicode hex="0047"/>
	<advance width="726"/>
	<outline>
		<contour>
			<point x="366" y="-14" type="curve" smooth="yes"/>
			<point x="440" y="-14"/>
			<point x="504" y="12"/>
			<point x="566" y="57" type="curve"/>
			<point x="580" y="-3" type="line"/>
			<point x="608" y="-3" type="line"/>
			<point x="608" y="243" type="line" smooth="yes"/>
			<point x="608" y="278"/>
			<point x="615" y="288"/>
			<point x="637" y="291" type="curve" smooth="yes"/>
			<point x="696" y="300" type="line"/>
			<point x="696" y="328" type="line"/>
			<point x="462" y="328" type="line"/>
			<point x="462" y="300" type="line"/>
			<point x="525" y="291" type="line" smooth="yes"/>
			<point x="552" y="287"/>
			<point x="559" y="279"/>
			<point x="559" y="248" type="curve" smooth="yes"/>
			<point x="559" y="102" type="line"/>
			<point x="522" y="68"/>
			<point x="446" y="31"/>
			<point x="371" y="31" type="curve" smooth="yes"/>
			<point x="206" y="31"/>
			<point x="116" y="151"/>
			<point x="116" y="354" type="curve" smooth="yes"/>
			<point x="116" y="583"/>
			<point x="236" y="669"/>
			<point x="360" y="669" type="curve" smooth="yes"/>
			<point x="476" y="669"/>
			<point x="537" y="623"/>
			<point x="588" y="489" type="curve"/>
			<point x="615" y="496" type="line"/>
			<point x="578" y="714" type="line"/>
			<point x="555" y="714" type="line"/>
			<point x="545" y="649" type="line"/>
			<point x="498" y="692"/>
			<point x="437" y="714"/>
			<point x="367" y="714" type="curve" smooth="yes"/>
			<point x="188" y="714"/>
			<point x="65" y="589"/>
			<point x="65" y="346" type="curve" smooth="yes"/>
			<point x="65" y="109"/>
			<point x="184" y="-14"/>
		</contour>
	</outline>
	<anchor name="bottom" x="359" y="-30"/>
	<anchor name="top" x="366" y="730"/>
</glyph>
<glyph name="I" format="2">
	<unicode hex="0049"/>
	<advance width="360"/>
	<outline>
		<contour>
			<point x="67" y="0" type="line"/>
			<point x="293" y="0" type="line"/>
			<point x="293" y="26" type="line"/>
			<point x="237" y="35" type="line" smooth="yes"/>
			<point x="211" y="39"/>
			<point x="205" y="49"/>
			<point x="205" y="82" type="curve" smooth="yes"/>
			<point x="205" y="612" type="line" smooth="yes"/>
			<point x="205" y="648"/>
			<point x="211" y="659"/>
			<point x="235" y="663" type="curve" smooth="yes"/>
			<point x="293" y="672" type="line"/>
			<point x="293" y="700" type="line"/>
			<point x="67" y="700" type="line"/>
			<point x="67" y="672" type="line"/>
			<point x="123" y="663" type="line" smooth="yes"/>
			<point x="150" y="659"/>
			<point x="156" y="649"/>
			<point x="156" y="616" type="curve" smooth="yes"/>
			<point x="156" y="86" type="line" smooth="yes"/>
			<point x="156" y="49"/>
			<point x="150" y="39"/>
			<point x="125" y="35" type="curve" smooth="yes"/>
			<point x="67" y="26" type="line"/>
		</contour>
	</outline>
	<anchor name="bottom" x="177" y="-31"/>
	<anchor name="top" x="181" y="722"/>
</glyph>
<glyph name="K" format="2">
	<unicode hex="004B"/>
	<advance width="673"/>
	<outline>
		<contour>
			<point x="585" y="-14" type="curve" smooth="yes"/>
			<point x="624" y="-14"/>
			<point x="652" y="4"/>
			<point x="670" y="21" type="curve"/>
			<point x="661" y="43" type="line"/>
			<point x="644" y="36"/>
			<point x="621" y="30"/>
			<point x="595" y="30" type="curve" smooth="yes"/>
			<point x="551" y="30"/>
			<point x="527" y="57"/>
			<point x="491" y="117" type="curve" smooth="yes"/>
			<point x="322" y="396" type="line"/>
			<point x="550" y="629" type="line" smooth="yes"/>
			<point x="574" y="654"/>
			<point x="590" y="662"/>
			<point x="609" y="665" type="curve" smooth="yes"/>
			<point x="648" y="671" type="line"/>
			<point x="648" y="700" type="line"/>
			<point x="424" y="700" type="line"/>
			<point x="417" y="670" type="line"/>
			<point x="469" y="665" type="line" smooth="yes"/>
			<point x="505" y="662"/>
			<point x="502" y="641"/>
			<point x="478" y="617" type="curve" smooth="yes"/>
			<point x="205" y="343" type="line"/>
			<point x="205" y="612" type="line" smooth="yes"/>
			<point x="205" y="648"/>
			<point x="211" y="659"/>
			<point x="235" y="663" type="curve" smooth="yes"/>
			<point x="293" y="672" type="line"/>
			<point x="293" y="700" type="line"/>
			<point x="67" y="700" type="line"/>
			<point x="67" y="672" type="line"/>
			<point x="123" y="663" type="line" smooth="yes"/>
			<point x="150" y="659"/>
			<point x="156" y="649"/>
			<point x="156" y="616" type="curve" smooth="yes"/>
			<point x="156" y="86" type="line" smooth="yes"/>
			<point x="156" y="49"/>
			<point x="150" y="39"/>
			<point x="125" y="35" type="curve" smooth="yes"/>
			<point x="67" y="26" type="line"/>
			<point x="67" y="0" type="line"/>
			<point x="295" y="0" type="line"/>
			<point x="295" y="26" type="line"/>
			<point x="237" y="35" type="line" smooth="yes"/>
			<point x="211" y="39"/>
			<point x="205" y="49"/>
			<point x="205" y="82" type="curve" smooth="yes"/>
			<point x="205" y="284" type="line"/>
			<point x="282" y="362" type="line"/>
			<point x="448" y="88" type="line" smooth="yes"/>
			<point x="488" y="22"/>
			<point x="513" y="-14"/>
		</contour>
	</outline>
	<anchor name="bottom" x="360" y="-30"/>
	<anchor name="top" x="361" y="730"/>
</glyph>
<glyph name="N" format="2">
	<unicode hex="004E"/>
	<advance width="798"/>
	<outline>
		<contour>
			<point x="67" y="0" type="line"/>
			<point x="296" y="0" type="line"/>
			<point x="296" y="26" type="line"/>
			<point x="237" y="35" type="line" smooth="yes"/>
			<point x="213" y="39"/>
			<point x="205" y="46"/>
			<point x="205" y="82" type="curve" smooth="yes"/>
			<point x="205" y="619" type="line"/>
			<point x="206" y="619" type="line"/>
			<point x="606" y="0" type="line"/>
			<point x="650" y="0" type="line"/>
			<point x="650" y="616" type="line" smooth="yes"/>
			<point x="650" y="652"/>
			<point x="660" y="660"/>
			<point x="684" y="664" type="curve" smooth="yes"/>
			<point x="738" y="672" type="line"/>
			<point x="738" y="700" type="line"/>
			<point x="512" y="700" type="line"/>
			<point x="512" y="672" type="line"/>
			<point x="567" y="663" type="line" smooth="yes"/>
			<point x="596" y="658"/>
			<point x="601" y="649"/>
			<point x="601" y="616" type="curve" smooth="yes"/>
			<point x="601" y="101" type="line"/>
			<point x="600" y="101" type="line"/>
			<point x="210" y="700" type="line"/>
			<point x="67" y="700" type="line"/>
			<point x="67" y="672" type="line"/>
			<point x="123" y="663" type="line" smooth="yes"/>
			<point x="152" y="658"/>
			<point x="156" y="648"/>
			<point x="156" y="617" type="curve" smooth="yes"/>
			<point x="156" y="86" type="line" smooth="yes"/>
			<point x="156" y="50"/>
			<point x="143" y="37"/>
			<point x="121" y="34" type="curve" smooth="yes"/>
			<point x="67" y="26" type="line"/>
		</contour>
	</outline>
	<anchor name="bottom" x="400" y="-30"/>
	<anchor name="top" x="400" y="730"/>
</glyph>
<glyph name="O" format="2">
	<unicode hex="004F"/>
	<advance width="733"/>
	<outline>
		<contour>
			<point x="365" y="-14" type="curve" smooth="yes"/>
			<point x="555" y="-14"/>
			<point x="668" y="129"/>
			<point x="668" y="362" type="curve" smooth="yes"/>
			<point x="668" y="580"/>
			<point x="560" y="714"/>
			<point x="371" y="714" type="curve" smooth="yes"/>
			<point x="173" y="714"/>
			<point x="65" y="578"/>
			<point x="65" y="342" type="curve" smooth="yes"/>
			<point x="65" y="124"/>
			<point x="169" y="-14"/>
		</contour>
		<contour>
			<point x="370" y="31" type="curve" smooth="yes"/>
			<point x="204" y="31"/>
			<point x="116" y="154"/>
			<point x="116" y="350" type="curve" smooth="yes"/>
			<point x="116" y="548"/>
			<point x="203" y="669"/>
			<point x="363" y="669" type="curve" smooth="yes"/>
			<point x="530" y="669"/>
			<point x="617" y="552"/>
			<point x="617" y="356" type="curve" smooth="yes"/>
			<point x="617" y="156"/>
			<point x="527" y="31"/>
		</contour>
	</outline>
	<anchor name="bottom" x="368" y="-30"/>
	<anchor name="top" x="365" y="730"/>
</glyph>
<glyph name="P" format="2">
	<unicode hex="0050"/>
	<advance width="570"/>
	<outline>
		<contour>
			<point x="67" y="0" type="line"/>
			<point x="327" y="0" type="line"/>
			<point x="327" y="26" type="line"/>
			<point x="241" y="35" type="line" smooth="yes"/>
			<point x="213" y="38"/>
			<point x="205" y="52"/>
			<point x="205" y="82" type="curve" smooth="yes"/>
			<point x="205" y="295" type="line"/>
			<point x="224" y="293"/>
			<point x="246" y="291"/>
			<point x="287" y="291" type="curve" smooth="yes"/>
			<point x="472" y="291"/>
			<point x="535" y="372"/>
			<point x="535" y="504" type="curve" smooth="yes"/>
			<point x="535" y="640"/>
			<point x="448" y="700"/>
			<point x="287" y="700" type="curve" smooth="yes"/>
			<point x="67" y="700" type="line"/>
			<point x="67" y="672" type="line"/>
			<point x="121" y="663" type="line" smooth="yes"/>
			<point x="147" y="659"/>
			<point x="156" y="650"/>
			<point x="156" y="616" type="curve" smooth="yes"/>
			<point x="156" y="86" type="line" smooth="yes"/>
			<point x="156" y="48"/>
			<point x="149" y="39"/>
			<point x="125" y="35" type="curve" smooth="yes"/>
			<point x="67" y="26" type="line"/>
		</contour>
		<contour>
			<point x="288" y="332" type="curve" smooth="yes"/>
			<point x="249" y="332"/>
			<point x="225" y="333"/>
			<point x="205" y="335" type="curve"/>
			<point x="205" y="660" type="line"/>
			<point x="281" y="660" type="line" smooth="yes"/>
			<point x="407" y="660"/>
			<point x="484" y="623"/>
			<point x="484" y="500" type="curve" smooth="yes"/>
			<point x="484" y="376"/>
			<point x="417" y="332"/>
		</contour>
	</outline>
</glyph>
<glyph name="R" format="2">
	<unicode hex="0052"/>
	<advance width="654"/>
	<outline>
		<contour>
			<point x="589" y="-14" type="curve" smooth="yes"/>
			<point x="618" y="-14"/>
			<point x="647" y="0"/>
			<point x="665" y="17" type="curve"/>
			<point x="658" y="41" type="line"/>
			<point x="645" y="36"/>
			<point x="625" y="29"/>
			<point x="599" y="29" type="curve" smooth="yes"/>
			<point x="550" y="29"/>
			<point x="531" y="75"/>
			<point x="498" y="161" type="curve" smooth="yes"/>
			<point x="466" y="245" type="line" smooth="yes"/>
			<point x="448" y="293"/>
			<point x="423" y="327"/>
			<point x="378" y="340" type="curve"/>
			<point x="378" y="343" type="line"/>
			<point x="499" y="364"/>
			<point x="533" y="453"/>
			<point x="533" y="516" type="curve" smooth="yes"/>
			<point x="533" y="641"/>
			<point x="456" y="700"/>
			<point x="274" y="700" type="curve" smooth="yes"/>
			<point x="67" y="700" type="line"/>
			<point x="67" y="672" type="line"/>
			<point x="124" y="663" type="line" smooth="yes"/>
			<point x="150" y="659"/>
			<point x="159" y="650"/>
			<point x="159" y="616" type="curve" smooth="yes"/>
			<point x="159" y="86" type="line" smooth="yes"/>
			<point x="159" y="46"/>
			<point x="150" y="38"/>
			<point x="128" y="35" type="curve" smooth="yes"/>
			<point x="67" y="26" type="line"/>
			<point x="67" y="0" type="line"/>
			<point x="321" y="0" type="line"/>
			<point x="321" y="26" type="line"/>
			<point x="242" y="35" type="line" smooth="yes"/>
			<point x="214" y="38"/>
			<point x="206" y="53"/>
			<point x="206" y="82" type="curve" smooth="yes"/>
			<point x="206" y="320" type="line"/>
			<point x="226" y="323"/>
			<point x="246" y="324"/>
			<point x="277" y="324" type="curve" smooth="yes"/>
			<point x="343" y="324"/>
			<point x="384" y="319"/>
			<point x="418" y="229" type="curve" smooth="yes"/>
			<point x="475" y="77" type="line" smooth="yes"/>
			<point x="499" y="13"/>
			<point x="534" y="-14"/>
		</contour>
		<contour>
			<point x="287" y="363" type="curve" smooth="yes"/>
			<point x="274" y="363"/>
			<point x="251" y="363"/>
			<point x="206" y="365" type="curve"/>
			<point x="206" y="659" type="line"/>
			<point x="274" y="659" type="line" smooth="yes"/>
			<point x="401" y="659"/>
			<point x="483" y="625"/>
			<point x="483" y="517" type="curve" smooth="yes"/>
			<point x="483" y="408"/>
			<point x="391" y="363"/>
		</contour>
	</outline>
	<anchor name="bottom" x="353" y="-30"/>
	<anchor name="top" x="310" y="730"/>
</glyph>
<glyph name="T" format="2">
	<unicode hex="0054"/>
	<advance width="658"/>
	<outline>
		<contour>
			<point x="189" y="0" type="line"/>
			<point x="466" y="0" type="line"/>
			<point x="466" y="25" type="line"/>
			<point x="386" y="38" type="line" smooth="yes"/>
			<point x="358" y="43"/>
			<point x="352" y="48"/>
			<point x="352" y="82" type="curve" smooth="yes"/>
			<point x="352" y="661" type="line"/>
			<point x="440" y="661" type="line" smooth="yes"/>
			<point x="534" y="661"/>
			<point x="553" y="645"/>
			<point x="597" y="500" type="curve"/>
			<point x="625" y="507" type="line"/>
			<point x="585" y="700" type="line"/>
			<point x="73" y="700" type="line"/>
			<point x="33" y="507" type="line"/>
			<point x="61" y="500" type="line"/>
			<point x="105" y="645"/>
			<point x="124" y="661"/>
			<point x="218" y="661" type="curve" smooth="yes"/>
			<point x="303" y="661" type="line"/>
			<point x="303" y="86" type="line" smooth="yes"/>
			<point x="303" y="46"/>
			<point x="289" y="41"/>
			<point x="270" y="38" type="curve" smooth="yes"/>
			<point x="189" y="25" type="line"/>
		</contour>
	</outline>
	<anchor name="bottom" x="328" y="-30"/>
	<anchor name="top" x="328" y="730"/>
</glyph>
<glyph name="Z" format="2">
	<unicode hex="005A"/>
	<advance width="637"/>
	<outline>
		<contour>
			<point x="58" y="0" type="line"/>
			<point x="558" y="0" type="line"/>
			<point x="577" y="174" type="line"/>
			<point x="547" y="174" type="line"/>
			<point x="526" y="70"/>
			<point x="497" y="39"/>
			<point x="410" y="39" type="curve" smooth="yes"/>
			<point x="121" y="39" type="line"/>
			<point x="571" y="666" type="line"/>
			<point x="571" y="700" type="line"/>
			<point x="79" y="700" type="line"/>
			<point x="68" y="527" type="line"/>
			<point x="98" y="529" type="line"/>
			<point x="120" y="650"/>
			<point x="143" y="661"/>
			<point x="209" y="661" type="curve" smooth="yes"/>
			<point x="509" y="661" type="line"/>
			<point x="58" y="31" type="line"/>
		</contour>
	</outline>
	<anchor name="bottom" x="312" y="-30"/>
	<anchor name="top" x="320" y="730"/>
</glyph>
<glyph name="bracketleft" format="2">
	<unicode hex="005B"/>
	<advance width="297"/>
	<outline>
		<contour>
			<point x="105" y="-212" type="line"/>
			<point x="255" y="-212" type="line"/>
			<point x="257" y="-184" type="line"/>
			<point x="177" y="-178" type="line" smooth="yes"/>
			<point x="151" y="-176"/>
			<point x="148" y="-165"/>
			<point x="148" y="-125" type="curve" smooth="yes"/>
			<point x="148" y="722" type="line" smooth="yes"/>
			<point x="148" y="762"/>
			<point x="148" y="776"/>
			<point x="178" y="778" type="curve" smooth="yes"/>
			<point x="257" y="783" type="line"/>
			<point x="255" y="812" type="line"/>
			<point x="105" y="812" type="line"/>
		</contour>
	</outline>
</glyph>
<glyph name="c" format="2">
	<unicode hex="0063"/>
	<advance width="475"/>
	<outline>
		<contour>
			<point x="262" y="-14" type="curve" smooth="yes"/>
			<point x="320" y="-14"/>
			<point x="382" y="6"/>
			<point x="433" y="62" type="curve"/>
			<point x="411" y="87" type="line"/>
			<point x="370" y="52"/>
			<point x="322" y="30"/>
			<point x="269" y="30" type="curve" smooth="yes"/>
			<point x="170" y="30"/>
			<point x="99" y="96"/>
			<point x="99" y="256" type="curve" smooth="yes"/>
			<point x="99" y="409"/>
			<point x="171" y="475"/>
			<point x="263" y="475" type="curve" smooth="yes"/>
			<point x="308" y="475"/>
			<point x="346" y="462"/>
			<point x="369" y="440" type="curve"/>
			<point x="349" y="410"/>
			<point x="340" y="395"/>
			<point x="340" y="379" type="curve" smooth="yes"/>
			<point x="340" y="361"/>
			<point x="351" y="343"/>
			<point x="381" y="343" type="curve" smooth="yes"/>
			<point x="407" y="343"/>
			<point x="432" y="360"/>
			<point x="432" y="404" type="curve" smooth="yes"/>
			<point x="432" y="471"/>
			<point x="360" y="517"/>
			<point x="263" y="517" type="curve" smooth="yes"/>
			<point x="136" y="517"/>
			<point x="50" y="424"/>
			<point x="50" y="249" type="curve" smooth="yes"/>
			<point x="50" y="81"/>
			<point x="130" y="-14"/>
		</contour>
	</outline>
	<anchor name="bottom" x="261" y="-30"/>
	<anchor name="top" x="263" y="550"/>
</glyph>
<glyph name="g" format="2">
	<unicode hex="0067"/>
	<advance width="500"/>
	<outline>
		<contour>
			<point x="233" y="-230" type="curve" smooth="yes"/>
			<point x="325" y="-230"/>
			<point x="475" y="-195"/>
			<point x="475" y="-57" type="curve" smooth="yes"/>
			<point x="475" y="17"/>
			<point x="417" y="51"/>
			<point x="334" y="51" type="curve" smooth="yes"/>
			<point x="187" y="51" type="line" smooth="yes"/>
			<point x="136" y="51"/>
			<point x="112" y="78"/>
			<point x="112" y="106" type="curve" smooth="yes"/>
			<point x="112" y="138"/>
			<point x="144" y="167"/>
			<point x="161" y="186" type="curve"/>
			<point x="185" y="179"/>
			<point x="198" y="175"/>
			<point x="233" y="175" type="curve" smooth="yes"/>
			<point x="341" y="175"/>
			<point x="417" y="237"/>
			<point x="417" y="352" type="curve" smooth="yes"/>
			<point x="417" y="395"/>
			<point x="398" y="437"/>
			<point x="369" y="467" type="curve"/>
			<point x="374" y="496"/>
			<point x="385" y="521"/>
			<point x="402" y="537" type="curve"/>
			<point x="414" y="521" type="line" smooth="yes"/>
			<point x="429" y="501"/>
			<point x="439" y="497"/>
			<point x="452" y="497" type="curve" smooth="yes"/>
			<point x="471" y="497"/>
			<point x="489" y="519"/>
			<point x="489" y="543" type="curve" smooth="yes"/>
			<point x="489" y="562"/>
			<point x="473" y="585"/>
			<point x="437" y="585" type="curve" smooth="yes"/>
			<point x="404" y="585"/>
			<point x="362" y="563"/>
			<point x="340" y="489" type="curve"/>
			<point x="316" y="503"/>
			<point x="277" y="516"/>
			<point x="235" y="516" type="curve" smooth="yes"/>
			<point x="118" y="516"/>
			<point x="52" y="445"/>
			<point x="52" y="341" type="curve" smooth="yes"/>
			<point x="52" y="282"/>
			<point x="74" y="238"/>
			<point x="127" y="202" type="curve"/>
			<point x="127" y="199" type="line"/>
			<point x="95" y="164"/>
			<point x="66" y="133"/>
			<point x="66" y="100" type="curve" smooth="yes"/>
			<point x="66" y="69"/>
			<point x="79" y="50"/>
			<point x="107" y="29" type="curve"/>
			<point x="107" y="27" type="line"/>
			<point x="56" y="-10"/>
			<point x="25" y="-50"/>
			<point x="25" y="-99" type="curve" smooth="yes"/>
			<point x="25" y="-195"/>
			<point x="129" y="-230"/>
		</contour>
		<contour>
			<point x="234" y="-190" type="curve" smooth="yes"/>
			<point x="130" y="-190"/>
			<point x="74" y="-154"/>
			<point x="74" y="-89" type="curve" smooth="yes"/>
			<point x="74" y="-45"/>
			<point x="108" y="-11"/>
			<point x="142" y="10" type="curve"/>
			<point x="331" y="10" type="line" smooth="yes"/>
			<point x="395" y="10"/>
			<point x="426" y="-13"/>
			<point x="426" y="-61" type="curve" smooth="yes"/>
			<point x="426" y="-149"/>
			<point x="338" y="-190"/>
		</contour>
		<contour>
			<point x="235" y="215" type="curve" smooth="yes"/>
			<point x="153" y="215"/>
			<point x="100" y="265"/>
			<point x="100" y="345" type="curve" smooth="yes"/>
			<point x="100" y="429"/>
			<point x="149" y="476"/>
			<point x="230" y="476" type="curve" smooth="yes"/>
			<point x="319" y="476"/>
			<point x="368" y="427"/>
			<point x="368" y="349" type="curve" smooth="yes"/>
			<point x="368" y="261"/>
			<point x="319" y="215"/>
		</contour>
	</outline>
	<anchor name="top" x="232" y="550"/>
</glyph>
<glyph name="h" format="2">
	<unicode hex="0068"/>
	<advance width="628"/>
	<outline>
		<contour>
			<point x="57" y="0" type="line"/>
			<point x="263" y="0" type="line"/>
			<point x="263" y="25" type="line"/>
			<point x="205" y="34" type="line" smooth="yes"/>
			<point x="185" y="37"/>
			<point x="180" y="48"/>
			<point x="180" y="78" type="curve" smooth="yes"/>
			<point x="180" y="316" type="line" smooth="yes"/>
			<point x="180" y="407"/>
			<point x="252" y="473"/>
			<point x="345" y="473" type="curve" smooth="yes"/>
			<point x="433" y="473"/>
			<point x="465" y="431"/>
			<point x="465" y="339" type="curve" smooth="yes"/>
			<point x="465" y="75" type="line" smooth="yes"/>
			<point x="465" y="41"/>
			<point x="457" y="34"/>
			<point x="435" y="31" type="curve" smooth="yes"/>
			<point x="388" y="25" type="line"/>
			<point x="388" y="0" type="line"/>
			<point x="588" y="0" type="line"/>
			<point x="588" y="25" type="line"/>
			<point x="545" y="32" type="line" smooth="yes"/>
			<point x="519" y="36"/>
			<point x="514" y="44"/>
			<point x="514" y="74" type="curve" smooth="yes"/>
			<point x="514" y="349" type="line" smooth="yes"/>
			<point x="514" y="460"/>
			<point x="458" y="517"/>
			<point x="356" y="517" type="curve" smooth="yes"/>
			<point x="285" y="517"/>
			<point x="216" y="483"/>
			<point x="180" y="421" type="curve"/>
			<point x="180" y="422" type="line"/>
			<point x="180" y="755" type="line"/>
			<point x="169" y="766" type="line"/>
			<point x="47" y="761" type="line"/>
			<point x="44" y="732" type="line"/>
			<point x="93" y="724" type="line" smooth="yes"/>
			<point x="124" y="719"/>
			<point x="131" y="708"/>
			<point x="131" y="668" type="curve" smooth="yes"/>
			<point x="131" y="82" type="line" smooth="yes"/>
			<point x="131" y="44"/>
			<point x="124" y="36"/>
			<point x="105" y="33" type="curve" smooth="yes"/>
			<point x="57" y="25" type="line"/>
		</contour>
	</outline>
	<anchor name="bottom" x="327" y="-30"/>
	<anchor name="top" x="116" y="780"/>
</glyph>
<glyph name="n" format="2">
	<unicode hex="006E"/>
	<advance width="625"/>
	<outline>
		<contour>
			<point x="54" y="0" type="line"/>
			<point x="261" y="0" type="line"/>
			<point x="261" y="25" type="line"/>
			<point x="202" y="34" type="line" smooth="yes"/>
			<point x="182" y="37"/>
			<point x="177" y="48"/>
			<point x="177" y="78" type="curve" smooth="yes"/>
			<point x="177" y="316" type="line" smooth="yes"/>
			<point x="177" y="407"/>
			<point x="249" y="473"/>
			<point x="342" y="473" type="curve" smooth="yes"/>
			<point x="428" y="473"/>
			<point x="462" y="431"/>
			<point x="462" y="339" type="curve" smooth="yes"/>
			<point x="462" y="75" type="line" smooth="yes"/>
			<point x="462" y="43"/>
			<point x="455" y="35"/>
			<point x="432" y="32" type="curve" smooth="yes"/>
			<point x="382" y="25" type="line"/>
			<point x="382" y="0" type="line"/>
			<point x="585" y="0" type="line"/>
			<point x="585" y="25" type="line"/>
			<point x="542" y="32" type="line" smooth="yes"/>
			<point x="516" y="36"/>
			<point x="511" y="45"/>
			<point x="511" y="74" type="curve" smooth="yes"/>
			<point x="511" y="349" type="line" smooth="yes"/>
			<point x="511" y="460"/>
			<point x="453" y="517"/>
			<point x="353" y="517" type="curve" smooth="yes"/>
			<point x="282" y="517"/>
			<point x="213" y="483"/>
			<point x="177" y="421" type="curve"/>
			<point x="176" y="421" type="line"/>
			<point x="173" y="503" type="line"/>
			<point x="162" y="509" type="line"/>
			<point x="48" y="497" type="line"/>
			<point x="45" y="469" type="line"/>
			<point x="94" y="462" type="line" smooth="yes"/>
			<point x="123" y="458"/>
			<point x="128" y="447"/>
			<point x="128" y="400" type="curve" smooth="yes"/>
			<point x="128" y="82" type="line" smooth="yes"/>
			<point x="128" y="44"/>
			<point x="121" y="36"/>
			<point x="102" y="33" type="curve" smooth="yes"/>
			<point x="54" y="25" type="line"/>
		</contour>
	</outline>
	<anchor name="bottom" x="321" y="-30"/>
	<anchor name="top" x="314" y="550"/>
</glyph>
<glyph name="p" format="2">
	<unicode hex="0070"/>
	<advance width="591"/>
	<outline>
		<contour>
			<point x="49" y="-216" type="line"/>
			<point x="265" y="-216" type="line"/>
			<point x="265" y="-191" type="line"/>
			<point x="204" y="-183" type="line" smooth="yes"/>
			<point x="174" y="-179"/>
			<point x="172" y="-168"/>
			<point x="172" y="-136" type="curve" smooth="yes"/>
			<point x="172" y="22" type="line"/>
			<point x="207" y="2"/>
			<point x="261" y="-14"/>
			<point x="309" y="-14" type="curve" smooth="yes"/>
			<point x="445" y="-14"/>
			<point x="536" y="86"/>
			<point x="536" y="261" type="curve" smooth="yes"/>
			<point x="536" y="434"/>
			<point x="459" y="517"/>
			<point x="338" y="517" type="curve" smooth="yes"/>
			<point x="273" y="517"/>
			<point x="214" y="495"/>
			<point x="172" y="427" type="curve"/>
			<point x="171" y="427" type="line"/>
			<point x="168" y="503" type="line"/>
			<point x="157" y="509" type="line"/>
			<point x="43" y="497" type="line"/>
			<point x="40" y="469" type="line"/>
			<point x="88" y="462" type="line" smooth="yes"/>
			<point x="120" y="457"/>
			<point x="123" y="434"/>
			<point x="123" y="384" type="curve" smooth="yes"/>
			<point x="123" y="-136" type="line" smooth="yes"/>
			<point x="123" y="-170"/>
			<point x="116" y="-180"/>
			<point x="97" y="-183" type="curve" smooth="yes"/>
			<point x="49" y="-191" type="line"/>
		</contour>
		<contour>
			<point x="308" y="27" type="curve" smooth="yes"/>
			<point x="260" y="27"/>
			<point x="206" y="45"/>
			<point x="172" y="70" type="curve"/>
			<point x="172" y="320" type="line" smooth="yes"/>
			<point x="172" y="414"/>
			<point x="241" y="474"/>
			<point x="329" y="474" type="curve" smooth="yes"/>
			<point x="415" y="474"/>
			<point x="485" y="431"/>
			<point x="485" y="260" type="curve" smooth="yes"/>
			<point x="485" y="100"/>
			<point x="408" y="27"/>
		</contour>
	</outline>
</glyph>
<glyph name="q" format="2">
	<unicode hex="0071"/>
	<advance width="567"/>
	<outline>
		<contour>
			<point x="334" y="-216" type="line"/>
			<point x="542" y="-216" type="line"/>
			<point x="542" y="-191" type="line"/>
			<point x="495" y="-182" type="line" smooth="yes"/>
			<point x="477" y="-179"/>
			<point x="468" y="-175"/>
			<point x="468" y="-138" type="curve" smooth="yes"/>
			<point x="468" y="505" type="line"/>
			<point x="448" y="510" type="line"/>
			<point x="423" y="482" type="line"/>
			<point x="386" y="501"/>
			<point x="338" y="517"/>
			<point x="282" y="517" type="curve" smooth="yes"/>
			<point x="142" y="517"/>
			<point x="55" y="413"/>
			<point x="55" y="240" type="curve" smooth="yes"/>
			<point x="55" y="78"/>
			<point x="125" y="-14"/>
			<point x="258" y="-14" type="curve" smooth="yes"/>
			<point x="315" y="-14"/>
			<point x="376" y="5"/>
			<point x="418" y="74" type="curve"/>
			<point x="419" y="74" type="line"/>
			<point x="419" y="-137" type="line" smooth="yes"/>
			<point x="419" y="-170"/>
			<point x="412" y="-179"/>
			<point x="389" y="-183" type="curve" smooth="yes"/>
			<point x="334" y="-192" type="line"/>
		</contour>
		<contour>
			<point x="266" y="29" type="curve" smooth="yes"/>
			<point x="158" y="29"/>
			<point x="106" y="108"/>
			<point x="106" y="248" type="curve" smooth="yes"/>
			<point x="106" y="390"/>
			<point x="165" y="476"/>
			<point x="279" y="476" type="curve" smooth="yes"/>
			<point x="337" y="476"/>
			<point x="380" y="461"/>
			<point x="419" y="440" type="curve"/>
			<point x="419" y="189" type="line" smooth="yes"/>
			<point x="419" y="94"/>
			<point x="360" y="29"/>
		</contour>
	</outline>
</glyph>
<glyph name="s" format="2">
	<unicode hex="0073"/>
	<advance width="435"/>
	<outline>
		<contour>
			<point x="56" y="-14" type="line"/>
			<point x="85" y="-14" type="line"/>
			<point x="92" y="31" type="line"/>
			<point x="131" y="1"/>
			<point x="176" y="-14"/>
			<point x="231" y="-14" type="curve" smooth="yes"/>
			<point x="333" y="-14"/>
			<point x="393" y="56"/>
			<point x="393" y="137" type="curve" smooth="yes"/>
			<point x="393" y="229"/>
			<point x="317" y="260"/>
			<point x="233" y="282" type="curve" smooth="yes"/>
			<point x="165" y="300"/>
			<point x="111" y="316"/>
			<point x="111" y="387" type="curve" smooth="yes"/>
			<point x="111" y="445"/>
			<point x="147" y="476"/>
			<point x="209" y="476" type="curve" smooth="yes"/>
			<point x="274" y="476"/>
			<point x="323" y="442"/>
			<point x="337" y="372" type="curve"/>
			<point x="372" y="370" type="line"/>
			<point x="362" y="517" type="line"/>
			<point x="336" y="517" type="line"/>
			<point x="329" y="473" type="line"/>
			<point x="296" y="501"/>
			<point x="257" y="517"/>
			<point x="209" y="517" type="curve" smooth="yes"/>
			<point x="116" y="517"/>
			<point x="61" y="458"/>
			<point x="61" y="380" type="curve" smooth="yes"/>
			<point x="61" y="289"/>
			<point x="131" y="259"/>
			<point x="202" y="241" type="curve" smooth="yes"/>
			<point x="310" y="214"/>
			<point x="340" y="192"/>
			<point x="340" y="132" type="curve" smooth="yes"/>
			<point x="340" y="72"/>
			<point x="303" y="27"/>
			<point x="226" y="27" type="curve" smooth="yes"/>
			<point x="147" y="27"/>
			<point x="97" y="64"/>
			<point x="73" y="152" type="curve"/>
			<point x="45" y="150" type="line"/>
		</contour>
	</outline>
	<anchor name="bottom" x="213" y="-30"/>
	<anchor name="top" x="212" y="550"/>
</glyph>
<glyph name="u" format="2">
	<unicode hex="0075"/>
	<advance width="612"/>
	<outline>
		<contour>
			<point x="276" y="-14" type="curve" smooth="yes"/>
			<point x="343" y="-14"/>
			<point x="401" y="9"/>
			<point x="446" y="78" type="curve"/>
			<point x="447" y="78" type="line"/>
			<point x="452" y="-8" type="line"/>
			<point x="577" y="-3" type="line"/>
			<point x="577" y="24" type="line"/>
			<point x="527" y="29" type="line" smooth="yes"/>
			<point x="501" y="32"/>
			<point x="495" y="42"/>
			<point x="495" y="78" type="curve" smooth="yes"/>
			<point x="495" y="503" type="line"/>
			<point x="483" y="509" type="line"/>
			<point x="367" y="497" type="line"/>
			<point x="364" y="469" type="line"/>
			<point x="412" y="463" type="line" smooth="yes"/>
			<point x="446" y="459"/>
			<point x="446" y="440"/>
			<point x="446" y="401" type="curve" smooth="yes"/>
			<point x="446" y="184" type="line" smooth="yes"/>
			<point x="446" y="94"/>
			<point x="380" y="30"/>
			<point x="280" y="30" type="curve" smooth="yes"/>
			<point x="199" y="30"/>
			<point x="166" y="75"/>
			<point x="166" y="163" type="curve" smooth="yes"/>
			<point x="166" y="503" type="line"/>
			<point x="154" y="509" type="line"/>
			<point x="38" y="497" type="line"/>
			<point x="35" y="469" type="line"/>
			<point x="83" y="463" type="line" smooth="yes"/>
			<point x="117" y="459"/>
			<point x="117" y="440"/>
			<point x="117" y="401" type="curve" smooth="yes"/>
			<point x="117" y="153" type="line" smooth="yes"/>
			<point x="117" y="39"/>
			<point x="175" y="-14"/>
		</contour>
	</outline>
	<anchor name="bottom" x="307" y="-30"/>
	<anchor name="top" x="289" y="550"/>
</glyph>
<glyph name="x" format="2">
	<unicode hex="0078"/>
	<advance width="545"/>
	<outline>
		<contour>
			<point x="10" y="0" type="line"/>
			<point x="214" y="0" type="line"/>
			<point x="214" y="25" type="line"/>
			<point x="175" y="33" type="line" smooth="yes"/>
			<point x="125" y="43"/>
			<point x="138" y="60"/>
			<point x="157" y="84" type="curve" smooth="yes"/>
			<point x="270" y="225" type="line"/>
			<point x="381" y="83" type="line" smooth="yes"/>
			<point x="404" y="53"/>
			<point x="400" y="35"/>
			<point x="362" y="30" type="curve" smooth="yes"/>
			<point x="327" y="25" type="line"/>
			<point x="327" y="0" type="line"/>
			<point x="535" y="0" type="line"/>
			<point x="535" y="25" type="line"/>
			<point x="517" y="28" type="line" smooth="yes"/>
			<point x="475" y="35"/>
			<point x="459" y="52"/>
			<point x="434" y="84" type="curve" smooth="yes"/>
			<point x="299" y="257" type="line"/>
			<point x="432" y="423" type="line" smooth="yes"/>
			<point x="459" y="457"/>
			<point x="471" y="471"/>
			<point x="499" y="475" type="curve" smooth="yes"/>
			<point x="528" y="479" type="line"/>
			<point x="528" y="507" type="line"/>
			<point x="337" y="507" type="line"/>
			<point x="331" y="479" type="line"/>
			<point x="365" y="474" type="line" smooth="yes"/>
			<point x="408" y="468"/>
			<point x="411" y="455"/>
			<point x="391" y="430" type="curve" smooth="yes"/>
			<point x="278" y="284" type="line"/>
			<point x="164" y="426" type="line" smooth="yes"/>
			<point x="136" y="461"/>
			<point x="152" y="467"/>
			<point x="188" y="471" type="curve" smooth="yes"/>
			<point x="228" y="476" type="line"/>
			<point x="228" y="503" type="line"/>
			<point x="25" y="503" type="line"/>
			<point x="21" y="475" type="line"/>
			<point x="50" y="469" type="line" smooth="yes"/>
			<point x="82" y="462"/>
			<point x="93" y="447"/>
			<point x="121" y="412" type="curve" smooth="yes"/>
			<point x="249" y="252" type="line"/>
			<point x="109" y="84" type="line"/>
			<point x="78" y="53"/>
			<point x="72" y="35"/>
			<point x="28" y="28" type="curve" smooth="yes"/>
			<point x="10" y="25" type="line"/>
		</contour>
	</outline>
</glyph>
<glyph name="y" format="2">
	<unicode hex="0079"/>
	<advance width="542"/>
	<outline>
		<contour>
			<point x="104" y="-230" type="curve" smooth="yes"/>
			<point x="176" y="-230"/>
			<point x="210" y="-188"/>
			<point x="255" y="-81" type="curve" smooth="yes"/>
			<point x="463" y="415" type="line" smooth="yes"/>
			<point x="483" y="464"/>
			<point x="491" y="467"/>
			<point x="510" y="471" type="curve" smooth="yes"/>
			<point x="542" y="477" type="line"/>
			<point x="542" y="503" type="line"/>
			<point x="363" y="503" type="line"/>
			<point x="357" y="475" type="line"/>
			<point x="396" y="469" type="line" smooth="yes"/>
			<point x="431" y="464"/>
			<point x="430" y="443"/>
			<point x="419" y="416" type="curve" smooth="yes"/>
			<point x="278" y="71" type="line"/>
			<point x="275" y="71" type="line"/>
			<point x="131" y="421" type="line" smooth="yes"/>
			<point x="117" y="455"/>
			<point x="122" y="467"/>
			<point x="150" y="470" type="curve" smooth="yes"/>
			<point x="196" y="476" type="line"/>
			<point x="196" y="503" type="line"/>
			<point x="9" y="503" type="line"/>
			<point x="3" y="475" type="line"/>
			<point x="36" y="469" type="line" smooth="yes"/>
			<point x="61" y="464"/>
			<point x="63" y="456"/>
			<point x="79" y="419" type="curve" smooth="yes"/>
			<point x="251" y="14" type="line"/>
			<point x="228" y="-43" type="line" smooth="yes"/>
			<point x="178" y="-166"/>
			<point x="151" y="-194"/>
			<point x="107" y="-188" type="curve"/>
			<point x="113" y="-164"/>
			<point x="114" y="-152"/>
			<point x="114" y="-144" type="curve" smooth="yes"/>
			<point x="114" y="-125"/>
			<point x="99" y="-107"/>
			<point x="72" y="-107" type="curve" smooth="yes"/>
			<point x="46" y="-107"/>
			<point x="25" y="-127"/>
			<point x="25" y="-155" type="curve" smooth="yes"/>
			<point x="25" y="-197"/>
			<point x="55" y="-230"/>
		</contour>
	</outline>
	<anchor name="bottom" x="397" y="-30"/>
	<anchor name="top" x="279" y="550"/>
</glyph>
<glyph name="z" format="2">
	<unicode hex="007A"/>
	<advance width="481"/>
	<outline>
		<contour>
			<point x="50" y="0" type="line"/>
			<point x="414" y="0" type="line"/>
			<point x="431" y="162" type="line"/>
			<point x="407" y="162" type="line"/>
			<point x="378" y="47"/>
			<point x="366" y="39"/>
			<point x="279" y="39" type="curve" smooth="yes"/>
			<point x="115" y="39" type="line"/>
			<point x="426" y="470" type="line"/>
			<point x="426" y="503" type="line"/>
			<point x="72" y="503" type="line"/>
			<point x="60" y="345" type="line"/>
			<point x="86" y="348" type="line"/>
			<point x="113" y="453"/>
			<point x="121" y="464"/>
			<point x="197" y="464" type="curve" smooth="yes"/>
			<point x="364" y="464" type="line"/>
			<point x="50" y="27" type="line"/>
		</contour>
	</outline>
	<anchor name="bottom" x="237" y="-30"/>
	<anchor name="top" x="248" y="550"/>
</glyph>
<glyph name="braceleft" format="2">
	<unicode hex="007B"/>
	<advance width="307"/>
	<outline>
		<contour>
			<point x="229" y="-227" type="curve" smooth="yes"/>
			<point x="245" y="-227"/>
			<point x="261" y="-224"/>
			<point x="279" y="-218" type="curve"/>
			<point x="274" y="-191" type="line"/>
			<point x="260" y="-194"/>
			<point x="252" y="-195"/>
			<point x="237" y="-195" type="curve" smooth="yes"/>
			<point x="193" y="-195"/>
			<point x="176" y="-160"/>
			<point x="176" y="-103" type="curve" smooth="yes"/>
			<point x="176" y="-63"/>
			<point x="194" y="99"/>
			<point x="194" y="164" type="curve" smooth="yes"/>
			<point x="194" y="258"/>
			<point x="182" y="279"/>
			<point x="109" y="296" type="curve"/>
			<point x="182" y="313"/>
			<point x="194" y="338"/>
			<point x="194" y="432" type="curve" smooth="yes"/>
			<point x="194" y="497"/>
			<point x="176" y="659"/>
			<point x="176" y="699" type="curve" smooth="yes"/>
			<point x="176" y="756"/>
			<point x="193" y="790"/>
			<point x="237" y="790" type="curve" smooth="yes"/>
			<point x="252" y="790"/>
			<point x="260" y="789"/>
			<point x="274" y="786" type="curve"/>
			<point x="279" y="814" type="line"/>
			<point x="261" y="820"/>
			<point x="245" y="823"/>
			<point x="229" y="823" type="curve" smooth="yes"/>
			<point x="170" y="823"/>
			<point x="130" y="776"/>
			<point x="130" y="702" type="curve" smooth="yes"/>
			<point x="130" y="641"/>
			<point x="149" y="496"/>
			<point x="149" y="424" type="curve" smooth="yes"/>
			<point x="149" y="324"/>
			<point x="118" y="313"/>
			<point x="55" y="312" type="curve"/>
			<point x="55" y="281" type="line"/>
			<point x="118" y="280"/>
			<point x="149" y="272"/>
			<point x="149" y="172" type="curve" smooth="yes"/>
			<point x="149" y="100"/>
			<point x="130" y="-45"/>
			<point x="130" y="-114" type="curve" smooth="yes"/>
			<point x="130" y="-180"/>
			<point x="165" y="-227"/>
		</contour>
	</outline>
</glyph>
<glyph name="asciitilde" format="2">
	<unicode hex="007E"/>
	<advance width="582"/>
	<outline>
		<contour>
			<point x="114" y="244" type="line"/>
			<point x="130" y="277"/>
			<point x="142" y="296"/>
			<point x="170" y="296" type="curve" smooth="yes"/>
			<point x="191" y="296"/>
			<point x="217" y="292"/>
			<point x="264" y="282" type="curve" smooth="yes"/>
			<point x="332" y="268"/>
			<point x="373" y="257"/>
			<point x="416" y="257" type="curve" smooth="yes"/>
			<point x="446" y="257"/>
			<point x="475" y="273"/>
			<point x="503" y="339" type="curve"/>
			<point x="467" y="352" type="line"/>
			<point x="451" y="319"/>
			<point x="441" y="300"/>
			<point x="413" y="300" type="curve" smooth="yes"/>
			<point x="389" y="300"/>
			<point x="350" y="308"/>
			<point x="296" y="320" type="curve" smooth="yes"/>
			<point x="243" y="332"/>
			<point x="198" y="339"/>
			<point x="167" y="339" type="curve" smooth="yes"/>
			<point x="137" y="339"/>
			<point x="106" y="323"/>
			<point x="78" y="257" type="curve"/>
		</contour>
	</outline>
</glyph>
<glyph name="cent" format="2">
	<unicode hex="00A2"/>
	<advance width="489"/>
	<outline>
		<contour>
			<point x="159" y="-23" type="line"/>
			<point x="201" y="-23" type="line"/>
			<point x="328" y="641" type="line"/>
			<point x="286" y="641" type="line"/>
		</contour>
		<contour>
			<point x="262" y="44" type="curve" smooth="yes"/>
			<point x="320" y="44"/>
			<point x="382" y="64"/>
			<point x="433" y="120" type="curve"/>
			<point x="411" y="145" type="line"/>
			<point x="370" y="110"/>
			<point x="322" y="88"/>
			<point x="269" y="88" type="curve" smooth="yes"/>
			<point x="170" y="88"/>
			<point x="99" y="154"/>
			<point x="99" y="314" type="curve" smooth="yes"/>
			<point x="99" y="467"/>
			<point x="171" y="533"/>
			<point x="263" y="533" type="curve" smooth="yes"/>
			<point x="308" y="533"/>
			<point x="346" y="520"/>
			<point x="369" y="498" type="curve"/>
			<point x="349" y="468"/>
			<point x="340" y="453"/>
			<point x="340" y="437" type="curve" smooth="yes"/>
			<point x="340" y="419"/>
			<point x="351" y="401"/>
			<point x="381" y="401" type="curve" smooth="yes"/>
			<point x="407" y="401"/>
			<point x="432" y="418"/>
			<point x="432" y="462" type="curve" smooth="yes"/>
			<point x="432" y="529"/>
			<point x="360" y="575"/>
			<point x="263" y="575" type="curve" smooth="yes"/>
			<point x="136" y="575"/>
			<point x="50" y="482"/>
			<point x="50" y="307" type="curve" smooth="yes"/>
			<point x="50" y="139"/>
			<point x="130" y="44"/>
		</contour>
	</outline>
	<anchor name="bottom" x="261" y="28"/>
	<anchor name="top" x="263" y="608"/>
</glyph>
<glyph name="sterling" format="2">
	<unicode hex="00A3"/>
	<advance width="520"/>
	<outline>
		<contour>
			<point x="52" y="0" type="line"/>
			<point x="455" y="0" type="line"/>
			<point x="478" y="170" type="line"/>
			<point x="448" y="170" type="line"/>
			<point x="424" y="51"/>
			<point x="406" y="41"/>
			<point x="307" y="41" type="curve" smooth="yes"/>
			<point x="129" y="41" type="line"/>
			<point x="129" y="43" type="line"/>
			<point x="192" y="70"/>
			<point x="226" y="142"/>
			<point x="226" y="211" type="curve" smooth="yes"/>
			<point x="226" y="246"/>
			<point x="217" y="279"/>
			<point x="205" y="310" type="curve"/>
			<point x="391" y="310" type="line"/>
			<point x="391" y="350" type="line"/>
			<point x="188" y="350" type="line"/>
			<point x="163" y="404"/>
			<point x="136" y="459"/>
			<point x="136" y="526" type="curve" smooth="yes"/>
			<point x="136" y="621"/>
			<point x="191" y="674"/>
			<point x="286" y="674" type="curve" smooth="yes"/>
			<point x="325" y="674"/>
			<point x="366" y="665"/>
			<point x="395" y="637" type="curve"/>
			<point x="377" y="608"/>
			<point x="369" y="593"/>
			<point x="369" y="576" type="curve" smooth="yes"/>
			<point x="369" y="555"/>
			<point x="388" y="542"/>
			<point x="412" y="542" type="curve" smooth="yes"/>
			<point x="439" y="542"/>
			<point x="457" y="558"/>
			<point x="457" y="595" type="curve" smooth="yes"/>
			<point x="457" y="672"/>
			<point x="381" y="716"/>
			<point x="286" y="716" type="curve" smooth="yes"/>
			<point x="163" y="716"/>
			<point x="85" y="642"/>
			<point x="85" y="519" type="curve" smooth="yes"/>
			<point x="85" y="450"/>
			<point x="109" y="400"/>
			<point x="133" y="350" type="curve"/>
			<point x="41" y="350" type="line"/>
			<point x="37" y="310" type="line"/>
			<point x="151" y="310" type="line"/>
			<point x="164" y="276"/>
			<point x="175" y="239"/>
			<point x="175" y="194" type="curve" smooth="yes"/>
			<point x="175" y="122"/>
			<point x="148" y="68"/>
			<point x="47" y="35" type="curve"/>
		</contour>
	</outline>
</glyph>
<glyph name="yen" format="2">
	<unicode hex="00A5"/>
	<advance width="671"/>
	<outline>
		<contour>
			<point x="220" y="0" type="line"/>
			<point x="445" y="0" type="line"/>
			<point x="445" y="26" type="line"/>
			<point x="390" y="35" type="line" smooth="yes"/>
			<point x="363" y="39"/>
			<point x="357" y="49"/>
			<point x="357" y="82" type="curve" smooth="yes"/>
			<point x="357" y="212" type="line"/>
			<point x="562" y="212" type="line"/>
			<point x="562" y="247" type="line"/>
			<point x="357" y="247" type="line"/>
			<point x="357" y="308" type="line"/>
			<point x="376" y="340" type="line"/>
			<point x="562" y="340" type="line"/>
			<point x="562" y="377" type="line"/>
			<point x="397" y="377" type="line"/>
			<point x="532" y="609" type="line" smooth="yes"/>
			<point x="555" y="649"/>
			<point x="565" y="661"/>
			<point x="588" y="664" type="curve" smooth="yes"/>
			<point x="654" y="672" type="line"/>
			<point x="654" y="700" type="line"/>
			<point x="428" y="700" type="line"/>
			<point x="428" y="673" type="line"/>
			<point x="470" y="669" type="line" smooth="yes"/>
			<point x="503" y="666"/>
			<point x="510" y="646"/>
			<point x="492" y="615" type="curve" smooth="yes"/>
			<point x="338" y="351" type="line"/>
			<point x="337" y="351" type="line"/>
			<point x="183" y="617" type="line" smooth="yes"/>
			<point x="167" y="644"/>
			<point x="171" y="666"/>
			<point x="204" y="669" type="curve" smooth="yes"/>
			<point x="254" y="673" type="line"/>
			<point x="254" y="700" type="line"/>
			<point x="27" y="700" type="line"/>
			<point x="27" y="673" type="line"/>
			<point x="67" y="666" type="line" smooth="yes"/>
			<point x="96" y="661"/>
			<point x="109" y="644"/>
			<point x="127" y="615" type="curve" smooth="yes"/>
			<point x="267" y="377" type="line"/>
			<point x="99" y="377" type="line"/>
			<point x="94" y="342" type="line"/>
			<point x="288" y="342" type="line"/>
			<point x="308" y="308" type="line"/>
			<point x="308" y="247" type="line"/>
			<point x="96" y="247" type="line"/>
			<point x="91" y="212" type="line"/>
			<point x="308" y="212" type="line"/>
			<point x="308" y="86" type="line" smooth="yes"/>
			<point x="308" y="49"/>
			<point x="302" y="39"/>
			<point x="277" y="35" type="curve" smooth="yes"/>
			<point x="220" y="26" type="line"/>
		</contour>
	</outline>
	<anchor name="bottom" x="332" y="-30"/>
	<anchor name="top" x="340" y="730"/>
</glyph>
<glyph name="section" format="2">
	<unicode hex="00A7"/>
	<advance width="578"/>
	<outline>
		<contour>
			<point x="273" y="-156" type="curve" smooth="yes"/>
			<point x="374" y="-156"/>
			<point x="446" y="-104"/>
			<point x="446" y="-20" type="curve" smooth="yes"/>
			<point x="446" y="9"/>
			<point x="439" y="34"/>
			<point x="427" y="56" type="curve"/>
			<point x="489" y="89"/>
			<point x="525" y="137"/>
			<point x="525" y="196" type="curve" smooth="yes"/>
			<point x="525" y="275"/>
			<point x="480" y="326"/>
			<point x="370" y="398" type="curve" smooth="yes"/>
			<point x="290" y="451"/>
			<point x="201" y="501"/>
			<point x="201" y="583" type="curve" smooth="yes"/>
			<point x="201" y="641"/>
			<point x="250" y="676"/>
			<point x="322" y="676" type="curve" smooth="yes"/>
			<point x="350" y="676"/>
			<point x="374" y="672"/>
			<point x="387" y="665" type="curve"/>
			<point x="366" y="631"/>
			<point x="351" y="614"/>
			<point x="351" y="594" type="curve" smooth="yes"/>
			<point x="351" y="570"/>
			<point x="369" y="557"/>
			<point x="394" y="557" type="curve" smooth="yes"/>
			<point x="438" y="557"/>
			<point x="455" y="588"/>
			<point x="455" y="618" type="curve" smooth="yes"/>
			<point x="455" y="675"/>
			<point x="410" y="714"/>
			<point x="326" y="714" type="curve" smooth="yes"/>
			<point x="225" y="714"/>
			<point x="153" y="663"/>
			<point x="153" y="578" type="curve" smooth="yes"/>
			<point x="153" y="549"/>
			<point x="160" y="524"/>
			<point x="172" y="502" type="curve"/>
			<point x="110" y="469"/>
			<point x="74" y="421"/>
			<point x="74" y="362" type="curve" smooth="yes"/>
			<point x="74" y="283"/>
			<point x="119" y="233"/>
			<point x="229" y="160" type="curve" smooth="yes"/>
			<point x="309" y="107"/>
			<point x="398" y="57"/>
			<point x="398" y="-25" type="curve" smooth="yes"/>
			<point x="398" y="-82"/>
			<point x="349" y="-118"/>
			<point x="277" y="-118" type="curve" smooth="yes"/>
			<point x="249" y="-118"/>
			<point x="222" y="-114"/>
			<point x="209" y="-107" type="curve"/>
			<point x="231" y="-77"/>
			<point x="243" y="-59"/>
			<point x="243" y="-39" type="curve" smooth="yes"/>
			<point x="243" y="-15"/>
			<point x="227" y="0"/>
			<point x="202" y="0" type="curve" smooth="yes"/>
			<point x="163" y="0"/>
			<point x="144" y="-27"/>
			<point x="144" y="-60" type="curve" smooth="yes"/>
			<point x="144" y="-117"/>
			<point x="189" y="-156"/>
		</contour>
		<contour>
			<point x="410" y="83" type="curve"/>
			<point x="373" y="130"/>
			<point x="314" y="166"/>
			<point x="255" y="204" type="curve" smooth="yes"/>
			<point x="172" y="257"/>
			<point x="122" y="305"/>
			<point x="122" y="373" type="curve" smooth="yes"/>
			<point x="122" y="421"/>
			<point x="152" y="459"/>
			<point x="189" y="475" type="curve"/>
			<point x="226" y="428"/>
			<point x="285" y="392"/>
			<point x="344" y="354" type="curve" smooth="yes"/>
			<point x="427" y="301"/>
			<point x="477" y="253"/>
			<point x="477" y="194" type="curve" smooth="yes"/>
			<point x="477" y="137"/>
			<point x="447" y="99"/>
		</contour>
	</outline>
</glyph>
<glyph name="softhyphen" format="2">
	<unicode hex="00AD"/>
	<advance width="353"/>
	<outline>
		<contour>
			<point x="60" y="272" type="line"/>
			<point x="293" y="272" type="line"/>
			<point x="293" y="313" type="line"/>
			<point x="60" y="313" type="line"/>
		</contour>
	</outline>
</glyph>
<glyph name="degree" format="2">
	<unicode hex="00B0"/>
	<advance width="325"/>
	<outline>
		<contour>
			<point x="162" y="553" type="curve" smooth="yes"/>
			<point x="238" y="553"/>
			<point x="280" y="606"/>
			<point x="280" y="670" type="curve" smooth="yes"/>
			<point x="280" y="736"/>
			<point x="238" y="782"/>
			<point x="163" y="782" type="curve" smooth="yes"/>
			<point x="85" y="782"/>
			<point x="45" y="728"/>
			<point x="45" y="668" type="curve" smooth="yes"/>
			<point x="45" y="603"/>
			<point x="81" y="553"/>
		</contour>
		<contour>
			<point x="164" y="589" type="curve" smooth="yes"/>
			<point x="110" y="589"/>
			<point x="87" y="622"/>
			<point x="87" y="668" type="curve" smooth="yes"/>
			<point x="87" y="713"/>
			<point x="114" y="746"/>
			<point x="161" y="746" type="curve" smooth="yes"/>
			<point x="209" y="746"/>
			<point x="238" y="716"/>
			<point x="238" y="668" type="curve" smooth="yes"/>
			<point x="238" y="624"/>
			<point x="210" y="589"/>
		</contour>
	</outline>
</glyph>
<glyph name="twosuperior" format="2">
	<unicode hex="00B2"/>
	<advance width="377"/>
	<outline>
		<contour>
			<point x="28" y="374" type="line"/>
			<point x="323" y="374" type="line"/>
			<point x="337" y="512" type="line"/>
			<point x="310" y="512" type="line"/>
			<point x="292" y="430"/>
			<point x="282" y="413"/>
			<point x="237" y="413" type="curve" smooth="yes"/>
			<point x="95" y="413" type="line"/>
			<point x="259" y="559"/>
			<point x="324" y="627"/>
			<point x="324" y="713" type="curve" smooth="yes"/>
			<point x="324" y="792"/>
			<point x="264" y="839"/>
			<point x="176" y="839" type="curve" smooth="yes"/>
			<point x="87" y="839"/>
			<point x="30" y="796"/>
			<point x="30" y="737" type="curve" smooth="yes"/>
			<point x="30" y="715"/>
			<point x="44" y="691"/>
			<point x="73" y="691" type="curve" smooth="yes"/>
			<point x="97" y="691"/>
			<point x="112" y="708"/>
			<point x="112" y="722" type="curve" smooth="yes"/>
			<point x="112" y="740"/>
			<point x="100" y="757"/>
			<point x="88" y="775" type="curve"/>
			<point x="107" y="791"/>
			<point x="134" y="799"/>
			<point x="173" y="799" type="curve" smooth="yes"/>
			<point x="240" y="799"/>
			<point x="278" y="765"/>
			<point x="278" y="710" type="curve" smooth="yes"/>
			<point x="278" y="630"/>
			<point x="211" y="575"/>
			<point x="25" y="399" type="curve"/>
		</contour>
	</outline>
</glyph>
<glyph name="threesuperior" format="2">
	<unicode hex="00B3"/>
	<advance width="388"/>
	<outline>
		<contour>
			<point x="188" y="362" type="curve" smooth="yes"/>
			<point x="275" y="362"/>
			<point x="348" y="410"/>
			<point x="348" y="498" type="curve" smooth="yes"/>
			<point x="348" y="564"/>
			<point x="308" y="596"/>
			<point x="243" y="612" type="curve"/>
			<point x="243" y="616" type="line"/>
			<point x="293" y="630"/>
			<point x="328" y="671"/>
			<point x="328" y="723" type="curve" smooth="yes"/>
			<point x="328" y="794"/>
			<point x="273" y="839"/>
			<point x="185" y="839" type="curve" smooth="yes"/>
			<point x="96" y="839"/>
			<point x="29" y="791"/>
			<point x="29" y="739" type="curve" smooth="yes"/>
			<point x="29" y="715"/>
			<point x="43" y="691"/>
			<point x="72" y="691" type="curve" smooth="yes"/>
			<point x="96" y="691"/>
			<point x="111" y="707"/>
			<point x="111" y="722" type="curve" smooth="yes"/>
			<point x="111" y="738"/>
			<point x="98" y="758"/>
			<point x="90" y="771" type="curve"/>
			<point x="114" y="790"/>
			<point x="140" y="799"/>
			<point x="177" y="799" type="curve" smooth="yes"/>
			<point x="248" y="799"/>
			<point x="282" y="768"/>
			<point x="282" y="721" type="curve" smooth="yes"/>
			<point x="282" y="675"/>
			<point x="244" y="630"/>
			<point x="148" y="623" type="curve"/>
			<point x="144" y="587" type="line"/>
			<point x="253" y="590"/>
			<point x="302" y="561"/>
			<point x="302" y="495" type="curve" smooth="yes"/>
			<point x="302" y="450"/>
			<point x="271" y="402"/>
			<point x="183" y="402" type="curve" smooth="yes"/>
			<point x="104" y="402"/>
			<point x="73" y="441"/>
			<point x="49" y="476" type="curve"/>
			<point x="20" y="452" type="line"/>
			<point x="38" y="422"/>
			<point x="75" y="362"/>
		</contour>
	</outline>
</glyph>
<glyph name="acute" format="2">
	<unicode hex="00B4"/>
	<advance width="500"/>
	<outline>
		<contour>
			<point x="205" y="584" type="line"/>
			<point x="313" y="678" type="line" smooth="yes"/>
			<point x="339" y="701"/>
			<point x="346" y="714"/>
			<point x="346" y="726" type="curve" smooth="yes"/>
			<point x="346" y="740"/>
			<point x="332" y="756"/>
			<point x="318" y="756" type="curve" smooth="yes"/>
			<point x="308" y="756"/>
			<point x="299" y="749"/>
			<point x="287" y="734" type="curve" smooth="yes"/>
			<point x="186" y="602" type="line"/>
		</contour>
	</outline>
	<anchor name="_top" x="250" y="550"/>
</glyph>
<glyph name="Oslash" format="2">
	<unicode hex="00D8"/>
	<advance width="733"/>
	<outline>
		<contour>
			<point x="47" y="-14" type="line"/>
			<point x="102" y="-14" type="line"/>
			<point x="162" y="60" type="line"/>
			<point x="211" y="12"/>
			<point x="279" y="-14"/>
			<point x="365" y="-14" type="curve" smooth="yes"/>
			<point x="555" y="-14"/>
			<point x="668" y="129"/>
			<point x="668" y="362" type="curve" smooth="yes"/>
			<point x="668" y="463"/>
			<point x="645" y="546"/>
			<point x="601" y="606" type="curve"/>
			<point x="688" y="714" type="line"/>
			<point x="633" y="714" type="line"/>
			<point x="573" y="639" type="line"/>
			<point x="523" y="688"/>
			<point x="455" y="714"/>
			<point x="371" y="714" type="curve" smooth="yes"/>
			<point x="173" y="714"/>
			<point x="65" y="578"/>
			<point x="65" y="342" type="curve" smooth="yes"/>
			<point x="65" y="239"/>
			<point x="88" y="154"/>
			<point x="133" y="93" type="curve"/>
		</contour>
		<contour>
			<point x="370" y="31" type="curve" smooth="yes"/>
			<point x="295" y="31"/>
			<point x="237" y="56"/>
			<point x="194" y="101" type="curve"/>
			<point x="568" y="565" type="line"/>
			<point x="600" y="512"/>
			<point x="617" y="442"/>
			<point x="617" y="356" type="curve" smooth="yes"/>
			<point x="617" y="156"/>
			<point x="527" y="31"/>
		</contour>
		<contour>
			<point x="168" y="136" type="line"/>
			<point x="133" y="190"/>
			<point x="116" y="263"/>
			<point x="116" y="350" type="curve" smooth="yes"/>
			<point x="116" y="548"/>
			<point x="203" y="669"/>
			<point x="363" y="669" type="curve" smooth="yes"/>
			<point x="439" y="669"/>
			<point x="499" y="645"/>
			<point x="541" y="600" type="curve"/>
		</contour>
	</outline>
	<anchor name="bottom" x="368" y="-30"/>
	<anchor name="top" x="365" y="730"/>
</glyph>
<glyph name="Thorn" format="2">
	<unicode hex="00DE"/>
	<advance width="570"/>
	<outline>
		<contour>
			<point x="67" y="0" type="line"/>
			<point x="327" y="0" type="line"/>
			<point x="327" y="26" type="line"/>
			<point x="241" y="35" type="line" smooth="yes"/>
			<point x="213" y="38"/>
			<point x="205" y="52"/>
			<point x="205" y="82" type="curve" smooth="yes"/>
			<point x="205" y="161" type="line"/>
			<point x="224" y="159"/>
			<point x="246" y="157"/>
			<point x="287" y="157" type="curve" smooth="yes"/>
			<point x="472" y="157"/>
			<point x="535" y="238"/>
			<point x="535" y="364" type="curve" smooth="yes"/>
			<point x="535" y="494"/>
			<point x="448" y="554"/>
			<point x="287" y="554" type="curve" smooth="yes"/>
			<point x="205" y="554" type="line"/>
			<point x="205" y="618" type="line" smooth="yes"/>
			<point x="205" y="648"/>
			<point x="213" y="662"/>
			<point x="241" y="665" type="curve" smooth="yes"/>
			<point x="327" y="674" type="line"/>
			<point x="327" y="700" type="line"/>
			<point x="67" y="700" type="line"/>
			<point x="67" y="674" type="line"/>
			<point x="125" y="665" type="line" smooth="yes"/>
			<point x="149" y="661"/>
			<point x="156" y="652"/>
			<point x="156" y="614" type="curve" smooth="yes"/>
			<point x="156" y="86" type="line" smooth="yes"/>
			<point x="156" y="48"/>
			<point x="149" y="39"/>
			<point x="125" y="35" type="curve" smooth="yes"/>
			<point x="67" y="26" type="line"/>
		</contour>
		<contour>
			<point x="205" y="201" type="curve"/>
			<point x="205" y="514" type="line"/>
			<point x="281" y="514" type="line" smooth="yes"/>
			<point x="407" y="514"/>
			<point x="484" y="477"/>
			<point x="484" y="360" type="curve" smooth="yes"/>
			<point x="484" y="242"/>
			<point x="417" y="198"/>
			<point x="288" y="198" type="curve" smooth="yes"/>
			<point x="249" y="198"/>
			<point x="225" y="199"/>
		</contour>
	</outline>
</glyph>
<glyph name="germandbls" format="2">
	<unicode hex="00DF"/>
	<advance width="629"/>
	<outline>
		<contour>
			<point x="267" y="-14" type="line"/>
			<point x="294" y="-14" type="line"/>
			<point x="302" y="31" type="line"/>
			<point x="330" y="9"/>
			<point x="376" y="-14"/>
			<point x="438" y="-14" type="curve" smooth="yes"/>
			<point x="551" y="-14"/>
			<point x="594" y="71"/>
			<point x="594" y="135" type="curve" smooth="yes"/>
			<point x="594" y="310"/>
			<point x="364" y="263"/>
			<point x="364" y="399" type="curve" smooth="yes"/>
			<point x="364" y="492"/>
			<point x="494" y="541"/>
			<point x="494" y="652" type="curve" smooth="yes"/>
			<point x="494" y="754"/>
			<point x="409" y="782"/>
			<point x="327" y="782" type="curve" smooth="yes"/>
			<point x="197" y="782"/>
			<point x="126" y="690"/>
			<point x="126" y="573" type="curve" smooth="yes"/>
			<point x="126" y="503" type="line"/>
			<point x="50" y="492" type="line"/>
			<point x="50" y="461" type="line"/>
			<point x="126" y="461" type="line"/>
			<point x="126" y="83" type="line" smooth="yes"/>
			<point x="126" y="48"/>
			<point x="121" y="36"/>
			<point x="95" y="32" type="curve" smooth="yes"/>
			<point x="50" y="25" type="line"/>
			<point x="50" y="0" type="line"/>
			<point x="175" y="0" type="line"/>
			<point x="175" y="573" type="line" smooth="yes"/>
			<point x="175" y="700"/>
			<point x="248" y="741"/>
			<point x="325" y="741" type="curve" smooth="yes"/>
			<point x="376" y="741"/>
			<point x="444" y="726"/>
			<point x="444" y="648" type="curve" smooth="yes"/>
			<point x="444" y="547"/>
			<point x="315" y="499"/>
			<point x="315" y="390" type="curve" smooth="yes"/>
			<point x="315" y="230"/>
			<point x="543" y="279"/>
			<point x="543" y="133" type="curve" smooth="yes"/>
			<point x="543" y="70"/>
			<point x="506" y="27"/>
			<point x="438" y="27" type="curve" smooth="yes"/>
			<point x="392" y="27"/>
			<point x="315" y="37"/>
			<point x="283" y="152" type="curve"/>
			<point x="255" y="150" type="line"/>
		</contour>
	</outline>
</glyph>
<glyph name="ae" format="2">
	<unicode hex="00E6"/>
	<advance width="779"/>
	<outline>
		<contour>
			<point x="202" y="-14" type="curve" smooth="yes"/>
			<point x="268" y="-14"/>
			<point x="347" y="12"/>
			<point x="385" y="100" type="curve"/>
			<point x="420" y="26"/>
			<point x="484" y="-14"/>
			<point x="569" y="-14" type="curve" smooth="yes"/>
			<point x="632" y="-14"/>
			<point x="692" y="11"/>
			<point x="738" y="62" type="curve"/>
			<point x="717" y="85" type="line"/>
			<point x="676" y="50"/>
			<point x="627" y="31"/>
			<point x="577" y="31" type="curve" smooth="yes"/>
			<point x="465" y="31"/>
			<point x="406" y="108"/>
			<point x="406" y="254" type="curve"/>
			<point x="728" y="254" type="line"/>
			<point x="732" y="286"/>
			<point x="733" y="316"/>
			<point x="733" y="344" type="curve" smooth="yes"/>
			<point x="733" y="446"/>
			<point x="676" y="517"/>
			<point x="560" y="517" type="curve" smooth="yes"/>
			<point x="487" y="517"/>
			<point x="432" y="481"/>
			<point x="396" y="416" type="curve"/>
			<point x="379" y="482"/>
			<point x="333" y="517"/>
			<point x="242" y="517" type="curve" smooth="yes"/>
			<point x="160" y="517"/>
			<point x="68" y="468"/>
			<point x="68" y="394" type="curve" smooth="yes"/>
			<point x="68" y="365"/>
			<point x="86" y="348"/>
			<point x="110" y="348" type="curve" smooth="yes"/>
			<point x="134" y="348"/>
			<point x="154" y="363"/>
			<point x="154" y="384" type="curve" smooth="yes"/>
			<point x="154" y="395"/>
			<point x="149" y="407"/>
			<point x="127" y="441" type="curve"/>
			<point x="148" y="463"/>
			<point x="191" y="478"/>
			<point x="236" y="478" type="curve" smooth="yes"/>
			<point x="310" y="478"/>
			<point x="357" y="445"/>
			<point x="357" y="360" type="curve" smooth="yes"/>
			<point x="357" y="280" type="line"/>
			<point x="304" y="278"/>
			<point x="260" y="274"/>
			<point x="223" y="268" type="curve" smooth="yes"/>
			<point x="102" y="248"/>
			<point x="60" y="204"/>
			<point x="60" y="117" type="curve" smooth="yes"/>
			<point x="60" y="31"/>
			<point x="116" y="-14"/>
		</contour>
		<contour>
			<point x="214" y="29" type="curve" smooth="yes"/>
			<point x="150" y="29"/>
			<point x="110" y="55"/>
			<point x="110" y="126" type="curve" smooth="yes"/>
			<point x="110" y="183"/>
			<point x="144" y="216"/>
			<point x="229" y="231" type="curve" smooth="yes"/>
			<point x="263" y="237"/>
			<point x="305" y="240"/>
			<point x="357" y="241" type="curve"/>
			<point x="357" y="151" type="line" smooth="yes"/>
			<point x="357" y="77"/>
			<point x="285" y="29"/>
		</contour>
		<contour>
			<point x="406" y="293" type="line"/>
			<point x="416" y="413"/>
			<point x="470" y="478"/>
			<point x="562" y="478" type="curve" smooth="yes"/>
			<point x="645" y="478"/>
			<point x="686" y="424"/>
			<point x="686" y="352" type="curve" smooth="yes"/>
			<point x="686" y="329"/>
			<point x="686" y="314"/>
			<point x="684" y="293" type="curve"/>
		</contour>
	</outline>
	<anchor name="bottom" x="384" y="-30"/>
	<anchor name="top" x="399" y="550"/>
</glyph>
<glyph name="ccedilla" format="2">
	<unicode hex="00E7"/>
	<advance width="475"/>
	<outline>
		<contour>
			<point x="257" y="-229" type="curve" smooth="yes"/>
			<point x="322" y="-229"/>
			<point x="353" y="-189"/>
			<point x="353" y="-138" type="curve" smooth="yes"/>
			<point x="353" y="-85"/>
			<point x="309" y="-58"/>
			<point x="248" y="-62" type="curve"/>
			<point x="267" y="-14" type="line"/>
			<point x="323" y="-13"/>
			<point x="383" y="7"/>
			<point x="433" y="62" type="curve"/>
			<point x="411" y="87" type="line"/>
			<point x="370" y="52"/>
			<point x="322" y="30"/>
			<point x="269" y="30" type="curve" smooth="yes"/>
			<point x="170" y="30"/>
			<point x="99" y="96"/>
			<point x="99" y="256" type="curve" smooth="yes"/>
			<point x="99" y="409"/>
			<point x="171" y="475"/>
			<point x="263" y="475" type="curve" smooth="yes"/>
			<point x="308" y="475"/>
			<point x="346" y="462"/>
			<point x="369" y="440" type="curve"/>
			<point x="349" y="410"/>
			<point x="340" y="395"/>
			<point x="340" y="379" type="curve" smooth="yes"/>
			<point x="340" y="361"/>
			<point x="351" y="343"/>
			<point x="381" y="343" type="curve" smooth="yes"/>
			<point x="407" y="343"/>
			<point x="432" y="360"/>
			<point x="432" y="404" type="curve" smooth="yes"/>
			<point x="432" y="471"/>
			<point x="360" y="517"/>
			<point x="263" y="517" type="curve" smooth="yes"/>
			<point x="136" y="517"/>
			<point x="50" y="424"/>
			<point x="50" y="249" type="curve" smooth="yes"/>
			<point x="50" y="95"/>
			<point x="117" y="3"/>
			<point x="229" y="-12" type="curve"/>
			<point x="203" y="-80" type="line"/>
			<point x="211" y="-97" type="line"/>
			<point x="220" y="-95"/>
			<point x="231" y="-93"/>
			<point x="245" y="-93" type="curve" smooth="yes"/>
			<point x="274" y="-93"/>
			<point x="306" y="-102"/>
			<point x="306" y="-140" type="curve" smooth="yes"/>
			<point x="306" y="-176"/>
			<point x="282" y="-189"/>
			<point x="250" y="-189" type="curve" smooth="yes"/>
			<point x="223" y="-189"/>
			<point x="189" y="-174"/>
			<point x="170" y="-160" type="curve"/>
			<point x="152" y="-189" type="line"/>
			<point x="163" y="-201"/>
			<point x="200" y="-229"/>
		</contour>
	</outline>
	<anchor name="bottom" x="261" y="-30"/>
	<anchor name="top" x="263" y="550"/>
</glyph>
<glyph name="eth" format="2">
	<unicode hex="00F0"/>
	<advance width="557"/>
	<outline>
		<contour>
			<point x="268" y="-14" type="curve" smooth="yes"/>
			<point x="422" y="-14"/>
			<point x="500" y="100"/>
			<point x="500" y="327" type="curve" smooth="yes"/>
			<point x="500" y="479"/>
			<point x="468" y="597"/>
			<point x="389" y="673" type="curve"/>
			<point x="468" y="737" type="line"/>
			<point x="448" y="770" type="line"/>
			<point x="360" y="698" type="line"/>
			<point x="310" y="734"/>
			<point x="246" y="758"/>
			<point x="164" y="766" type="curve"/>
			<point x="156" y="734" type="line"/>
			<point x="227" y="725"/>
			<point x="284" y="704"/>
			<point x="329" y="672" type="curve"/>
			<point x="244" y="608" type="line"/>
			<point x="263" y="575" type="line"/>
			<point x="357" y="649" type="line"/>
			<point x="415" y="593"/>
			<point x="447" y="492"/>
			<point x="451" y="394" type="curve"/>
			<point x="448" y="394" type="line"/>
			<point x="423" y="454"/>
			<point x="364" y="496"/>
			<point x="273" y="496" type="curve" smooth="yes"/>
			<point x="170" y="496"/>
			<point x="50" y="420"/>
			<point x="50" y="242" type="curve" smooth="yes"/>
			<point x="50" y="83"/>
			<point x="136" y="-14"/>
		</contour>
		<contour>
			<point x="283" y="27" type="curve" smooth="yes"/>
			<point x="180" y="27"/>
			<point x="101" y="99"/>
			<point x="101" y="236" type="curve" smooth="yes"/>
			<point x="101" y="382"/>
			<point x="174" y="455"/>
			<point x="281" y="455" type="curve" smooth="yes"/>
			<point x="356" y="455"/>
			<point x="409" y="404"/>
			<point x="428" y="353" type="curve" smooth="yes"/>
			<point x="447" y="303"/>
			<point x="446" y="264"/>
			<point x="446" y="239" type="curve" smooth="yes"/>
			<point x="446" y="122"/>
			<point x="385" y="27"/>
		</contour>
	</outline>
</glyph>
<glyph name="divide" format="2">
	<unicode hex="00F7"/>
	<advance width="582"/>
	<outline>
		<contour>
			<point x="67" y="286" type="line"/>
			<point x="495" y="286" type="line"/>
			<point x="495" y="326" type="line"/>
			<point x="67" y="326" type="line"/>
		</contour>
		<contour>
			<point x="280" y="105" type="curve" smooth="yes"/>
			<point x="311" y="105"/>
			<point x="337" y="128"/>
			<point x="337" y="158" type="curve" smooth="yes"/>
			<point x="337" y="189"/>
			<point x="311" y="211"/>
			<point x="280" y="211" type="curve" smooth="yes"/>
			<point x="250" y="211"/>
			<point x="224" y="188"/>
			<point x="224" y="157" type="curve" smooth="yes"/>
			<point x="224" y="127"/>
			<point x="250" y="105"/>
		</contour>
		<contour>
			<point x="280" y="398" type="curve" smooth="yes"/>
			<point x="311" y="398"/>
			<point x="337" y="421"/>
			<point x="337" y="452" type="curve" smooth="yes"/>
			<point x="337" y="482"/>
			<point x="311" y="504"/>
			<point x="280" y="504" type="curve" smooth="yes"/>
			<point x="250" y="504"/>
			<point x="224" y="481"/>
			<point x="224" y="451" type="curve" smooth="yes"/>
			<point x="224" y="420"/>
			<point x="250" y="398"/>
		</contour>
	</outline>
</glyph>
<glyph name="oslash" format="2">
	<unicode hex="00F8"/>
	<advance width="544"/>
	<outline>
		<contour>
			<point x="25" y="-14" type="line"/>
			<point x="76" y="-14" type="line"/>
			<point x="121" y="39" type="line"/>
			<point x="157" y="5"/>
			<point x="206" y="-14"/>
			<point x="269" y="-14" type="curve" smooth="yes"/>
			<point x="416" y="-14"/>
			<point x="494" y="88"/>
			<point x="494" y="261" type="curve" smooth="yes"/>
			<point x="494" y="329"/>
			<point x="479" y="386"/>
			<point x="451" y="430" type="curve"/>
			<point x="525" y="517" type="line"/>
			<point x="474" y="517" type="line"/>
			<point x="426" y="461" type="line"/>
			<point x="391" y="497"/>
			<point x="341" y="517"/>
			<point x="280" y="517" type="curve" smooth="yes"/>
			<point x="132" y="517"/>
			<point x="50" y="414"/>
			<point x="50" y="249" type="curve" smooth="yes"/>
			<point x="50" y="175"/>
			<point x="65" y="114"/>
			<point x="96" y="70" type="curve"/>
		</contour>
		<contour>
			<point x="278" y="27" type="curve" smooth="yes"/>
			<point x="225" y="27"/>
			<point x="183" y="44"/>
			<point x="153" y="77" type="curve"/>
			<point x="417" y="390" type="line"/>
			<point x="434" y="354"/>
			<point x="443" y="307"/>
			<point x="443" y="249" type="curve" smooth="yes"/>
			<point x="443" y="104"/>
			<point x="383" y="27"/>
		</contour>
		<contour>
			<point x="130" y="110" type="line"/>
			<point x="111" y="147"/>
			<point x="101" y="196"/>
			<point x="101" y="257" type="curve" smooth="yes"/>
			<point x="101" y="405"/>
			<point x="163" y="476"/>
			<point x="272" y="476" type="curve" smooth="yes"/>
			<point x="326" y="476"/>
			<point x="367" y="459"/>
			<point x="396" y="424" type="curve"/>
		</contour>
	</outline>
	<anchor name="bottom" x="272" y="-30"/>
	<anchor name="top" x="273" y="550"/>
</glyph>
<glyph name="thorn" format="2">
	<unicode hex="00FE"/>
	<advance width="580"/>
	<outline>
		<contour>
			<point x="38" y="-216" type="line"/>
			<point x="254" y="-216" type="line"/>
			<point x="254" y="-191" type="line"/>
			<point x="193" y="-183" type="line" smooth="yes"/>
			<point x="165" y="-179"/>
			<point x="161" y="-170"/>
			<point x="161" y="-136" type="curve" smooth="yes"/>
			<point x="161" y="22" type="line"/>
			<point x="196" y="2"/>
			<point x="250" y="-14"/>
			<point x="298" y="-14" type="curve" smooth="yes"/>
			<point x="434" y="-14"/>
			<point x="525" y="86"/>
			<point x="525" y="261" type="curve" smooth="yes"/>
			<point x="525" y="434"/>
			<point x="448" y="517"/>
			<point x="327" y="517" type="curve" smooth="yes"/>
			<point x="263" y="517"/>
			<point x="204" y="495"/>
			<point x="162" y="429" type="curve"/>
			<point x="161" y="429" type="line"/>
			<point x="161" y="755" type="line"/>
			<point x="150" y="766" type="line"/>
			<point x="28" y="761" type="line"/>
			<point x="25" y="732" type="line"/>
			<point x="64" y="726" type="line" smooth="yes"/>
			<point x="105" y="720"/>
			<point x="112" y="714"/>
			<point x="112" y="661" type="curve" smooth="yes"/>
			<point x="112" y="-136" type="line" smooth="yes"/>
			<point x="112" y="-167"/>
			<point x="107" y="-179"/>
			<point x="86" y="-183" type="curve" smooth="yes"/>
			<point x="38" y="-191" type="line"/>
		</contour>
		<contour>
			<point x="297" y="27" type="curve" smooth="yes"/>
			<point x="249" y="27"/>
			<point x="195" y="45"/>
			<point x="161" y="70" type="curve"/>
			<point x="161" y="320" type="line" smooth="yes"/>
			<point x="161" y="414"/>
			<point x="230" y="474"/>
			<point x="318" y="474" type="curve" smooth="yes"/>
			<point x="404" y="474"/>
			<point x="474" y="431"/>
			<point x="474" y="260" type="curve" smooth="yes"/>
			<point x="474" y="100"/>
			<point x="397" y="27"/>
		</contour>
	</outline>
</glyph>
<glyph name="Aogonek" format="2">
	<unicode hex="0104"/>
	<advance width="657"/>
	<outline>
		<contour>
			<point x="537" y="-220" type="curve" smooth="yes"/>
			<point x="565" y="-220"/>
			<point x="596" y="-207"/>
			<point x="619" y="-190" type="curve"/>
			<point x="608" y="-165" type="line"/>
			<point x="586" y="-175"/>
			<point x="565" y="-181"/>
			<point x="547" y="-181" type="curve" smooth="yes"/>
			<point x="522" y="-181"/>
			<point x="506" y="-168"/>
			<point x="506" y="-138" type="curve" smooth="yes"/>
			<point x="506" y="-97"/>
			<point x="542" y="-49"/>
			<point x="595" y="0" type="curve"/>
			<point x="647" y="0" type="line"/>
			<point x="647" y="29" type="line"/>
			<point x="610" y="35" type="line" smooth="yes"/>
			<point x="581" y="40"/>
			<point x="577" y="51"/>
			<point x="565" y="85" type="curve" smooth="yes"/>
			<point x="354" y="700" type="line"/>
			<point x="315" y="700" type="line"/>
			<point x="99" y="88" type="line" smooth="yes"/>
			<point x="84" y="45"/>
			<point x="76" y="40"/>
			<point x="52" y="35" type="curve" smooth="yes"/>
			<point x="10" y="27" type="line"/>
			<point x="10" y="0" type="line"/>
			<point x="227" y="0" type="line"/>
			<point x="227" y="27" type="line"/>
			<point x="170" y="34" type="line" smooth="yes"/>
			<point x="140" y="38"/>
			<point x="135" y="54"/>
			<point x="147" y="88" type="curve" smooth="yes"/>
			<point x="198" y="235" type="line"/>
			<point x="464" y="235" type="line"/>
			<point x="515" y="84" type="line" smooth="yes"/>
			<point x="527" y="49"/>
			<point x="522" y="39"/>
			<point x="496" y="35" type="curve" smooth="yes"/>
			<point x="438" y="27" type="line"/>
			<point x="438" y="0" type="line"/>
			<point x="561" y="0" type="line"/>
			<point x="501" y="-48"/>
			<point x="463" y="-100"/>
			<point x="463" y="-147" type="curve" smooth="yes"/>
			<point x="463" y="-192"/>
			<point x="495" y="-220"/>
		</contour>
		<contour>
			<point x="211" y="274" type="line"/>
			<point x="331" y="630" type="line"/>
			<point x="333" y="630" type="line"/>
			<point x="451" y="274" type="line"/>
		</contour>
	</outline>
	<anchor name="bottom" x="331" y="-30"/>
	<anchor name="top" x="333" y="730"/>
</glyph>
<glyph name="aogonek" format="2">
	<unicode hex="0105"/>
	<advance width="516"/>
	<outline>
		<contour>
			<point x="430" y="-220" type="curve" smooth="yes"/>
			<point x="458" y="-220"/>
			<point x="489" y="-207"/>
			<point x="512" y="-190" type="curve"/>
			<point x="501" y="-165" type="line"/>
			<point x="479" y="-175"/>
			<point x="458" y="-181"/>
			<point x="440" y="-181" type="curve" smooth="yes"/>
			<point x="415" y="-181"/>
			<point x="399" y="-168"/>
			<point x="399" y="-138" type="curve" smooth="yes"/>
			<point x="399" y="-79"/>
			<point x="485" y="-8"/>
			<point x="521" y="15" type="curve"/>
			<point x="510" y="39" type="line"/>
			<point x="492" y="31"/>
			<point x="473" y="26"/>
			<point x="457" y="26" type="curve" smooth="yes"/>
			<point x="423" y="26"/>
			<point x="406" y="47"/>
			<point x="406" y="90" type="curve" smooth="yes"/>
			<point x="406" y="349" type="line" smooth="yes"/>
			<point x="406" y="452"/>
			<point x="366" y="517"/>
			<point x="242" y="517" type="curve" smooth="yes"/>
			<point x="160" y="517"/>
			<point x="68" y="468"/>
			<point x="68" y="394" type="curve" smooth="yes"/>
			<point x="68" y="365"/>
			<point x="86" y="348"/>
			<point x="110" y="348" type="curve" smooth="yes"/>
			<point x="134" y="348"/>
			<point x="154" y="363"/>
			<point x="154" y="384" type="curve" smooth="yes"/>
			<point x="154" y="395"/>
			<point x="149" y="407"/>
			<point x="127" y="441" type="curve"/>
			<point x="148" y="463"/>
			<point x="191" y="478"/>
			<point x="236" y="478" type="curve" smooth="yes"/>
			<point x="310" y="478"/>
			<point x="357" y="445"/>
			<point x="357" y="360" type="curve" smooth="yes"/>
			<point x="357" y="280" type="line"/>
			<point x="131" y="271"/>
			<point x="60" y="230"/>
			<point x="60" y="117" type="curve" smooth="yes"/>
			<point x="60" y="31"/>
			<point x="116" y="-14"/>
			<point x="202" y="-14" type="curve" smooth="yes"/>
			<point x="269" y="-14"/>
			<point x="325" y="15"/>
			<point x="362" y="75" type="curve"/>
			<point x="366" y="15"/>
			<point x="393" y="-14"/>
			<point x="445" y="-14" type="curve"/>
			<point x="387" y="-58"/>
			<point x="356" y="-104"/>
			<point x="356" y="-147" type="curve" smooth="yes"/>
			<point x="356" y="-192"/>
			<point x="388" y="-220"/>
		</contour>
		<contour>
			<point x="214" y="29" type="curve" smooth="yes"/>
			<point x="150" y="29"/>
			<point x="110" y="55"/>
			<point x="110" y="126" type="curve" smooth="yes"/>
			<point x="110" y="206"/>
			<point x="177" y="238"/>
			<point x="357" y="241" type="curve"/>
			<point x="357" y="151" type="line" smooth="yes"/>
			<point x="357" y="77"/>
			<point x="285" y="29"/>
		</contour>
	</outline>
	<anchor name="bottom" x="253" y="-30"/>
	<anchor name="top" x="242" y="550"/>
</glyph>
<glyph name="Eogonek" format="2">
	<unicode hex="0118"/>
	<advance width="607"/>
	<outline>
		<contour>
			<point x="449" y="-220" type="curve" smooth="yes"/>
			<point x="477" y="-220"/>
			<point x="508" y="-207"/>
			<point x="531" y="-190" type="curve"/>
			<point x="520" y="-165" type="line"/>
			<point x="498" y="-175"/>
			<point x="477" y="-181"/>
			<point x="459" y="-181" type="curve" smooth="yes"/>
			<point x="434" y="-181"/>
			<point x="418" y="-168"/>
			<point x="418" y="-138" type="curve" smooth="yes"/>
			<point x="418" y="-96"/>
			<point x="456" y="-46"/>
			<point x="529" y="0" type="curve"/>
			<point x="552" y="170" type="line"/>
			<point x="522" y="170" type="line"/>
			<point x="502" y="67"/>
			<point x="481" y="39"/>
			<point x="389" y="39" type="curve" smooth="yes"/>
			<point x="205" y="39" type="line"/>
			<point x="205" y="337" type="line"/>
			<point x="332" y="337" type="line" smooth="yes"/>
			<point x="410" y="337"/>
			<point x="422" y="330"/>
			<point x="433" y="254" type="curve"/>
			<point x="461" y="258" type="line"/>
			<point x="461" y="460" type="line"/>
			<point x="433" y="457" type="line"/>
			<point x="420" y="382"/>
			<point x="410" y="376"/>
			<point x="347" y="376" type="curve" smooth="yes"/>
			<point x="205" y="376" type="line"/>
			<point x="205" y="661" type="line"/>
			<point x="347" y="661" type="line" smooth="yes"/>
			<point x="442" y="661"/>
			<point x="464" y="656"/>
			<point x="501" y="537" type="curve"/>
			<point x="531" y="546" type="line"/>
			<point x="495" y="700" type="line"/>
			<point x="67" y="700" type="line"/>
			<point x="67" y="672" type="line"/>
			<point x="122" y="663" type="line" smooth="yes"/>
			<point x="153" y="658"/>
			<point x="156" y="647"/>
			<point x="156" y="615" type="curve" smooth="yes"/>
			<point x="156" y="86" type="line" smooth="yes"/>
			<point x="156" y="49"/>
			<point x="150" y="39"/>
			<point x="125" y="35" type="curve" smooth="yes"/>
			<point x="67" y="26" type="line"/>
			<point x="67" y="0" type="line"/>
			<point x="495" y="0" type="line"/>
			<point x="416" y="-45"/>
			<point x="375" y="-98"/>
			<point x="375" y="-147" type="curve" smooth="yes"/>
			<point x="375" y="-192"/>
			<point x="407" y="-220"/>
		</contour>
	</outline>
	<anchor name="bottom" x="323" y="-30"/>
	<anchor name="top" x="314" y="730"/>
</glyph>
<glyph name="eogonek" format="2">
	<unicode hex="0119"/>
	<advance width="472"/>
	<outline>
		<contour>
			<point x="282" y="-220" type="curve" smooth="yes"/>
			<point x="310" y="-220"/>
			<point x="341" y="-207"/>
			<point x="364" y="-190" type="curve"/>
			<point x="353" y="-165" type="line"/>
			<point x="331" y="-175"/>
			<point x="310" y="-181"/>
			<point x="292" y="-181" type="curve" smooth="yes"/>
			<point x="267" y="-181"/>
			<point x="251" y="-168"/>
			<point x="251" y="-138" type="curve" smooth="yes"/>
			<point x="251" y="-97"/>
			<point x="287" y="-46"/>
			<point x="364" y="10" type="curve"/>
			<point x="388" y="22"/>
			<point x="411" y="40"/>
			<point x="431" y="62" type="curve"/>
			<point x="410" y="85" type="line"/>
			<point x="369" y="50"/>
			<point x="321" y="31"/>
			<point x="271" y="31" type="curve" smooth="yes"/>
			<point x="170" y="31"/>
			<point x="100" y="93"/>
			<point x="99" y="254" type="curve"/>
			<point x="422" y="254" type="line"/>
			<point x="426" y="286"/>
			<point x="427" y="316"/>
			<point x="427" y="344" type="curve" smooth="yes"/>
			<point x="427" y="446"/>
			<point x="369" y="517"/>
			<point x="255" y="517" type="curve" smooth="yes"/>
			<point x="123" y="517"/>
			<point x="50" y="407"/>
			<point x="50" y="254" type="curve" smooth="yes"/>
			<point x="50" y="83"/>
			<point x="130" y="-14"/>
			<point x="263" y="-14" type="curve" smooth="yes"/>
			<point x="276" y="-14"/>
			<point x="289" y="-13"/>
			<point x="301" y="-11" type="curve"/>
			<point x="241" y="-56"/>
			<point x="208" y="-103"/>
			<point x="208" y="-147" type="curve" smooth="yes"/>
			<point x="208" y="-192"/>
			<point x="240" y="-220"/>
		</contour>
		<contour>
			<point x="100" y="293" type="line"/>
			<point x="110" y="413"/>
			<point x="163" y="478"/>
			<point x="257" y="478" type="curve" smooth="yes"/>
			<point x="338" y="478"/>
			<point x="380" y="424"/>
			<point x="380" y="352" type="curve" smooth="yes"/>
			<point x="380" y="329"/>
			<point x="380" y="314"/>
			<point x="378" y="293" type="curve"/>
		</contour>
	</outline>
	<anchor name="bottom" x="260" y="-30"/>
	<anchor name="top" x="257" y="550"/>
</glyph>
<glyph name="gcircumflex" format="2">
	<unicode hex="011D"/>
	<advance width="500"/>
	<outline>
		<contour>
			<point x="112" y="584" type="line"/>
			<point x="233" y="699" type="line"/>
			<point x="352" y="584" type="line"/>
			<point x="371" y="602" type="line"/>
			<point x="273" y="727" type="line" smooth="yes"/>
			<point x="258" y="746"/>
			<point x="248" y="752"/>
			<point x="234" y="752" type="curve" smooth="yes"/>
			<point x="220" y="752"/>
			<point x="206" y="744"/>
			<point x="195" y="730" type="curve" smooth="yes"/>
			<point x="93" y="602" type="line"/>
		</contour>
		<component base="g"/>
	</outline>
</glyph>
<glyph name="Iogonek" format="2">
	<unicode hex="012E"/>
	<advance width="360"/>
	<outline>
		<contour>
			<point x="171" y="-220" type="curve" smooth="yes"/>
			<point x="199" y="-220"/>
			<point x="230" y="-207"/>
			<point x="253" y="-190" type="curve"/>
			<point x="242" y="-165" type="line"/>
			<point x="220" y="-175"/>
			<point x="199" y="-181"/>
			<point x="181" y="-181" type="curve" smooth="yes"/>
			<point x="156" y="-181"/>
			<point x="140" y="-168"/>
			<point x="140" y="-138" type="curve" smooth="yes"/>
			<point x="140" y="-97"/>
			<point x="176" y="-49"/>
			<point x="229" y="0" type="curve"/>
			<point x="293" y="0" type="line"/>
			<point x="293" y="26" type="line"/>
			<point x="237" y="35" type="line" smooth="yes"/>
			<point x="211" y="39"/>
			<point x="205" y="49"/>
			<point x="205" y="82" type="curve" smooth="yes"/>
			<point x="205" y="612" type="line" smooth="yes"/>
			<point x="205" y="648"/>
			<point x="211" y="659"/>
			<point x="235" y="663" type="curve" smooth="yes"/>
			<point x="293" y="672" type="line"/>
			<point x="293" y="700" type="line"/>
			<point x="67" y="700" type="line"/>
			<point x="67" y="672" type="line"/>
			<point x="123" y="663" type="line" smooth="yes"/>
			<point x="150" y="659"/>
			<point x="156" y="649"/>
			<point x="156" y="616" type="curve" smooth="yes"/>
			<point x="156" y="86" type="line" smooth="yes"/>
			<point x="156" y="49"/>
			<point x="150" y="39"/>
			<point x="125" y="35" type="curve" smooth="yes"/>
			<point x="67" y="26" type="line"/>
			<point x="67" y="0" type="line"/>
			<point x="195" y="0" type="line"/>
			<point x="135" y="-48"/>
			<point x="97" y="-100"/>
			<point x="97" y="-147" type="curve" smooth="yes"/>
			<point x="97" y="-192"/>
			<point x="129" y="-220"/>
		</contour>
	</outline>
	<anchor name="bottom" x="177" y="-31"/>
	<anchor name="top" x="181" y="722"/>
</glyph>
<glyph name="iogonek" format="2">
	<unicode hex="012F"/>
	<advance width="298"/>
	<outline>
		<contour>
			<point x="152" y="-220" type="curve" smooth="yes"/>
			<point x="180" y="-220"/>
			<point x="211" y="-207"/>
			<point x="234" y="-190" type="curve"/>
			<point x="223" y="-165" type="line"/>
			<point x="201" y="-175"/>
			<point x="180" y="-181"/>
			<point x="162" y="-181" type="curve" smooth="yes"/>
			<point x="137" y="-181"/>
			<point x="121" y="-168"/>
			<point x="121" y="-138" type="curve" smooth="yes"/>
			<point x="121" y="-97"/>
			<point x="157" y="-49"/>
			<point x="210" y="0" type="curve"/>
			<point x="258" y="0" type="line"/>
			<point x="258" y="25" type="line"/>
			<point x="209" y="34" type="line" smooth="yes"/>
			<point x="189" y="38"/>
			<point x="184" y="47"/>
			<point x="184" y="78" type="curve" smooth="yes"/>
			<point x="184" y="503" type="line"/>
			<point x="173" y="509" type="line"/>
			<point x="53" y="497" type="line"/>
			<point x="50" y="469" type="line"/>
			<point x="101" y="462" type="line" smooth="yes"/>
			<point x="130" y="458"/>
			<point x="135" y="448"/>
			<point x="135" y="400" type="curve" smooth="yes"/>
			<point x="135" y="82" type="line" smooth="yes"/>
			<point x="135" y="44"/>
			<point x="128" y="36"/>
			<point x="109" y="33" type="curve" smooth="yes"/>
			<point x="61" y="25" type="line"/>
			<point x="61" y="0" type="line"/>
			<point x="176" y="0" type="line"/>
			<point x="116" y="-48"/>
			<point x="78" y="-100"/>
			<point x="78" y="-147" type="curve" smooth="yes"/>
			<point x="78" y="-192"/>
			<point x="110" y="-220"/>
		</contour>
		<contour>
			<point x="143" y="633" type="curve" smooth="yes"/>
			<point x="172" y="633"/>
			<point x="186" y="657"/>
			<point x="186" y="683" type="curve" smooth="yes"/>
			<point x="186" y="711"/>
			<point x="173" y="727"/>
			<point x="144" y="727" type="curve" smooth="yes"/>
			<point x="115" y="727"/>
			<point x="101" y="706"/>
			<point x="101" y="678" type="curve" smooth="yes"/>
			<point x="101" y="652"/>
			<point x="114" y="633"/>
		</contour>
	</outline>
	<anchor name="bottom" x="162" y="-30"/>
</glyph>
<glyph name="idotless" format="2">
	<unicode hex="0131"/>
	<advance width="298"/>
	<outline>
		<contour>
			<point x="61" y="0" type="line"/>
			<point x="258" y="0" type="line"/>
			<point x="258" y="25" type="line"/>
			<point x="209" y="34" type="line" smooth="yes"/>
			<point x="189" y="38"/>
			<point x="184" y="47"/>
			<point x="184" y="78" type="curve" smooth="yes"/>
			<point x="184" y="503" type="line"/>
			<point x="173" y="509" type="line"/>
			<point x="53" y="497" type="line"/>
			<point x="50" y="469" type="line"/>
			<point x="101" y="462" type="line" smooth="yes"/>
			<point x="130" y="458"/>
			<point x="135" y="448"/>
			<point x="135" y="400" type="curve" smooth="yes"/>
			<point x="135" y="82" type="line" smooth="yes"/>
			<point x="135" y="47"/>
			<point x="130" y="37"/>
			<point x="109" y="33" type="curve" smooth="yes"/>
			<point x="61" y="25" type="line"/>
		</contour>
	</outline>
	<anchor name="bottom" x="159" y="-30"/>
	<anchor name="top" x="132" y="550"/>
</glyph>
<glyph name="kgreenlandic" format="2">
	<unicode hex="0138"/>
	<advance width="575"/>
	<outline>
		<contour>
			<point x="488" y="-8" type="curve" smooth="yes"/>
			<point x="516" y="-8"/>
			<point x="545" y="3"/>
			<point x="570" y="26" type="curve"/>
			<point x="558" y="51" type="line"/>
			<point x="542" y="43"/>
			<point x="516" y="36"/>
			<point x="496" y="36" type="curve" smooth="yes"/>
			<point x="468" y="36"/>
			<point x="437" y="57"/>
			<point x="401" y="104" type="curve" smooth="yes"/>
			<point x="270" y="277" type="line"/>
			<point x="442" y="433" type="line" smooth="yes"/>
			<point x="475" y="463"/>
			<point x="485" y="470"/>
			<point x="521" y="475" type="curve" smooth="yes"/>
			<point x="541" y="478" type="line"/>
			<point x="541" y="503" type="line"/>
			<point x="332" y="503" type="line"/>
			<point x="327" y="476" type="line"/>
			<point x="375" y="471" type="line" smooth="yes"/>
			<point x="405" y="468"/>
			<point x="407" y="452"/>
			<point x="386" y="434" type="curve" smooth="yes"/>
			<point x="210" y="277" type="line"/>
			<point x="210" y="271" type="line"/>
			<point x="375" y="61" type="line" smooth="yes"/>
			<point x="419" y="6"/>
			<point x="453" y="-8"/>
		</contour>
		<contour>
			<point x="61" y="0" type="line"/>
			<point x="258" y="0" type="line"/>
			<point x="258" y="25" type="line"/>
			<point x="209" y="34" type="line" smooth="yes"/>
			<point x="189" y="38"/>
			<point x="184" y="47"/>
			<point x="184" y="78" type="curve" smooth="yes"/>
			<point x="184" y="503" type="line"/>
			<point x="173" y="509" type="line"/>
			<point x="53" y="497" type="line"/>
			<point x="50" y="469" type="line"/>
			<point x="101" y="462" type="line" smooth="yes"/>
			<point x="130" y="458"/>
			<point x="135" y="448"/>
			<point x="135" y="400" type="curve" smooth="yes"/>
			<point x="135" y="82" type="line" smooth="yes"/>
			<point x="135" y="47"/>
			<point x="130" y="37"/>
			<point x="109" y="33" type="curve" smooth="yes"/>
			<point x="61" y="25" type="line"/>
		</contour>
	</outline>
</glyph>
<glyph name="Eng" format="2">
	<unicode hex="014A"/>
	<advance width="798"/>
	<outline>
		<contour>
			<point x="67" y="0" type="line"/>
			<point x="296" y="0" type="line"/>
			<point x="296" y="26" type="line"/>
			<point x="237" y="35" type="line" smooth="yes"/>
			<point x="213" y="39"/>
			<point x="205" y="46"/>
			<point x="205" y="82" type="curve" smooth="yes"/>
			<point x="205" y="619" type="line"/>
			<point x="206" y="619" type="line"/>
			<point x="601" y="8" type="line"/>
			<point x="601" y="7" type="line"/>
			<point x="599" y="-115"/>
			<point x="572" y="-158"/>
			<point x="514" y="-206" type="curve"/>
			<point x="529" y="-229" type="line"/>
			<point x="638" y="-158"/>
			<point x="650" y="-93"/>
			<point x="650" y="93" type="curve" smooth="yes"/>
			<point x="650" y="616" type="line" smooth="yes"/>
			<point x="650" y="652"/>
			<point x="660" y="660"/>
			<point x="684" y="664" type="curve" smooth="yes"/>
			<point x="738" y="672" type="line"/>
			<point x="738" y="700" type="line"/>
			<point x="512" y="700" type="line"/>
			<point x="512" y="672" type="line"/>
			<point x="567" y="663" type="line" smooth="yes"/>
			<point x="596" y="658"/>
			<point x="601" y="649"/>
			<point x="601" y="616" type="curve" smooth="yes"/>
			<point x="601" y="101" type="line"/>
			<point x="600" y="101" type="line"/>
			<point x="210" y="700" type="line"/>
			<point x="67" y="700" type="line"/>
			<point x="67" y="672" type="line"/>
			<point x="123" y="663" type="line" smooth="yes"/>
			<point x="152" y="658"/>
			<point x="156" y="648"/>
			<point x="156" y="617" type="curve" smooth="yes"/>
			<point x="156" y="86" type="line" smooth="yes"/>
			<point x="156" y="50"/>
			<point x="143" y="37"/>
			<point x="121" y="34" type="curve" smooth="yes"/>
			<point x="67" y="26" type="line"/>
		</contour>
	</outline>
	<anchor name="bottom" x="179" y="-30"/>
	<anchor name="top" x="400" y="730"/>
</glyph>
<glyph name="oe" format="2">
	<unicode hex="0153"/>
	<advance width="866"/>
	<outline>
		<contour>
			<point x="269" y="-14" type="curve" smooth="yes"/>
			<point x="367" y="-14"/>
			<point x="434" y="31"/>
			<point x="468" y="112" type="curve"/>
			<point x="502" y="30"/>
			<point x="565" y="-14"/>
			<point x="655" y="-14" type="curve" smooth="yes"/>
			<point x="718" y="-14"/>
			<point x="779" y="11"/>
			<point x="825" y="62" type="curve"/>
			<point x="804" y="85" type="line"/>
			<point x="763" y="50"/>
			<point x="713" y="31"/>
			<point x="663" y="31" type="curve" smooth="yes"/>
			<point x="562" y="31"/>
			<point x="494" y="95"/>
			<point x="493" y="254" type="curve"/>
			<point x="816" y="254" type="line"/>
			<point x="820" y="286"/>
			<point x="821" y="316"/>
			<point x="821" y="344" type="curve" smooth="yes"/>
			<point x="821" y="446"/>
			<point x="764" y="517"/>
			<point x="649" y="517" type="curve" smooth="yes"/>
			<point x="563" y="517"/>
			<point x="502" y="469"/>
			<point x="469" y="392" type="curve"/>
			<point x="438" y="470"/>
			<point x="373" y="517"/>
			<point x="280" y="517" type="curve" smooth="yes"/>
			<point x="132" y="517"/>
			<point x="50" y="414"/>
			<point x="50" y="249" type="curve" smooth="yes"/>
			<point x="50" y="87"/>
			<point x="124" y="-14"/>
		</contour>
		<contour>
			<point x="278" y="27" type="curve" smooth="yes"/>
			<point x="163" y="27"/>
			<point x="101" y="105"/>
			<point x="101" y="257" type="curve" smooth="yes"/>
			<point x="101" y="405"/>
			<point x="163" y="476"/>
			<point x="272" y="476" type="curve" smooth="yes"/>
			<point x="384" y="476"/>
			<point x="443" y="401"/>
			<point x="443" y="249" type="curve" smooth="yes"/>
			<point x="443" y="104"/>
			<point x="383" y="27"/>
		</contour>
		<contour>
			<point x="494" y="293" type="line"/>
			<point x="504" y="413"/>
			<point x="558" y="478"/>
			<point x="651" y="478" type="curve" smooth="yes"/>
			<point x="733" y="478"/>
			<point x="774" y="424"/>
			<point x="774" y="352" type="curve" smooth="yes"/>
			<point x="774" y="329"/>
			<point x="774" y="314"/>
			<point x="772" y="293" type="curve"/>
		</contour>
	</outline>
</glyph>
<glyph name="Scedilla" format="2">
	<unicode hex="015E"/>
	<advance width="545"/>
	<outline>
		<contour>
			<point x="284" y="-229" type="curve" smooth="yes"/>
			<point x="349" y="-229"/>
			<point x="380" y="-189"/>
			<point x="380" y="-138" type="curve" smooth="yes"/>
			<point x="380" y="-85"/>
			<point x="336" y="-58"/>
			<point x="275" y="-62" type="curve"/>
			<point x="294" y="-14" type="line"/>
			<point x="420" y="-14"/>
			<point x="495" y="64"/>
			<point x="495" y="178" type="curve" smooth="yes"/>
			<point x="495" y="261"/>
			<point x="461" y="334"/>
			<point x="296" y="388" type="curve" smooth="yes"/>
			<point x="158" y="433"/>
			<point x="130" y="482"/>
			<point x="130" y="550" type="curve" smooth="yes"/>
			<point x="130" y="627"/>
			<point x="185" y="671"/>
			<point x="267" y="671" type="curve" smooth="yes"/>
			<point x="351" y="671"/>
			<point x="409" y="632"/>
			<point x="449" y="517" type="curve"/>
			<point x="477" y="520" type="line"/>
			<point x="455" y="714" type="line"/>
			<point x="433" y="714" type="line"/>
			<point x="419" y="654" type="line"/>
			<point x="374" y="693"/>
			<point x="324" y="714"/>
			<point x="270" y="714" type="curve" smooth="yes"/>
			<point x="174" y="714"/>
			<point x="79" y="659"/>
			<point x="79" y="544" type="curve" smooth="yes"/>
			<point x="79" y="448"/>
			<point x="122" y="396"/>
			<point x="280" y="343" type="curve" smooth="yes"/>
			<point x="421" y="296"/>
			<point x="445" y="246"/>
			<point x="445" y="180" type="curve" smooth="yes"/>
			<point x="445" y="63"/>
			<point x="367" y="27"/>
			<point x="291" y="27" type="curve" smooth="yes"/>
			<point x="202" y="27"/>
			<point x="119" y="76"/>
			<point x="76" y="224" type="curve"/>
			<point x="52" y="221" type="line"/>
			<point x="75" y="-6" type="line"/>
			<point x="99" y="-6" type="line"/>
			<point x="110" y="66" type="line"/>
			<point x="143" y="29"/>
			<point x="196" y="-2"/>
			<point x="257" y="-11" type="curve"/>
			<point x="230" y="-80" type="line"/>
			<point x="238" y="-97" type="line"/>
			<point x="247" y="-95"/>
			<point x="258" y="-93"/>
			<point x="272" y="-93" type="curve" smooth="yes"/>
			<point x="301" y="-93"/>
			<point x="333" y="-102"/>
			<point x="333" y="-140" type="curve" smooth="yes"/>
			<point x="333" y="-176"/>
			<point x="309" y="-189"/>
			<point x="277" y="-189" type="curve" smooth="yes"/>
			<point x="250" y="-189"/>
			<point x="216" y="-174"/>
			<point x="197" y="-160" type="curve"/>
			<point x="179" y="-189" type="line"/>
			<point x="190" y="-201"/>
			<point x="227" y="-229"/>
		</contour>
	</outline>
	<anchor name="bottom" x="288" y="-30"/>
	<anchor name="top" x="270" y="730"/>
</glyph>
<glyph name="scedilla" format="2">
	<unicode hex="015F"/>
	<advance width="435"/>
	<outline>
		<contour>
			<point x="209" y="-229" type="curve" smooth="yes"/>
			<point x="274" y="-229"/>
			<point x="305" y="-189"/>
			<point x="305" y="-138" type="curve" smooth="yes"/>
			<point x="305" y="-85"/>
			<point x="261" y="-58"/>
			<point x="200" y="-62" type="curve"/>
			<point x="219" y="-14" type="line"/>
			<point x="328" y="-14"/>
			<point x="393" y="46"/>
			<point x="393" y="137" type="curve" smooth="yes"/>
			<point x="393" y="229"/>
			<point x="317" y="260"/>
			<point x="233" y="282" type="curve" smooth="yes"/>
			<point x="165" y="300"/>
			<point x="111" y="316"/>
			<point x="111" y="387" type="curve" smooth="yes"/>
			<point x="111" y="445"/>
			<point x="147" y="476"/>
			<point x="209" y="476" type="curve" smooth="yes"/>
			<point x="274" y="476"/>
			<point x="323" y="442"/>
			<point x="337" y="372" type="curve"/>
			<point x="372" y="370" type="line"/>
			<point x="362" y="517" type="line"/>
			<point x="336" y="517" type="line"/>
			<point x="329" y="473" type="line"/>
			<point x="296" y="501"/>
			<point x="257" y="517"/>
			<point x="209" y="517" type="curve" smooth="yes"/>
			<point x="116" y="517"/>
			<point x="61" y="458"/>
			<point x="61" y="380" type="curve" smooth="yes"/>
			<point x="61" y="289"/>
			<point x="131" y="259"/>
			<point x="202" y="241" type="curve" smooth="yes"/>
			<point x="310" y="214"/>
			<point x="340" y="192"/>
			<point x="340" y="132" type="curve" smooth="yes"/>
			<point x="340" y="72"/>
			<point x="303" y="27"/>
			<point x="226" y="27" type="curve" smooth="yes"/>
			<point x="147" y="27"/>
			<point x="97" y="64"/>
			<point x="73" y="152" type="curve"/>
			<point x="45" y="150" type="line"/>
			<point x="56" y="-14" type="line"/>
			<point x="85" y="-14" type="line"/>
			<point x="92" y="31" type="line"/>
			<point x="119" y="10"/>
			<point x="148" y="-3"/>
			<point x="182" y="-10" type="curve"/>
			<point x="155" y="-80" type="line"/>
			<point x="163" y="-97" type="line"/>
			<point x="172" y="-95"/>
			<point x="183" y="-93"/>
			<point x="197" y="-93" type="curve" smooth="yes"/>
			<point x="226" y="-93"/>
			<point x="258" y="-102"/>
			<point x="258" y="-140" type="curve" smooth="yes"/>
			<point x="258" y="-176"/>
			<point x="234" y="-189"/>
			<point x="202" y="-189" type="curve" smooth="yes"/>
			<point x="175" y="-189"/>
			<point x="141" y="-174"/>
			<point x="122" y="-160" type="curve"/>
			<point x="104" y="-189" type="line"/>
			<point x="115" y="-201"/>
			<point x="152" y="-229"/>
		</contour>
	</outline>
	<anchor name="bottom" x="213" y="-30"/>
	<anchor name="top" x="212" y="550"/>
</glyph>
<glyph name="Tcedilla" format="2">
	<unicode hex="0162"/>
	<advance width="658"/>
	<outline>
		<contour>
			<point x="324" y="-229" type="curve" smooth="yes"/>
			<point x="389" y="-229"/>
			<point x="420" y="-189"/>
			<point x="420" y="-138" type="curve" smooth="yes"/>
			<point x="420" y="-85"/>
			<point x="376" y="-58"/>
			<point x="315" y="-62" type="curve"/>
			<point x="339" y="0" type="line"/>
			<point x="466" y="0" type="line"/>
			<point x="466" y="25" type="line"/>
			<point x="386" y="38" type="line" smooth="yes"/>
			<point x="358" y="43"/>
			<point x="352" y="48"/>
			<point x="352" y="82" type="curve" smooth="yes"/>
			<point x="352" y="661" type="line"/>
			<point x="440" y="661" type="line" smooth="yes"/>
			<point x="534" y="661"/>
			<point x="553" y="645"/>
			<point x="597" y="500" type="curve"/>
			<point x="625" y="507" type="line"/>
			<point x="585" y="700" type="line"/>
			<point x="73" y="700" type="line"/>
			<point x="33" y="507" type="line"/>
			<point x="61" y="500" type="line"/>
			<point x="105" y="645"/>
			<point x="124" y="661"/>
			<point x="218" y="661" type="curve" smooth="yes"/>
			<point x="303" y="661" type="line"/>
			<point x="303" y="86" type="line" smooth="yes"/>
			<point x="303" y="46"/>
			<point x="289" y="41"/>
			<point x="270" y="38" type="curve" smooth="yes"/>
			<point x="189" y="25" type="line"/>
			<point x="189" y="0" type="line"/>
			<point x="301" y="0" type="line"/>
			<point x="270" y="-80" type="line"/>
			<point x="278" y="-97" type="line"/>
			<point x="287" y="-95"/>
			<point x="298" y="-93"/>
			<point x="312" y="-93" type="curve" smooth="yes"/>
			<point x="341" y="-93"/>
			<point x="373" y="-102"/>
			<point x="373" y="-140" type="curve" smooth="yes"/>
			<point x="373" y="-176"/>
			<point x="349" y="-189"/>
			<point x="317" y="-189" type="curve" smooth="yes"/>
			<point x="290" y="-189"/>
			<point x="256" y="-174"/>
			<point x="237" y="-160" type="curve"/>
			<point x="219" y="-189" type="line"/>
			<point x="230" y="-201"/>
			<point x="267" y="-229"/>
		</contour>
	</outline>
	<anchor name="bottom" x="328" y="-30"/>
	<anchor name="top" x="328" y="730"/>
</glyph>
<glyph name="Tbar" format="2">
	<unicode hex="0166"/>
	<advance width="658"/>
	<outline>
		<contour>
			<point x="189" y="0" type="line"/>
			<point x="466" y="0" type="line"/>
			<point x="466" y="25" type="line"/>
			<point x="386" y="38" type="line" smooth="yes"/>
			<point x="358" y="43"/>
			<point x="352" y="48"/>
			<point x="352" y="82" type="curve" smooth="yes"/>
			<point x="352" y="334" type="line"/>
			<point x="521" y="334" type="line"/>
			<point x="521" y="373" type="line"/>
			<point x="352" y="373" type="line"/>
			<point x="352" y="661" type="line"/>
			<point x="440" y="661" type="line" smooth="yes"/>
			<point x="534" y="661"/>
			<point x="553" y="645"/>
			<point x="597" y="500" type="curve"/>
			<point x="625" y="507" type="line"/>
			<point x="585" y="700" type="line"/>
			<point x="73" y="700" type="line"/>
			<point x="33" y="507" type="line"/>
			<point x="61" y="500" type="line"/>
			<point x="105" y="645"/>
			<point x="124" y="661"/>
			<point x="218" y="661" type="curve" smooth="yes"/>
			<point x="303" y="661" type="line"/>
			<point x="303" y="373" type="line"/>
			<point x="139" y="373" type="line"/>
			<point x="134" y="334" type="line"/>
			<point x="303" y="334" type="line"/>
			<point x="303" y="86" type="line" smooth="yes"/>
			<point x="303" y="46"/>
			<point x="289" y="41"/>
			<point x="270" y="38" type="curve" smooth="yes"/>
			<point x="189" y="25" type="line"/>
		</contour>
	</outline>
	<anchor name="bottom" x="328" y="-30"/>
	<anchor name="top" x="328" y="730"/>
</glyph>
<glyph name="Schwa" format="2">
	<unicode hex="018F"/>
	<advance width="669"/>
	<outline>
		<contour>
			<point x="314" y="-14" type="curve" smooth="yes"/>
			<point x="504" y="-14"/>
			<point x="604" y="146"/>
			<point x="604" y="354" type="curve" smooth="yes"/>
			<point x="604" y="562"/>
			<point x="504" y="714"/>
			<point x="318" y="714" type="curve" smooth="yes"/>
			<point x="192" y="714"/>
			<point x="115" y="647"/>
			<point x="65" y="562" type="curve"/>
			<point x="86" y="543" type="line"/>
			<point x="145" y="618"/>
			<point x="214" y="669"/>
			<point x="312" y="669" type="curve" smooth="yes"/>
			<point x="448" y="669"/>
			<point x="555" y="567"/>
			<point x="550" y="340" type="curve"/>
			<point x="90" y="340" type="line"/>
			<point x="83" y="306"/>
			<point x="78" y="266"/>
			<point x="78" y="229" type="curve" smooth="yes"/>
			<point x="78" y="69"/>
			<point x="177" y="-14"/>
		</contour>
		<contour>
			<point x="312" y="31" type="curve" smooth="yes"/>
			<point x="205" y="31"/>
			<point x="127" y="91"/>
			<point x="127" y="227" type="curve" smooth="yes"/>
			<point x="127" y="243"/>
			<point x="128" y="268"/>
			<point x="133" y="299" type="curve"/>
			<point x="548" y="299" type="line"/>
			<point x="537" y="147"/>
			<point x="459" y="31"/>
		</contour>
	</outline>
</glyph>
<glyph name="florin" format="2">
	<unicode hex="0192"/>
	<advance width="498"/>
	<outline>
		<contour>
			<point x="27" y="-193" type="curve" smooth="yes"/>
			<point x="118" y="-193"/>
			<point x="179" y="-135"/>
			<point x="201" y="41" type="curve" smooth="yes"/>
			<point x="245" y="393" type="line"/>
			<point x="394" y="393" type="line"/>
			<point x="400" y="435" type="line"/>
			<point x="249" y="435" type="line"/>
			<point x="264" y="539" type="line" smooth="yes"/>
			<point x="277" y="629"/>
			<point x="298" y="675"/>
			<point x="380" y="675" type="curve" smooth="yes"/>
			<point x="404" y="675"/>
			<point x="427" y="667"/>
			<point x="439" y="657" type="curve"/>
			<point x="422" y="630"/>
			<point x="418" y="618"/>
			<point x="418" y="606" type="curve" smooth="yes"/>
			<point x="418" y="588"/>
			<point x="432" y="577"/>
			<point x="452" y="577" type="curve" smooth="yes"/>
			<point x="483" y="577"/>
			<point x="498" y="598"/>
			<point x="498" y="627" type="curve" smooth="yes"/>
			<point x="498" y="689"/>
			<point x="440" y="714"/>
			<point x="379" y="714" type="curve" smooth="yes"/>
			<point x="281" y="714"/>
			<point x="217" y="657"/>
			<point x="200" y="484" type="curve"/>
			<point x="193" y="433" type="line"/>
			<point x="110" y="433" type="line"/>
			<point x="105" y="393" type="line"/>
			<point x="188" y="393" type="line"/>
			<point x="137" y="-18" type="line"/>
			<point x="120" y="-113"/>
			<point x="90" y="-154"/>
			<point x="26" y="-154" type="curve" smooth="yes"/>
			<point x="2" y="-154"/>
			<point x="-21" y="-146"/>
			<point x="-33" y="-136" type="curve"/>
			<point x="-16" y="-109"/>
			<point x="-12" y="-97"/>
			<point x="-12" y="-85" type="curve" smooth="yes"/>
			<point x="-12" y="-67"/>
			<point x="-26" y="-56"/>
			<point x="-46" y="-56" type="curve" smooth="yes"/>
			<point x="-77" y="-56"/>
			<point x="-92" y="-77"/>
			<point x="-92" y="-106" type="curve" smooth="yes"/>
			<point x="-92" y="-168"/>
			<point x="-34" y="-193"/>
		</contour>
	</outline>
</glyph>
<glyph name="ohorn" format="2">
	<unicode hex="01A1"/>
	<advance width="599"/>
	<outline>
		<contour>
			<point x="269" y="-14" type="curve" smooth="yes"/>
			<point x="416" y="-14"/>
			<point x="494" y="88"/>
			<point x="494" y="261" type="curve" smooth="yes"/>
			<point x="494" y="310"/>
			<point x="486" y="354"/>
			<point x="471" y="390" type="curve"/>
			<point x="564" y="431"/>
			<point x="599" y="506"/>
			<point x="599" y="583" type="curve" smooth="yes"/>
			<point x="599" y="625"/>
			<point x="581" y="655"/>
			<point x="541" y="655" type="curve" smooth="yes"/>
			<point x="514" y="655"/>
			<point x="493" y="639"/>
			<point x="493" y="610" type="curve" smooth="yes"/>
			<point x="493" y="578"/>
			<point x="512" y="564"/>
			<point x="538" y="564" type="curve" smooth="yes"/>
			<point x="553" y="564" type="line"/>
			<point x="549" y="495"/>
			<point x="519" y="452"/>
			<point x="455" y="423" type="curve"/>
			<point x="420" y="482"/>
			<point x="360" y="517"/>
			<point x="280" y="517" type="curve" smooth="yes"/>
			<point x="132" y="517"/>
			<point x="50" y="414"/>
			<point x="50" y="249" type="curve" smooth="yes"/>
			<point x="50" y="87"/>
			<point x="124" y="-14"/>
		</contour>
		<contour>
			<point x="278" y="27" type="curve" smooth="yes"/>
			<point x="163" y="27"/>
			<point x="101" y="105"/>
			<point x="101" y="257" type="curve" smooth="yes"/>
			<point x="101" y="405"/>
			<point x="163" y="476"/>
			<point x="272" y="476" type="curve" smooth="yes"/>
			<point x="384" y="476"/>
			<point x="443" y="401"/>
			<point x="443" y="249" type="curve" smooth="yes"/>
			<point x="443" y="104"/>
			<point x="383" y="27"/>
		</contour>
	</outline>
	<anchor name="bottom" x="275" y="-30"/>
	<anchor name="top" x="280" y="550"/>
</glyph>
<glyph name="uhorn" format="2">
	<unicode hex="01B0"/>
	<advance width="659"/>
	<outline>
		<contour>
			<point x="276" y="-14" type="curve" smooth="yes"/>
			<point x="343" y="-14"/>
			<point x="401" y="9"/>
			<point x="446" y="78" type="curve"/>
			<point x="447" y="78" type="line"/>
			<point x="452" y="-8" type="line"/>
			<point x="577" y="-3" type="line"/>
			<point x="577" y="24" type="line"/>
			<point x="527" y="29" type="line" smooth="yes"/>
			<point x="501" y="32"/>
			<point x="495" y="42"/>
			<point x="495" y="78" type="curve" smooth="yes"/>
			<point x="495" y="377" type="line"/>
			<point x="615" y="412"/>
			<point x="659" y="496"/>
			<point x="659" y="583" type="curve" smooth="yes"/>
			<point x="659" y="625"/>
			<point x="641" y="655"/>
			<point x="601" y="655" type="curve" smooth="yes"/>
			<point x="574" y="655"/>
			<point x="553" y="639"/>
			<point x="553" y="610" type="curve" smooth="yes"/>
			<point x="553" y="578"/>
			<point x="572" y="564"/>
			<point x="598" y="564" type="curve" smooth="yes"/>
			<point x="613" y="564" type="line"/>
			<point x="609" y="488"/>
			<point x="572" y="443"/>
			<point x="495" y="414" type="curve"/>
			<point x="495" y="503" type="line"/>
			<point x="483" y="509" type="line"/>
			<point x="367" y="497" type="line"/>
			<point x="364" y="469" type="line"/>
			<point x="412" y="463" type="line" smooth="yes"/>
			<point x="441" y="459"/>
			<point x="446" y="449"/>
			<point x="446" y="401" type="curve" smooth="yes"/>
			<point x="446" y="184" type="line" smooth="yes"/>
			<point x="446" y="94"/>
			<point x="380" y="30"/>
			<point x="280" y="30" type="curve" smooth="yes"/>
			<point x="199" y="30"/>
			<point x="166" y="75"/>
			<point x="166" y="163" type="curve" smooth="yes"/>
			<point x="166" y="503" type="line"/>
			<point x="154" y="509" type="line"/>
			<point x="38" y="497" type="line"/>
			<point x="35" y="469" type="line"/>
			<point x="83" y="463" type="line" smooth="yes"/>
			<point x="112" y="459"/>
			<point x="117" y="449"/>
			<point x="117" y="401" type="curve" smooth="yes"/>
			<point x="117" y="153" type="line" smooth="yes"/>
			<point x="117" y="39"/>
			<point x="175" y="-14"/>
		</contour>
	</outline>
	<anchor name="bottom" x="305" y="-30"/>
	<anchor name="top" x="300" y="550"/>
</glyph>
<glyph name="oogonek" format="2">
	<unicode hex="01EB"/>
	<advance width="544"/>
	<outline>
		<contour>
			<point x="302" y="-220" type="curve" smooth="yes"/>
			<point x="330" y="-220"/>
			<point x="361" y="-207"/>
			<point x="384" y="-190" type="curve"/>
			<point x="373" y="-165" type="line"/>
			<point x="351" y="-175"/>
			<point x="330" y="-181"/>
			<point x="312" y="-181" type="curve" smooth="yes"/>
			<point x="287" y="-181"/>
			<point x="271" y="-168"/>
			<point x="271" y="-138" type="curve" smooth="yes"/>
			<point x="271" y="-96"/>
			<point x="308" y="-47"/>
			<point x="363" y="3" type="curve"/>
			<point x="449" y="39"/>
			<point x="494" y="130"/>
			<point x="494" y="261" type="curve" smooth="yes"/>
			<point x="494" y="416"/>
			<point x="417" y="517"/>
			<point x="280" y="517" type="curve" smooth="yes"/>
			<point x="132" y="517"/>
			<point x="50" y="414"/>
			<point x="50" y="249" type="curve" smooth="yes"/>
			<point x="50" y="87"/>
			<point x="124" y="-14"/>
			<point x="269" y="-14" type="curve" smooth="yes"/>
			<point x="285" y="-14"/>
			<point x="300" y="-13"/>
			<point x="314" y="-11" type="curve"/>
			<point x="261" y="-56"/>
			<point x="228" y="-103"/>
			<point x="228" y="-147" type="curve" smooth="yes"/>
			<point x="228" y="-192"/>
			<point x="260" y="-220"/>
		</contour>
		<contour>
			<point x="278" y="27" type="curve" smooth="yes"/>
			<point x="163" y="27"/>
			<point x="101" y="105"/>
			<point x="101" y="257" type="curve" smooth="yes"/>
			<point x="101" y="405"/>
			<point x="163" y="476"/>
			<point x="272" y="476" type="curve" smooth="yes"/>
			<point x="384" y="476"/>
			<point x="443" y="401"/>
			<point x="443" y="249" type="curve" smooth="yes"/>
			<point x="443" y="104"/>
			<point x="383" y="27"/>
		</contour>
	</outline>
	<anchor name="bottom" x="272" y="-30"/>
	<anchor name="top" x="273" y="550"/>
</glyph>
<glyph name="Aringacute" format="2">
	<unicode hex="01FA"/>
	<advance width="657"/>
	<outline>
		<contour>
			<point x="10" y="0" type="line"/>
			<point x="227" y="0" type="line"/>
			<point x="227" y="27" type="line"/>
			<point x="170" y="34" type="line" smooth="yes"/>
			<point x="140" y="38"/>
			<point x="135" y="54"/>
			<point x="147" y="88" type="curve" smooth="yes"/>
			<point x="198" y="235" type="line"/>
			<point x="464" y="235" type="line"/>
			<point x="515" y="84" type="line" smooth="yes"/>
			<point x="527" y="49"/>
			<point x="522" y="39"/>
			<point x="496" y="35" type="curve" smooth="yes"/>
			<point x="438" y="27" type="line"/>
			<point x="438" y="0" type="line"/>
			<point x="647" y="0" type="line"/>
			<point x="647" y="29" type="line"/>
			<point x="610" y="35" type="line" smooth="yes"/>
			<point x="581" y="40"/>
			<point x="577" y="51"/>
			<point x="565" y="85" type="curve" smooth="yes"/>
			<point x="365" y="667" type="line"/>
			<point x="410" y="678"/>
			<point x="434" y="714"/>
			<point x="434" y="762" type="curve" smooth="yes"/>
			<point x="434" y="818"/>
			<point x="399" y="856"/>
			<point x="335" y="856" type="curve" smooth="yes"/>
			<point x="267" y="856"/>
			<point x="231" y="811"/>
			<point x="231" y="760" type="curve" smooth="yes"/>
			<point x="231" y="711"/>
			<point x="254" y="676"/>
			<point x="303" y="666" type="curve"/>
			<point x="99" y="88" type="line" smooth="yes"/>
			<point x="84" y="45"/>
			<point x="76" y="40"/>
			<point x="52" y="35" type="curve" smooth="yes"/>
			<point x="10" y="27" type="line"/>
		</contour>
		<contour>
			<point x="211" y="274" type="line"/>
			<point x="331" y="630" type="line"/>
			<point x="333" y="630" type="line"/>
			<point x="451" y="274" type="line"/>
		</contour>
		<contour>
			<point x="334" y="700" type="curve" smooth="yes"/>
			<point x="291" y="700"/>
			<point x="275" y="729"/>
			<point x="275" y="760" type="curve" smooth="yes"/>
			<point x="275" y="791"/>
			<point x="291" y="820"/>
			<point x="332" y="820" type="curve" smooth="yes"/>
			<point x="373" y="820"/>
			<point x="390" y="792"/>
			<point x="390" y="760" type="curve" smooth="yes"/>
			<point x="390" y="727"/>
			<point x="376" y="700"/>
		</contour>
		<contour>
			<point x="265" y="889" type="line"/>
			<point x="399" y="972" type="line" smooth="yes"/>
			<point x="421" y="986"/>
			<point x="432" y="998"/>
			<point x="432" y="1014" type="curve" smooth="yes"/>
			<point x="432" y="1030"/>
			<point x="420" y="1045"/>
			<point x="406" y="1045" type="curve" smooth="yes"/>
			<point x="395" y="1045"/>
			<point x="388" y="1040"/>
			<point x="371" y="1024" type="curve" smooth="yes"/>
			<point x="250" y="910" type="line"/>
		</contour>
	</outline>
	<anchor name="bottom" x="331" y="-30"/>
	<anchor name="top" x="333" y="730"/>
</glyph>
<glyph name="alpha-latin" format="2">
	<unicode hex="0251"/>
	<advance width="578"/>
	<outline>
		<contour>
			<point x="258" y="-14" type="curve" smooth="yes"/>
			<point x="315" y="-14"/>
			<point x="378" y="5"/>
			<point x="422" y="78" type="curve"/>
			<point x="423" y="78" type="line"/>
			<point x="428" y="21"/>
			<point x="452" y="-14"/>
			<point x="502" y="-14" type="curve" smooth="yes"/>
			<point x="532" y="-14"/>
			<point x="562" y="-4"/>
			<point x="583" y="15" type="curve"/>
			<point x="572" y="39" type="line"/>
			<point x="554" y="31"/>
			<point x="535" y="26"/>
			<point x="519" y="26" type="curve" smooth="yes"/>
			<point x="485" y="26"/>
			<point x="468" y="47"/>
			<point x="468" y="90" type="curve" smooth="yes"/>
			<point x="468" y="505" type="line"/>
			<point x="448" y="510" type="line"/>
			<point x="423" y="482" type="line"/>
			<point x="386" y="501"/>
			<point x="338" y="517"/>
			<point x="282" y="517" type="curve" smooth="yes"/>
			<point x="142" y="517"/>
			<point x="55" y="413"/>
			<point x="55" y="240" type="curve" smooth="yes"/>
			<point x="55" y="78"/>
			<point x="125" y="-14"/>
		</contour>
		<contour>
			<point x="266" y="29" type="curve" smooth="yes"/>
			<point x="158" y="29"/>
			<point x="106" y="108"/>
			<point x="106" y="248" type="curve" smooth="yes"/>
			<point x="106" y="390"/>
			<point x="165" y="476"/>
			<point x="279" y="476" type="curve" smooth="yes"/>
			<point x="337" y="476"/>
			<point x="380" y="461"/>
			<point x="419" y="440" type="curve"/>
			<point x="419" y="189" type="line" smooth="yes"/>
			<point x="419" y="94"/>
			<point x="360" y="29"/>
		</contour>
	</outline>
</glyph>
<glyph name="schwa" format="2">
	<unicode hex="0259"/>
	<advance width="477"/>
	<outline>
		<contour>
			<point x="219" y="-14" type="curve" smooth="yes"/>
			<point x="351" y="-14"/>
			<point x="427" y="96"/>
			<point x="427" y="251" type="curve" smooth="yes"/>
			<point x="427" y="421"/>
			<point x="351" y="517"/>
			<point x="216" y="517" type="curve" smooth="yes"/>
			<point x="155" y="517"/>
			<point x="96" y="492"/>
			<point x="50" y="441" type="curve"/>
			<point x="71" y="418" type="line"/>
			<point x="112" y="453"/>
			<point x="160" y="472"/>
			<point x="208" y="472" type="curve" smooth="yes"/>
			<point x="311" y="472"/>
			<point x="377" y="411"/>
			<point x="378" y="249" type="curve"/>
			<point x="57" y="249" type="line"/>
			<point x="52" y="217"/>
			<point x="50" y="187"/>
			<point x="50" y="159" type="curve" smooth="yes"/>
			<point x="50" y="57"/>
			<point x="105" y="-14"/>
		</contour>
		<contour>
			<point x="217" y="25" type="curve" smooth="yes"/>
			<point x="136" y="25"/>
			<point x="97" y="79"/>
			<point x="97" y="151" type="curve" smooth="yes"/>
			<point x="97" y="174"/>
			<point x="98" y="189"/>
			<point x="101" y="210" type="curve"/>
			<point x="377" y="210" type="line"/>
			<point x="367" y="90"/>
			<point x="311" y="25"/>
		</contour>
	</outline>
	<anchor name="bottom" x="217" y="533"/>
	<anchor name="top" x="220" y="-47"/>
</glyph>
<glyph name="ringhalfright" format="2">
	<unicode hex="02BE"/>
	<advance width="500"/>
	<outline>
		<contour>
			<point x="206" y="588" type="line"/>
			<point x="208" y="588" type="line"/>
			<point x="279" y="588"/>
			<point x="315" y="633"/>
			<point x="315" y="682" type="curve" smooth="yes"/>
			<point x="315" y="741"/>
			<point x="284" y="781"/>
			<point x="209" y="781" type="curve" smooth="yes"/>
			<point x="206" y="781" type="line"/>
			<point x="206" y="744" type="line"/>
			<point x="208" y="744" type="line" smooth="yes"/>
			<point x="257" y="744"/>
			<point x="271" y="714"/>
			<point x="271" y="682" type="curve" smooth="yes"/>
			<point x="271" y="651"/>
			<point x="254" y="624"/>
			<point x="208" y="624" type="curve" smooth="yes"/>
			<point x="206" y="624" type="line"/>
		</contour>
	</outline>
	<anchor name="_top" x="250" y="550"/>
</glyph>
<glyph name="circumflex" format="2">
	<unicode hex="02C6"/>
	<advance width="500"/>
	<outline>
		<contour>
			<point x="131" y="584" type="line"/>
			<point x="251" y="696" type="line"/>
			<point x="370" y="584" type="line"/>
			<point x="389" y="602" type="line"/>
			<point x="291" y="727" type="line" smooth="yes"/>
			<point x="276" y="746"/>
			<point x="265" y="752"/>
			<point x="251" y="752" type="curve" smooth="yes"/>
			<point x="237" y="752"/>
			<point x="224" y="744"/>
			<point x="213" y="730" type="curve" smooth="yes"/>
			<point x="111" y="602" type="line"/>
		</contour>
	</outline>
	<anchor name="_top" x="250" y="550"/>
</glyph>
<glyph name="ogonek" format="2">
	<unicode hex="02DB"/>
	<advance width="500"/>
	<outline>
		<contour>
			<point x="247" y="-220" type="curve" smooth="yes"/>
			<point x="275" y="-220"/>
			<point x="306" y="-207"/>
			<point x="329" y="-190" type="curve"/>
			<point x="318" y="-165" type="line"/>
			<point x="296" y="-175"/>
			<point x="275" y="-181"/>
			<point x="257" y="-181" type="curve" smooth="yes"/>
			<point x="232" y="-181"/>
			<point x="216" y="-168"/>
			<point x="216" y="-138" type="curve" smooth="yes"/>
			<point x="216" y="-96"/>
			<point x="254" y="-46"/>
			<point x="310" y="5" type="curve"/>
			<point x="283" y="9" type="line"/>
			<point x="216" y="-42"/>
			<point x="173" y="-97"/>
			<point x="173" y="-147" type="curve" smooth="yes"/>
			<point x="173" y="-192"/>
			<point x="205" y="-220"/>
		</contour>
	</outline>
	<anchor name="_bottom" x="250" y="-30"/>
</glyph>
<glyph name="hungarumlaut" format="2">
	<unicode hex="02DD"/>
	<advance width="500"/>
	<outline>
		<contour>
			<point x="311" y="584" type="line"/>
			<point x="417" y="678" type="line" smooth="yes"/>
			<point x="443" y="701"/>
			<point x="450" y="714"/>
			<point x="450" y="726" type="curve" smooth="yes"/>
			<point x="450" y="740"/>
			<point x="439" y="752"/>
			<point x="426" y="752" type="curve" smooth="yes"/>
			<point x="416" y="752"/>
			<point x="407" y="745"/>
			<point x="395" y="730" type="curve" smooth="yes"/>
			<point x="292" y="602" type="line"/>
		</contour>
		<contour>
			<point x="168" y="584" type="line"/>
			<point x="270" y="678" type="line" smooth="yes"/>
			<point x="296" y="702"/>
			<point x="303" y="714"/>
			<point x="303" y="726" type="curve" smooth="yes"/>
			<point x="303" y="740"/>
			<point x="292" y="752"/>
			<point x="279" y="752" type="curve" smooth="yes"/>
			<point x="269" y="752"/>
			<point x="260" y="745"/>
			<point x="248" y="730" type="curve" smooth="yes"/>
			<point x="149" y="602" type="line"/>
		</contour>
	</outline>
	<anchor name="_top" x="250" y="550"/>
</glyph>
<glyph name="acutecomb" format="2">
	<unicode hex="0301"/>
	<outline>
		<contour>
			<point x="-45" y="584" type="line"/>
			<point x="63" y="678" type="line" smooth="yes"/>
			<point x="89" y="701"/>
			<point x="96" y="714"/>
			<point x="96" y="726" type="curve" smooth="yes"/>
			<point x="96" y="740"/>
			<point x="82" y="756"/>
			<point x="68" y="756" type="curve" smooth="yes"/>
			<point x="58" y="756"/>
			<point x="49" y="749"/>
			<point x="37" y="734" type="curve" smooth="yes"/>
			<point x="-64" y="602" type="line"/>
		</contour>
	</outline>
	<anchor name="_top" x="0" y="550"/>
</glyph>
<glyph name="dotaccentcomb" format="2">
	<unicode hex="0307"/>
	<outline>
		<contour>
			<point x="0" y="633" type="curve" smooth="yes"/>
			<point x="29" y="633"/>
			<point x="43" y="657"/>
			<point x="43" y="683" type="curve" smooth="yes"/>
			<point x="43" y="711"/>
			<point x="30" y="727"/>
			<point x="1" y="727" type="curve" smooth="yes"/>
			<point x="-28" y="727"/>
			<point x="-42" y="706"/>
			<point x="-42" y="678" type="curve" smooth="yes"/>
			<point x="-42" y="652"/>
			<point x="-29" y="633"/>
		</contour>
	</outline>
	<anchor name="_top" x="0" y="550"/>
</glyph>
<glyph name="hookabovecomb" format="2">
	<unicode hex="0309"/>
	<outline>
		<contour>
			<point x="-22" y="580" type="line"/>
			<point x="23" y="580" type="line"/>
			<point x="23" y="613" type="line" smooth="yes"/>
			<point x="23" y="651"/>
			<point x="103" y="653"/>
			<point x="103" y="720" type="curve" smooth="yes"/>
			<point x="103" y="766"/>
			<point x="66" y="794"/>
			<point x="3" y="794" type="curve" smooth="yes"/>
			<point x="-66" y="794"/>
			<point x="-110" y="760"/>
			<point x="-110" y="718" type="curve" smooth="yes"/>
			<point x="-110" y="693"/>
			<point x="-95" y="685"/>
			<point x="-76" y="685" type="curve" smooth="yes"/>
			<point x="-57" y="685"/>
			<point x="-42" y="694"/>
			<point x="-42" y="709" type="curve" smooth="yes"/>
			<point x="-42" y="718"/>
			<point x="-44" y="725"/>
			<point x="-57" y="742" type="curve"/>
			<point x="-47" y="751"/>
			<point x="-26" y="757"/>
			<point x="0" y="757" type="curve" smooth="yes"/>
			<point x="36" y="757"/>
			<point x="54" y="745"/>
			<point x="54" y="721" type="curve" smooth="yes"/>
			<point x="54" y="671"/>
			<point x="-22" y="679"/>
			<point x="-22" y="612" type="curve" smooth="yes"/>
		</contour>
	</outline>
	<anchor name="_top" x="0" y="550"/>
</glyph>
<glyph name="ringcomb" format="2">
	<unicode hex="030A"/>
	<outline>
		<contour>
			<point x="0" y="588" type="curve" smooth="yes"/>
			<point x="65" y="588"/>
			<point x="101" y="628"/>
			<point x="101" y="687" type="curve" smooth="yes"/>
			<point x="101" y="743"/>
			<point x="66" y="781"/>
			<point x="2" y="781" type="curve" smooth="yes"/>
			<point x="-66" y="781"/>
			<point x="-102" y="736"/>
			<point x="-102" y="685" type="curve" smooth="yes"/>
			<point x="-102" y="627"/>
			<point x="-69" y="588"/>
		</contour>
		<contour>
			<point x="1" y="625" type="curve" smooth="yes"/>
			<point x="-42" y="625"/>
			<point x="-58" y="654"/>
			<point x="-58" y="685" type="curve" smooth="yes"/>
			<point x="-58" y="716"/>
			<point x="-42" y="745"/>
			<point x="-1" y="745" type="curve" smooth="yes"/>
			<point x="40" y="745"/>
			<point x="57" y="717"/>
			<point x="57" y="685" type="curve" smooth="yes"/>
			<point x="57" y="652"/>
			<point x="43" y="625"/>
		</contour>
	</outline>
	<anchor name="_top" x="0" y="550"/>
</glyph>
<glyph name="hungarumlautcomb" format="2">
	<unicode hex="030B"/>
	<outline>
		<contour>
			<point x="61" y="584" type="line"/>
			<point x="167" y="678" type="line" smooth="yes"/>
			<point x="193" y="701"/>
			<point x="200" y="714"/>
			<point x="200" y="726" type="curve" smooth="yes"/>
			<point x="200" y="740"/>
			<point x="189" y="752"/>
			<point x="176" y="752" type="curve" smooth="yes"/>
			<point x="166" y="752"/>
			<point x="157" y="745"/>
			<point x="145" y="730" type="curve" smooth="yes"/>
			<point x="42" y="602" type="line"/>
		</contour>
		<contour>
			<point x="-82" y="584" type="line"/>
			<point x="20" y="678" type="line" smooth="yes"/>
			<point x="46" y="702"/>
			<point x="53" y="714"/>
			<point x="53" y="726" type="curve" smooth="yes"/>
			<point x="53" y="740"/>
			<point x="42" y="752"/>
			<point x="29" y="752" type="curve" smooth="yes"/>
			<point x="19" y="752"/>
			<point x="10" y="745"/>
			<point x="-2" y="730" type="curve" smooth="yes"/>
			<point x="-101" y="602" type="line"/>
		</contour>
	</outline>
	<anchor name="_top" x="0" y="550"/>
</glyph>
<glyph name="commaturnedabovecomb" format="2">
	<unicode hex="0312"/>
	<outline>
		<contour>
			<point x="0" y="581" type="curve" smooth="yes"/>
			<point x="30" y="581"/>
			<point x="43" y="602"/>
			<point x="43" y="625" type="curve" smooth="yes"/>
			<point x="43" y="650"/>
			<point x="28" y="666"/>
			<point x="5" y="666" type="curve" smooth="yes"/>
			<point x="-5" y="666" type="line"/>
			<point x="-5" y="697"/>
			<point x="7" y="729"/>
			<point x="39" y="763" type="curve"/>
			<point x="20" y="784" type="line"/>
			<point x="-21" y="746"/>
			<point x="-50" y="691"/>
			<point x="-50" y="644" type="curve" smooth="yes"/>
			<point x="-50" y="613"/>
			<point x="-38" y="581"/>
		</contour>
	</outline>
	<anchor name="_top" x="0" y="550"/>
</glyph>
<glyph name="horncomb" format="2">
	<unicode hex="031B"/>
	<outline>
		<contour>
			<point x="-98" y="381" type="line"/>
			<point x="15" y="416"/>
			<point x="59" y="510"/>
			<point x="59" y="583" type="curve" smooth="yes"/>
			<point x="59" y="628"/>
			<point x="41" y="658"/>
			<point x="1" y="658" type="curve" smooth="yes"/>
			<point x="-30" y="658"/>
			<point x="-52" y="639"/>
			<point x="-52" y="605" type="curve" smooth="yes"/>
			<point x="-52" y="572"/>
			<point x="-32" y="558"/>
			<point x="-2" y="558" type="curve" smooth="yes"/>
			<point x="10" y="558" type="line"/>
			<point x="6" y="492"/>
			<point x="-26" y="445"/>
			<point x="-98" y="416" type="curve"/>
		</contour>
	</outline>
</glyph>
<glyph name="dotbelowcomb" format="2">
	<unicode hex="0323"/>
	<outline>
		<contour>
			<point x="-1" y="-173" type="curve" smooth="yes"/>
			<point x="28" y="-173"/>
			<point x="42" y="-149"/>
			<point x="42" y="-123" type="curve" smooth="yes"/>
			<point x="42" y="-95"/>
			<point x="29" y="-79"/>
			<point x="0" y="-79" type="curve" smooth="yes"/>
			<point x="-29" y="-79"/>
			<point x="-43" y="-100"/>
			<point x="-43" y="-128" type="curve" smooth="yes"/>
			<point x="-43" y="-154"/>
			<point x="-30" y="-173"/>
		</contour>
	</outline>
	<anchor name="_bottom" x="0" y="-30"/>
</glyph>
<glyph name="dieresisbelowcomb" format="2">
	<unicode hex="0324"/>
	<outline>
		<contour>
			<point x="90" y="-171" type="curve" smooth="yes"/>
			<point x="119" y="-171"/>
			<point x="133" y="-147"/>
			<point x="133" y="-121" type="curve" smooth="yes"/>
			<point x="133" y="-93"/>
			<point x="120" y="-77"/>
			<point x="91" y="-77" type="curve" smooth="yes"/>
			<point x="62" y="-77"/>
			<point x="48" y="-98"/>
			<point x="48" y="-126" type="curve" smooth="yes"/>
			<point x="48" y="-152"/>
			<point x="61" y="-171"/>
		</contour>
		<contour>
			<point x="-91" y="-171" type="curve" smooth="yes"/>
			<point x="-62" y="-171"/>
			<point x="-48" y="-147"/>
			<point x="-48" y="-121" type="curve" smooth="yes"/>
			<point x="-48" y="-93"/>
			<point x="-61" y="-77"/>
			<point x="-90" y="-77" type="curve" smooth="yes"/>
			<point x="-119" y="-77"/>
			<point x="-133" y="-98"/>
			<point x="-133" y="-126" type="curve" smooth="yes"/>
			<point x="-133" y="-152"/>
			<point x="-120" y="-171"/>
		</contour>
	</outline>
	<anchor name="_bottom" x="0" y="-30"/>
</glyph>
<glyph name="ogonekcomb" format="2">
	<unicode hex="0328"/>
	<outline>
		<contour>
			<point x="-3" y="-220" type="curve" smooth="yes"/>
			<point x="25" y="-220"/>
			<point x="56" y="-207"/>
			<point x="79" y="-190" type="curve"/>
			<point x="68" y="-165" type="line"/>
			<point x="46" y="-175"/>
			<point x="25" y="-181"/>
			<point x="7" y="-181" type="curve" smooth="yes"/>
			<point x="-18" y="-181"/>
			<point x="-34" y="-168"/>
			<point x="-34" y="-138" type="curve" smooth="yes"/>
			<point x="-34" y="-96"/>
			<point x="4" y="-46"/>
			<point x="60" y="5" type="curve"/>
			<point x="33" y="9" type="line"/>
			<point x="-34" y="-42"/>
			<point x="-77" y="-97"/>
			<point x="-77" y="-147" type="curve" smooth="yes"/>
			<point x="-77" y="-192"/>
			<point x="-45" y="-220"/>
		</contour>
	</outline>
	<anchor name="_bottom" x="0" y="-30"/>
</glyph>
<glyph name="macronbelowcomb" format="2">
	<unicode hex="0331"/>
	<outline>
		<contour>
			<point x="-130" y="-141" type="line"/>
			<point x="130" y="-141" type="line"/>
			<point x="130" y="-98" type="line"/>
			<point x="-130" y="-98" type="line"/>
		</contour>
	</outline>
	<anchor name="_bottom" x="0" y="-30"/>
</glyph>
<glyph name="tonos" format="2">
	<unicode hex="0384"/>
	<advance width="494"/>
	<outline>
		<contour>
			<point x="203" y="572" type="line"/>
			<point x="340" y="732" type="line"/>
			<point x="340" y="745" type="line"/>
			<point x="324" y="772"/>
			<point x="311" y="782"/>
			<point x="293" y="782" type="curve" smooth="yes"/>
			<point x="269" y="782"/>
			<point x="263" y="767"/>
			<point x="251" y="739" type="curve" smooth="yes"/>
			<point x="186" y="582" type="line"/>
		</contour>
	</outline>
	<anchor name="_top" x="207" y="550"/>
</glyph>
<glyph name="dieresistonos" format="2">
	<unicode hex="0385"/>
	<advance width="596"/>
	<outline>
		<contour>
			<point x="252" y="584" type="line"/>
			<point x="375" y="750" type="line"/>
			<point x="375" y="762" type="line"/>
			<point x="359" y="784"/>
			<point x="345" y="794"/>
			<point x="328" y="794" type="curve" smooth="yes"/>
			<point x="300" y="794"/>
			<point x="296" y="779"/>
			<point x="286" y="749" type="curve" smooth="yes"/>
			<point x="234" y="592" type="line"/>
		</contour>
		<contour>
			<point x="159" y="627" type="curve" smooth="yes"/>
			<point x="185" y="627"/>
			<point x="202" y="647"/>
			<point x="202" y="677" type="curve" smooth="yes"/>
			<point x="202" y="706"/>
			<point x="188" y="721"/>
			<point x="160" y="721" type="curve" smooth="yes"/>
			<point x="133" y="721"/>
			<point x="117" y="703"/>
			<point x="117" y="672" type="curve" smooth="yes"/>
			<point x="117" y="643"/>
			<point x="132" y="627"/>
		</contour>
		<contour>
			<point x="436" y="627" type="curve" smooth="yes"/>
			<point x="462" y="627"/>
			<point x="479" y="647"/>
			<point x="479" y="677" type="curve" smooth="yes"/>
			<point x="479" y="706"/>
			<point x="465" y="721"/>
			<point x="437" y="721" type="curve" smooth="yes"/>
			<point x="410" y="721"/>
			<point x="394" y="703"/>
			<point x="394" y="672" type="curve" smooth="yes"/>
			<point x="394" y="643"/>
			<point x="409" y="627"/>
		</contour>
	</outline>
	<anchor name="_top" x="257" y="550"/>
</glyph>
<glyph name="Gamma" format="2">
	<unicode hex="0393"/>
	<advance width="571"/>
	<outline>
		<contour>
			<point x="67" y="0" type="line"/>
			<point x="327" y="0" type="line"/>
			<point x="327" y="26" type="line"/>
			<point x="241" y="35" type="line" smooth="yes"/>
			<point x="214" y="38"/>
			<point x="205" y="51"/>
			<point x="205" y="83" type="curve"/>
			<point x="205" y="661" type="line"/>
			<point x="336" y="661" type="line" smooth="yes"/>
			<point x="440" y="661"/>
			<point x="457" y="648"/>
			<point x="491" y="537" type="curve"/>
			<point x="521" y="546" type="line"/>
			<point x="485" y="700" type="line"/>
			<point x="67" y="700" type="line"/>
			<point x="67" y="672" type="line"/>
			<point x="121" y="663" type="line" smooth="yes"/>
			<point x="150" y="659"/>
			<point x="156" y="650"/>
			<point x="156" y="616" type="curve" smooth="yes"/>
			<point x="156" y="86" type="line" smooth="yes"/>
			<point x="156" y="49"/>
			<point x="150" y="39"/>
			<point x="125" y="35" type="curve" smooth="yes"/>
			<point x="67" y="26" type="line"/>
		</contour>
	</outline>
</glyph>
<glyph name="Theta" format="2">
	<unicode hex="0398"/>
	<advance width="735"/>
	<outline>
		<contour>
			<point x="367" y="-14" type="curve" smooth="yes"/>
			<point x="556" y="-14"/>
			<point x="670" y="128"/>
			<point x="670" y="362" type="curve" smooth="yes"/>
			<point x="670" y="583"/>
			<point x="559" y="714"/>
			<point x="373" y="714" type="curve" smooth="yes"/>
			<point x="177" y="714"/>
			<point x="67" y="580"/>
			<point x="67" y="342" type="curve" smooth="yes"/>
			<point x="67" y="117"/>
			<point x="177" y="-14"/>
		</contour>
		<contour>
			<point x="372" y="31" type="curve" smooth="yes"/>
			<point x="211" y="31"/>
			<point x="118" y="148"/>
			<point x="118" y="350" type="curve" smooth="yes"/>
			<point x="118" y="552"/>
			<point x="208" y="669"/>
			<point x="365" y="669" type="curve" smooth="yes"/>
			<point x="528" y="669"/>
			<point x="619" y="557"/>
			<point x="619" y="356" type="curve" smooth="yes"/>
			<point x="619" y="153"/>
			<point x="527" y="31"/>
		</contour>
		<contour>
			<point x="219" y="243" type="line"/>
			<point x="247" y="246" type="line"/>
			<point x="260" y="311"/>
			<point x="270" y="320"/>
			<point x="333" y="320" type="curve" smooth="yes"/>
			<point x="390" y="320" type="line" smooth="yes"/>
			<point x="468" y="320"/>
			<point x="480" y="311"/>
			<point x="491" y="244" type="curve"/>
			<point x="519" y="248" type="line"/>
			<point x="519" y="430" type="line"/>
			<point x="491" y="427" type="line"/>
			<point x="478" y="362"/>
			<point x="468" y="353"/>
			<point x="405" y="353" type="curve" smooth="yes"/>
			<point x="348" y="353" type="line" smooth="yes"/>
			<point x="270" y="353"/>
			<point x="258" y="362"/>
			<point x="247" y="429" type="curve"/>
			<point x="219" y="425" type="line"/>
		</contour>
	</outline>
</glyph>
<glyph name="Xi" format="2">
	<unicode hex="039E"/>
	<advance width="644"/>
	<outline>
		<contour>
			<point x="78" y="0" type="line"/>
			<point x="566" y="0" type="line"/>
			<point x="589" y="180" type="line"/>
			<point x="559" y="180" type="line"/>
			<point x="539" y="78"/>
			<point x="519" y="59"/>
			<point x="426" y="59" type="curve" smooth="yes"/>
			<point x="218" y="59" type="line" smooth="yes"/>
			<point x="125" y="59"/>
			<point x="105" y="78"/>
			<point x="85" y="180" type="curve"/>
			<point x="55" y="180" type="line"/>
		</contour>
		<contour>
			<point x="149" y="257" type="line"/>
			<point x="177" y="260" type="line"/>
			<point x="190" y="320"/>
			<point x="200" y="326"/>
			<point x="263" y="326" type="curve" smooth="yes"/>
			<point x="359" y="326" type="line" smooth="yes"/>
			<point x="437" y="326"/>
			<point x="449" y="319"/>
			<point x="460" y="258" type="curve"/>
			<point x="488" y="262" type="line"/>
			<point x="488" y="444" type="line"/>
			<point x="460" y="441" type="line"/>
			<point x="447" y="381"/>
			<point x="437" y="375"/>
			<point x="374" y="375" type="curve" smooth="yes"/>
			<point x="278" y="375" type="line" smooth="yes"/>
			<point x="200" y="375"/>
			<point x="188" y="382"/>
			<point x="177" y="443" type="curve"/>
			<point x="149" y="439" type="line"/>
		</contour>
		<contour>
			<point x="95" y="527" type="line"/>
			<point x="129" y="638"/>
			<point x="146" y="651"/>
			<point x="249" y="651" type="curve" smooth="yes"/>
			<point x="396" y="651" type="line" smooth="yes"/>
			<point x="499" y="651"/>
			<point x="516" y="638"/>
			<point x="550" y="527" type="curve"/>
			<point x="580" y="536" type="line"/>
			<point x="544" y="700" type="line"/>
			<point x="101" y="700" type="line"/>
			<point x="65" y="536" type="line"/>
		</contour>
	</outline>
</glyph>
<glyph name="Omega" format="2">
	<unicode hex="03A9"/>
	<advance width="734"/>
	<outline>
		<contour>
			<point x="66" y="0" type="line"/>
			<point x="312" y="0" type="line"/>
			<point x="312" y="165" type="line"/>
			<point x="188" y="191"/>
			<point x="117" y="283"/>
			<point x="117" y="417" type="curve" smooth="yes"/>
			<point x="117" y="568"/>
			<point x="216" y="669"/>
			<point x="364" y="669" type="curve" smooth="yes"/>
			<point x="530" y="669"/>
			<point x="618" y="584"/>
			<point x="618" y="424" type="curve" smooth="yes"/>
			<point x="618" y="282"/>
			<point x="550" y="193"/>
			<point x="422" y="165" type="curve"/>
			<point x="422" y="0" type="line"/>
			<point x="668" y="0" type="line"/>
			<point x="694" y="194" type="line"/>
			<point x="665" y="194" type="line"/>
			<point x="630" y="51"/>
			<point x="621" y="52"/>
			<point x="537" y="52" type="curve" smooth="yes"/>
			<point x="465" y="52" type="line"/>
			<point x="465" y="127" type="line"/>
			<point x="588" y="166"/>
			<point x="669" y="283"/>
			<point x="669" y="421" type="curve" smooth="yes"/>
			<point x="669" y="610"/>
			<point x="564" y="714"/>
			<point x="374" y="714" type="curve" smooth="yes"/>
			<point x="190" y="714"/>
			<point x="67" y="592"/>
			<point x="67" y="410" type="curve" smooth="yes"/>
			<point x="67" y="269"/>
			<point x="144" y="161"/>
			<point x="269" y="127" type="curve"/>
			<point x="269" y="52" type="line"/>
			<point x="201" y="52" type="line" smooth="yes"/>
			<point x="113" y="52"/>
			<point x="104" y="51"/>
			<point x="69" y="194" type="curve"/>
			<point x="40" y="194" type="line"/>
		</contour>
	</outline>
	<anchor name="bottom" x="364" y="-45"/>
	<anchor name="side" x="776" y="217"/>
	<anchor name="topleft" x="47" y="700"/>
	<guideline x="95" y="418" angle="90"/>
</glyph>
<glyph name="beta" format="2">
	<unicode hex="03B2"/>
	<advance width="577"/>
	<outline>
		<contour>
			<point x="110" y="-222" type="line"/>
			<point x="152" y="-217" type="line"/>
			<point x="144" y="-168"/>
			<point x="136" y="-43"/>
			<point x="136" y="22" type="curve"/>
			<point x="138" y="22" type="line"/>
			<point x="171" y="0"/>
			<point x="230" y="-14"/>
			<point x="288" y="-14" type="curve" smooth="yes"/>
			<point x="421" y="-14"/>
			<point x="522" y="86"/>
			<point x="522" y="218" type="curve" smooth="yes"/>
			<point x="522" y="315"/>
			<point x="465" y="389"/>
			<point x="362" y="424" type="curve"/>
			<point x="362" y="426" type="line"/>
			<point x="427" y="458"/>
			<point x="468" y="526"/>
			<point x="468" y="603" type="curve" smooth="yes"/>
			<point x="468" y="715"/>
			<point x="399" y="782"/>
			<point x="284" y="782" type="curve" smooth="yes"/>
			<point x="152" y="782"/>
			<point x="86" y="703"/>
			<point x="86" y="545" type="curve" smooth="yes"/>
			<point x="86" y="149" type="line" smooth="yes"/>
			<point x="86" y="-12"/>
			<point x="90" y="-145"/>
			<point x="97" y="-215" type="curve"/>
		</contour>
		<contour>
			<point x="289" y="27" type="curve" smooth="yes"/>
			<point x="225" y="27"/>
			<point x="176" y="41"/>
			<point x="136" y="70" type="curve"/>
			<point x="136" y="544" type="line" smooth="yes"/>
			<point x="136" y="678"/>
			<point x="182" y="742"/>
			<point x="280" y="742" type="curve" smooth="yes"/>
			<point x="370" y="742"/>
			<point x="420" y="693"/>
			<point x="420" y="603" type="curve" smooth="yes"/>
			<point x="420" y="531"/>
			<point x="387" y="471"/>
			<point x="334" y="445" type="curve"/>
			<point x="313" y="459"/>
			<point x="296" y="465"/>
			<point x="276" y="465" type="curve" smooth="yes"/>
			<point x="245" y="465"/>
			<point x="226" y="447"/>
			<point x="226" y="417" type="curve" smooth="yes"/>
			<point x="226" y="389"/>
			<point x="246" y="371"/>
			<point x="277" y="371" type="curve" smooth="yes"/>
			<point x="296" y="371"/>
			<point x="313" y="379"/>
			<point x="334" y="397" type="curve"/>
			<point x="427" y="375"/>
			<point x="472" y="316"/>
			<point x="472" y="218" type="curve" smooth="yes"/>
			<point x="472" y="110"/>
			<point x="393" y="27"/>
		</contour>
	</outline>
</glyph>
<glyph name="gamma" format="2">
	<unicode hex="03B3"/>
	<advance width="538"/>
	<outline>
		<contour>
			<point x="205" y="-186" type="curve"/>
			<point x="217" y="-187"/>
			<point x="225" y="-185"/>
			<point x="250" y="-178" type="curve"/>
			<point x="250" y="-138"/>
			<point x="246" y="-65"/>
			<point x="239" y="4" type="curve"/>
			<point x="385" y="111"/>
			<point x="478" y="279"/>
			<point x="478" y="438" type="curve" smooth="yes"/>
			<point x="478" y="463"/>
			<point x="475" y="488"/>
			<point x="470" y="505" type="curve"/>
			<point x="458" y="511" type="line"/>
			<point x="416" y="506" type="line"/>
			<point x="421" y="492"/>
			<point x="424" y="460"/>
			<point x="424" y="427" type="curve" smooth="yes"/>
			<point x="424" y="289"/>
			<point x="341" y="122"/>
			<point x="237" y="53" type="curve"/>
			<point x="235" y="53" type="line"/>
			<point x="218" y="398"/>
			<point x="180" y="513"/>
			<point x="81" y="513" type="curve" smooth="yes"/>
			<point x="49" y="513"/>
			<point x="21" y="503"/>
			<point x="0" y="484" type="curve"/>
			<point x="11" y="460" type="line"/>
			<point x="30" y="468"/>
			<point x="50" y="473"/>
			<point x="63" y="473" type="curve" smooth="yes"/>
			<point x="135" y="473"/>
			<point x="171" y="346"/>
			<point x="194" y="12" type="curve"/>
			<point x="178" y="-65"/>
			<point x="182" y="-125"/>
		</contour>
	</outline>
</glyph>
<glyph name="zeta" format="2">
	<unicode hex="03B6"/>
	<advance width="427"/>
	<outline>
		<contour>
			<point x="322" y="-230" type="line"/>
			<point x="383" y="-185"/>
			<point x="413" y="-136"/>
			<point x="413" y="-81" type="curve" smooth="yes"/>
			<point x="413" y="-4"/>
			<point x="375" y="28"/>
			<point x="252" y="55" type="curve" smooth="yes"/>
			<point x="136" y="80"/>
			<point x="87" y="124"/>
			<point x="87" y="203" type="curve" smooth="yes"/>
			<point x="87" y="357"/>
			<point x="222" y="562"/>
			<point x="425" y="716" type="curve"/>
			<point x="425" y="731" type="line"/>
			<point x="378" y="770" type="line"/>
			<point x="351" y="744"/>
			<point x="341" y="733"/>
			<point x="312" y="703" type="curve"/>
			<point x="281" y="694"/>
			<point x="241" y="689"/>
			<point x="201" y="689" type="curve" smooth="yes"/>
			<point x="162" y="689"/>
			<point x="129" y="698"/>
			<point x="113" y="713" type="curve"/>
			<point x="130" y="736"/>
			<point x="138" y="753"/>
			<point x="138" y="766" type="curve" smooth="yes"/>
			<point x="138" y="787"/>
			<point x="123" y="802"/>
			<point x="101" y="802" type="curve" smooth="yes"/>
			<point x="70" y="802"/>
			<point x="49" y="779"/>
			<point x="49" y="745" type="curve" smooth="yes"/>
			<point x="49" y="685"/>
			<point x="105" y="647"/>
			<point x="192" y="647" type="curve" smooth="yes"/>
			<point x="219" y="647"/>
			<point x="243" y="649"/>
			<point x="267" y="654" type="curve"/>
			<point x="128" y="500"/>
			<point x="40" y="324"/>
			<point x="40" y="200" type="curve" smooth="yes"/>
			<point x="40" y="94"/>
			<point x="97" y="40"/>
			<point x="244" y="8" type="curve" smooth="yes"/>
			<point x="339" y="-12"/>
			<point x="369" y="-35"/>
			<point x="369" y="-87" type="curve" smooth="yes"/>
			<point x="369" y="-126"/>
			<point x="345" y="-166"/>
			<point x="300" y="-204" type="curve"/>
		</contour>
	</outline>
</glyph>
<glyph name="theta" format="2">
	<unicode hex="03B8"/>
	<advance width="554"/>
	<outline>
		<contour>
			<point x="274" y="-14" type="curve" smooth="yes"/>
			<point x="421" y="-14"/>
			<point x="494" y="119"/>
			<point x="494" y="385" type="curve" smooth="yes"/>
			<point x="494" y="649"/>
			<point x="423" y="782"/>
			<point x="283" y="782" type="curve" smooth="yes"/>
			<point x="136" y="782"/>
			<point x="60" y="647"/>
			<point x="60" y="387" type="curve" smooth="yes"/>
			<point x="60" y="119"/>
			<point x="131" y="-14"/>
		</contour>
		<contour>
			<point x="283" y="27" type="curve" smooth="yes"/>
			<point x="176" y="27"/>
			<point x="118" y="138"/>
			<point x="111" y="357" type="curve"/>
			<point x="443" y="372" type="line"/>
			<point x="443" y="147"/>
			<point x="387" y="27"/>
		</contour>
		<contour>
			<point x="111" y="407" type="line"/>
			<point x="111" y="624"/>
			<point x="167" y="741"/>
			<point x="271" y="741" type="curve" smooth="yes"/>
			<point x="383" y="741"/>
			<point x="443" y="624"/>
			<point x="443" y="407" type="curve"/>
		</contour>
	</outline>
</glyph>
<glyph name="kappa" format="2">
	<unicode hex="03BA"/>
	<advance width="568"/>
	<outline>
		<contour>
			<point x="449" y="-14" type="curve" smooth="yes"/>
			<point x="481" y="-14"/>
			<point x="507" y="-5"/>
			<point x="528" y="15" type="curve"/>
			<point x="517" y="39" type="line"/>
			<point x="502" y="32"/>
			<point x="479" y="26"/>
			<point x="464" y="26" type="curve" smooth="yes"/>
			<point x="431" y="26"/>
			<point x="406" y="46"/>
			<point x="376" y="97" type="curve" smooth="yes"/>
			<point x="342" y="154"/>
			<point x="308" y="221"/>
			<point x="271" y="304" type="curve"/>
			<point x="339" y="387" type="line" smooth="yes"/>
			<point x="376" y="433"/>
			<point x="402" y="458"/>
			<point x="415" y="461" type="curve"/>
			<point x="400" y="429"/>
			<point x="420" y="401"/>
			<point x="458" y="401" type="curve" smooth="yes"/>
			<point x="490" y="401"/>
			<point x="513" y="426"/>
			<point x="513" y="460" type="curve" smooth="yes"/>
			<point x="513" y="494"/>
			<point x="489" y="517"/>
			<point x="453" y="517" type="curve" smooth="yes"/>
			<point x="409" y="517"/>
			<point x="383" y="498"/>
			<point x="309" y="409" type="curve" smooth="yes"/>
			<point x="139" y="206" type="line"/>
			<point x="138" y="351"/>
			<point x="139" y="400"/>
			<point x="145" y="503" type="curve"/>
			<point x="133" y="509" type="line"/>
			<point x="81" y="504" type="line"/>
			<point x="92" y="0" type="line"/>
			<point x="139" y="0" type="line"/>
			<point x="139" y="148" type="line"/>
			<point x="239" y="268" type="line"/>
			<point x="268" y="197"/>
			<point x="313" y="102"/>
			<point x="337" y="64" type="curve" smooth="yes"/>
			<point x="373" y="7"/>
			<point x="403" y="-14"/>
		</contour>
	</outline>
</glyph>
<glyph name="lambda" format="2">
	<unicode hex="03BB"/>
	<advance width="549"/>
	<outline>
		<contour>
			<point x="538" y="40" type="line"/>
			<point x="518" y="31"/>
			<point x="500" y="27"/>
			<point x="486" y="27" type="curve" smooth="yes"/>
			<point x="442" y="27"/>
			<point x="429" y="41"/>
			<point x="407" y="112" type="curve" smooth="yes"/>
			<point x="242" y="649" type="line" smooth="yes"/>
			<point x="213" y="743"/>
			<point x="170" y="782"/>
			<point x="95" y="782" type="curve" smooth="yes"/>
			<point x="40" y="782"/>
			<point x="3" y="752"/>
			<point x="3" y="706" type="curve" smooth="yes"/>
			<point x="3" y="676"/>
			<point x="22" y="657"/>
			<point x="50" y="657" type="curve" smooth="yes"/>
			<point x="73" y="657"/>
			<point x="92" y="673"/>
			<point x="92" y="692" type="curve" smooth="yes"/>
			<point x="92" y="700"/>
			<point x="96" y="688"/>
			<point x="79" y="737" type="curve"/>
			<point x="85" y="739"/>
			<point x="96" y="741"/>
			<point x="106" y="741" type="curve" smooth="yes"/>
			<point x="158" y="741"/>
			<point x="186" y="711"/>
			<point x="208" y="632" type="curve" smooth="yes"/>
			<point x="245" y="505" type="line"/>
			<point x="14" y="6" type="line"/>
			<point x="26" y="0" type="line"/>
			<point x="71" y="0" type="line"/>
			<point x="262" y="436" type="line"/>
			<point x="264" y="436" type="line"/>
			<point x="361" y="100" type="line" smooth="yes"/>
			<point x="386" y="12"/>
			<point x="410" y="-13"/>
			<point x="471" y="-13" type="curve" smooth="yes"/>
			<point x="499" y="-13"/>
			<point x="532" y="-1"/>
			<point x="549" y="16" type="curve"/>
		</contour>
	</outline>
</glyph>
<glyph name="mu" format="2">
	<unicode hex="03BC"/>
	<advance width="604"/>
	<outline>
		<contour>
			<point x="115" y="-221" type="line"/>
			<point x="158" y="-217" type="line"/>
			<point x="150" y="-159"/>
			<point x="144" y="-73"/>
			<point x="141" y="22" type="curve"/>
			<point x="144" y="22" type="line"/>
			<point x="166" y="1"/>
			<point x="211" y="-14"/>
			<point x="251" y="-14" type="curve" smooth="yes"/>
			<point x="325" y="-14"/>
			<point x="377" y="14"/>
			<point x="420" y="77" type="curve"/>
			<point x="422" y="77" type="line"/>
			<point x="427" y="19"/>
			<point x="458" y="-14"/>
			<point x="507" y="-14" type="curve" smooth="yes"/>
			<point x="535" y="-14"/>
			<point x="564" y="-3"/>
			<point x="584" y="15" type="curve"/>
			<point x="573" y="39" type="line"/>
			<point x="559" y="32"/>
			<point x="535" y="26"/>
			<point x="524" y="26" type="curve" smooth="yes"/>
			<point x="484" y="26"/>
			<point x="469" y="45"/>
			<point x="469" y="96" type="curve" smooth="yes"/>
			<point x="469" y="332"/>
			<point x="475" y="430"/>
			<point x="476" y="503" type="curve"/>
			<point x="464" y="509" type="line"/>
			<point x="414" y="504" type="line"/>
			<point x="414" y="459"/>
			<point x="421" y="259"/>
			<point x="421" y="187" type="curve" smooth="yes"/>
			<point x="421" y="93"/>
			<point x="355" y="30"/>
			<point x="256" y="30" type="curve" smooth="yes"/>
			<point x="215" y="30"/>
			<point x="172" y="45"/>
			<point x="142" y="70" type="curve"/>
			<point x="142" y="216"/>
			<point x="147" y="424"/>
			<point x="148" y="503" type="curve"/>
			<point x="136" y="509" type="line"/>
			<point x="86" y="504" type="line"/>
			<point x="86" y="455"/>
			<point x="93" y="111"/>
			<point x="93" y="62" type="curve" smooth="yes"/>
			<point x="93" y="-38"/>
			<point x="98" y="-170"/>
			<point x="103" y="-215" type="curve"/>
		</contour>
	</outline>
</glyph>
<glyph name="nu" format="2">
	<unicode hex="03BD"/>
	<advance width="538"/>
	<outline>
		<contour>
			<point x="234" y="-9" type="line"/>
			<point x="387" y="111"/>
			<point x="478" y="278"/>
			<point x="478" y="440" type="curve" smooth="yes"/>
			<point x="478" y="466"/>
			<point x="476" y="486"/>
			<point x="471" y="501" type="curve"/>
			<point x="459" y="507" type="line"/>
			<point x="416" y="507" type="line"/>
			<point x="421" y="492"/>
			<point x="424" y="461"/>
			<point x="424" y="427" type="curve" smooth="yes"/>
			<point x="424" y="291"/>
			<point x="343" y="125"/>
			<point x="237" y="43" type="curve"/>
			<point x="235" y="43" type="line"/>
			<point x="218" y="396"/>
			<point x="180" y="513"/>
			<point x="81" y="513" type="curve" smooth="yes"/>
			<point x="49" y="513"/>
			<point x="21" y="503"/>
			<point x="0" y="484" type="curve"/>
			<point x="11" y="460" type="line"/>
			<point x="30" y="468"/>
			<point x="50" y="473"/>
			<point x="63" y="473" type="curve" smooth="yes"/>
			<point x="136" y="473"/>
			<point x="171" y="347"/>
			<point x="194" y="6" type="curve"/>
		</contour>
	</outline>
</glyph>
<glyph name="xi" format="2">
	<unicode hex="03BE"/>
	<advance width="454"/>
	<outline>
		<contour>
			<point x="332" y="-230" type="line"/>
			<point x="393" y="-185"/>
			<point x="422" y="-137"/>
			<point x="422" y="-82" type="curve" smooth="yes"/>
			<point x="422" y="-5"/>
			<point x="384" y="27"/>
			<point x="262" y="54" type="curve" smooth="yes"/>
			<point x="150" y="78"/>
			<point x="97" y="119"/>
			<point x="97" y="182" type="curve" smooth="yes"/>
			<point x="97" y="254"/>
			<point x="144" y="303"/>
			<point x="255" y="346" type="curve"/>
			<point x="289" y="331"/>
			<point x="315" y="324"/>
			<point x="335" y="324" type="curve" smooth="yes"/>
			<point x="368" y="324"/>
			<point x="392" y="346"/>
			<point x="392" y="377" type="curve" smooth="yes"/>
			<point x="392" y="402"/>
			<point x="367" y="422"/>
			<point x="337" y="422" type="curve" smooth="yes"/>
			<point x="312" y="422"/>
			<point x="279" y="409"/>
			<point x="256" y="390" type="curve"/>
			<point x="168" y="414"/>
			<point x="127" y="449"/>
			<point x="127" y="500" type="curve" smooth="yes"/>
			<point x="127" y="595"/>
			<point x="233" y="670"/>
			<point x="415" y="703" type="curve"/>
			<point x="415" y="719" type="line"/>
			<point x="384" y="763" type="line"/>
			<point x="336" y="751"/>
			<point x="282" y="720"/>
			<point x="235" y="694" type="curve"/>
			<point x="168" y="686"/>
			<point x="101" y="695"/>
			<point x="85" y="714" type="curve"/>
			<point x="101" y="738"/>
			<point x="109" y="756"/>
			<point x="109" y="767" type="curve" smooth="yes"/>
			<point x="109" y="788"/>
			<point x="94" y="803"/>
			<point x="73" y="803" type="curve" smooth="yes"/>
			<point x="41" y="803"/>
			<point x="20" y="780"/>
			<point x="20" y="746" type="curve" smooth="yes"/>
			<point x="20" y="687"/>
			<point x="84" y="652"/>
			<point x="180" y="658" type="curve"/>
			<point x="119" y="623"/>
			<point x="80" y="562"/>
			<point x="80" y="501" type="curve" smooth="yes"/>
			<point x="80" y="437"/>
			<point x="128" y="386"/>
			<point x="209" y="365" type="curve"/>
			<point x="209" y="363" type="line"/>
			<point x="116" y="334"/>
			<point x="49" y="256"/>
			<point x="49" y="176" type="curve" smooth="yes"/>
			<point x="49" y="88"/>
			<point x="110" y="38"/>
			<point x="255" y="7" type="curve" smooth="yes"/>
			<point x="349" y="-13"/>
			<point x="377" y="-35"/>
			<point x="377" y="-88" type="curve" smooth="yes"/>
			<point x="377" y="-128"/>
			<point x="353" y="-169"/>
			<point x="309" y="-204" type="curve"/>
		</contour>
	</outline>
</glyph>
<glyph name="omicron" format="2">
	<unicode hex="03BF"/>
	<advance width="533"/>
	<outline>
		<contour>
			<point x="263" y="-14" type="curve" smooth="yes"/>
			<point x="404" y="-14"/>
			<point x="483" y="85"/>
			<point x="483" y="261" type="curve" smooth="yes"/>
			<point x="483" y="421"/>
			<point x="404" y="517"/>
			<point x="274" y="517" type="curve" smooth="yes"/>
			<point x="133" y="517"/>
			<point x="50" y="418"/>
			<point x="50" y="249" type="curve" smooth="yes"/>
			<point x="50" y="81"/>
			<point x="127" y="-14"/>
		</contour>
		<contour>
			<point x="272" y="27" type="curve" smooth="yes"/>
			<point x="159" y="27"/>
			<point x="101" y="106"/>
			<point x="101" y="257" type="curve" smooth="yes"/>
			<point x="101" y="401"/>
			<point x="157" y="476"/>
			<point x="266" y="476" type="curve" smooth="yes"/>
			<point x="377" y="476"/>
			<point x="432" y="400"/>
			<point x="432" y="249" type="curve" smooth="yes"/>
			<point x="432" y="105"/>
			<point x="376" y="27"/>
		</contour>
	</outline>
	<anchor name="top" x="259" y="550"/>
</glyph>
<glyph name="sigma" format="2">
	<unicode hex="03C3"/>
	<advance width="578"/>
	<outline>
		<contour>
			<point x="264" y="-13" type="curve" smooth="yes"/>
			<point x="398" y="-13"/>
			<point x="484" y="90"/>
			<point x="484" y="250" type="curve" smooth="yes"/>
			<point x="484" y="340"/>
			<point x="439" y="431"/>
			<point x="377" y="468" type="curve"/>
			<point x="377" y="470" type="line"/>
			<point x="521" y="466" type="line"/>
			<point x="533" y="472" type="line"/>
			<point x="533" y="517" type="line"/>
			<point x="328" y="514" type="line" smooth="yes"/>
			<point x="156" y="511"/>
			<point x="50" y="407"/>
			<point x="50" y="240" type="curve" smooth="yes"/>
			<point x="50" y="88"/>
			<point x="136" y="-13"/>
		</contour>
		<contour>
			<point x="266" y="28" type="curve" smooth="yes"/>
			<point x="168" y="28"/>
			<point x="101" y="115"/>
			<point x="101" y="243" type="curve" smooth="yes"/>
			<point x="101" y="377"/>
			<point x="175" y="458"/>
			<point x="308" y="469" type="curve" smooth="yes"/>
			<point x="320" y="470" type="line"/>
			<point x="401" y="413"/>
			<point x="435" y="347"/>
			<point x="435" y="246" type="curve" smooth="yes"/>
			<point x="435" y="108"/>
			<point x="373" y="28"/>
		</contour>
	</outline>
</glyph>
<glyph name="upsilon" format="2">
	<unicode hex="03C5"/>
	<advance width="555"/>
	<outline>
		<contour>
			<point x="302" y="-14" type="curve" smooth="yes"/>
			<point x="430" y="-14"/>
			<point x="505" y="80"/>
			<point x="505" y="240" type="curve" smooth="yes"/>
			<point x="505" y="337"/>
			<point x="478" y="451"/>
			<point x="444" y="503" type="curve"/>
			<point x="432" y="509" type="line"/>
			<point x="379" y="503" type="line"/>
			<point x="425" y="434"/>
			<point x="453" y="335"/>
			<point x="453" y="239" type="curve" smooth="yes"/>
			<point x="453" y="96"/>
			<point x="404" y="27"/>
			<point x="302" y="27" type="curve" smooth="yes"/>
			<point x="207" y="27"/>
			<point x="167" y="81"/>
			<point x="167" y="211" type="curve" smooth="yes"/>
			<point x="167" y="312"/>
			<point x="172" y="343"/>
			<point x="172" y="418" type="curve" smooth="yes"/>
			<point x="172" y="480"/>
			<point x="148" y="511"/>
			<point x="99" y="511" type="curve" smooth="yes"/>
			<point x="71" y="511"/>
			<point x="47" y="502"/>
			<point x="23" y="482" type="curve"/>
			<point x="34" y="458" type="line"/>
			<point x="51" y="466"/>
			<point x="68" y="471"/>
			<point x="81" y="471" type="curve" smooth="yes"/>
			<point x="110" y="471"/>
			<point x="126" y="448"/>
			<point x="126" y="405" type="curve" smooth="yes"/>
			<point x="126" y="316"/>
			<point x="120" y="269"/>
			<point x="120" y="206" type="curve" smooth="yes"/>
			<point x="120" y="59"/>
			<point x="181" y="-14"/>
		</contour>
	</outline>
	<anchor name="top" x="273" y="550"/>
</glyph>
<glyph name="omega" format="2">
	<unicode hex="03C9"/>
	<advance width="748"/>
	<outline>
		<contour>
			<point x="228" y="-14" type="curve" smooth="yes"/>
			<point x="293" y="-14"/>
			<point x="343" y="30"/>
			<point x="373" y="115" type="curve"/>
			<point x="376" y="115" type="line"/>
			<point x="404" y="30"/>
			<point x="455" y="-14"/>
			<point x="526" y="-14" type="curve" smooth="yes"/>
			<point x="619" y="-14"/>
			<point x="693" y="95"/>
			<point x="693" y="230" type="curve" smooth="yes"/>
			<point x="693" y="329"/>
			<point x="657" y="432"/>
			<point x="598" y="503" type="curve"/>
			<point x="586" y="509" type="line"/>
			<point x="534" y="498" type="line"/>
			<point x="596" y="429"/>
			<point x="642" y="314"/>
			<point x="642" y="230" type="curve" smooth="yes"/>
			<point x="642" y="106"/>
			<point x="596" y="27"/>
			<point x="524" y="27" type="curve" smooth="yes"/>
			<point x="462" y="27"/>
			<point x="423" y="68"/>
			<point x="395" y="163" type="curve"/>
			<point x="415" y="191"/>
			<point x="427" y="227"/>
			<point x="427" y="257" type="curve" smooth="yes"/>
			<point x="427" y="299"/>
			<point x="404" y="328"/>
			<point x="372" y="328" type="curve" smooth="yes"/>
			<point x="343" y="328"/>
			<point x="321" y="298"/>
			<point x="321" y="258" type="curve" smooth="yes"/>
			<point x="321" y="226"/>
			<point x="331" y="195"/>
			<point x="352" y="163" type="curve"/>
			<point x="328" y="70"/>
			<point x="288" y="27"/>
			<point x="228" y="27" type="curve" smooth="yes"/>
			<point x="152" y="27"/>
			<point x="106" y="98"/>
			<point x="106" y="214" type="curve" smooth="yes"/>
			<point x="106" y="324"/>
			<point x="145" y="422"/>
			<point x="219" y="498" type="curve"/>
			<point x="202" y="510" type="line"/>
			<point x="108" y="445"/>
			<point x="55" y="340"/>
			<point x="55" y="217" type="curve" smooth="yes"/>
			<point x="55" y="80"/>
			<point x="125" y="-14"/>
		</contour>
	</outline>
	<anchor name="bottom" x="374" y="-45"/>
	<anchor name="top" x="374" y="550"/>
</glyph>
<glyph name="koppaArchaic" format="2">
	<unicode hex="03D9"/>
	<advance width="544"/>
	<outline>
		<contour>
			<point x="252" y="-165" type="line"/>
			<point x="300" y="-159" type="line"/>
			<point x="299" y="-132"/>
			<point x="295" y="-54"/>
			<point x="294" y="-13" type="curve"/>
			<point x="423" y="-2"/>
			<point x="494" y="95"/>
			<point x="494" y="261" type="curve" smooth="yes"/>
			<point x="494" y="420"/>
			<point x="413" y="517"/>
			<point x="280" y="517" type="curve" smooth="yes"/>
			<point x="135" y="517"/>
			<point x="50" y="418"/>
			<point x="50" y="249" type="curve" smooth="yes"/>
			<point x="50" y="89"/>
			<point x="123" y="-6"/>
			<point x="251" y="-13" type="curve"/>
			<point x="250" y="-46"/>
			<point x="245" y="-120"/>
			<point x="241" y="-154" type="curve"/>
		</contour>
		<contour>
			<point x="296" y="27" type="curve"/>
			<point x="298" y="64"/>
			<point x="302" y="112"/>
			<point x="305" y="134" type="curve"/>
			<point x="294" y="145" type="line"/>
			<point x="246" y="139" type="line"/>
			<point x="249" y="102"/>
			<point x="251" y="55"/>
			<point x="252" y="28" type="curve"/>
			<point x="153" y="40"/>
			<point x="101" y="119"/>
			<point x="101" y="257" type="curve" smooth="yes"/>
			<point x="101" y="401"/>
			<point x="160" y="476"/>
			<point x="272" y="476" type="curve" smooth="yes"/>
			<point x="385" y="476"/>
			<point x="443" y="399"/>
			<point x="443" y="249" type="curve" smooth="yes"/>
			<point x="443" y="114"/>
			<point x="391" y="35"/>
		</contour>
	</outline>
</glyph>
<glyph name="digamma" format="2">
	<unicode hex="03DD"/>
	<advance width="343"/>
	<outline>
		<contour>
			<point x="130" y="-5" type="line"/>
			<point x="173" y="0" type="line"/>
			<point x="173" y="461" type="line"/>
			<point x="323" y="461" type="line"/>
			<point x="323" y="503" type="line"/>
			<point x="173" y="503" type="line"/>
			<point x="173" y="582" type="line" smooth="yes"/>
			<point x="173" y="686"/>
			<point x="210" y="741"/>
			<point x="279" y="741" type="curve" smooth="yes"/>
			<point x="303" y="741"/>
			<point x="324" y="735"/>
			<point x="336" y="725" type="curve"/>
			<point x="320" y="701"/>
			<point x="315" y="687"/>
			<point x="315" y="674" type="curve" smooth="yes"/>
			<point x="315" y="656"/>
			<point x="328" y="645"/>
			<point x="349" y="645" type="curve" smooth="yes"/>
			<point x="378" y="645"/>
			<point x="395" y="664"/>
			<point x="395" y="695" type="curve" smooth="yes"/>
			<point x="395" y="748"/>
			<point x="349" y="782"/>
			<point x="276" y="782" type="curve" smooth="yes"/>
			<point x="178" y="782"/>
			<point x="124" y="705"/>
			<point x="124" y="565" type="curve" smooth="yes"/>
			<point x="124" y="503" type="line"/>
			<point x="50" y="493" type="line"/>
			<point x="50" y="461" type="line"/>
			<point x="124" y="461" type="line"/>
			<point x="124" y="0" type="line"/>
		</contour>
	</outline>
</glyph>
<glyph name="Koppa" format="2">
	<unicode hex="03DE"/>
	<advance width="511"/>
	<outline>
		<contour>
			<point x="307" y="-91" type="curve" smooth="yes"/>
			<point x="334" y="-91"/>
			<point x="360" y="-80"/>
			<point x="377" y="-62" type="curve"/>
			<point x="366" y="-38" type="line"/>
			<point x="347" y="-47"/>
			<point x="334" y="-51"/>
			<point x="320" y="-51" type="curve" smooth="yes"/>
			<point x="293" y="-51"/>
			<point x="277" y="-35"/>
			<point x="277" y="-6" type="curve" smooth="yes"/>
			<point x="277" y="37"/>
			<point x="298" y="78"/>
			<point x="399" y="235" type="curve" smooth="yes"/>
			<point x="469" y="344" type="line"/>
			<point x="447" y="382" type="line"/>
			<point x="102" y="189" type="line"/>
			<point x="264" y="433"/>
			<point x="283" y="468"/>
			<point x="283" y="523" type="curve" smooth="yes"/>
			<point x="283" y="572"/>
			<point x="255" y="600"/>
			<point x="207" y="600" type="curve" smooth="yes"/>
			<point x="180" y="600"/>
			<point x="154" y="589"/>
			<point x="137" y="571" type="curve"/>
			<point x="148" y="547" type="line"/>
			<point x="167" y="556"/>
			<point x="180" y="560"/>
			<point x="194" y="560" type="curve" smooth="yes"/>
			<point x="221" y="560"/>
			<point x="237" y="544"/>
			<point x="237" y="515" type="curve" smooth="yes"/>
			<point x="237" y="472"/>
			<point x="219" y="437"/>
			<point x="115" y="274" type="curve" smooth="yes"/>
			<point x="45" y="165" type="line"/>
			<point x="68" y="129" type="line"/>
			<point x="405" y="310" type="line"/>
			<point x="263" y="105"/>
			<point x="231" y="45"/>
			<point x="231" y="-14" type="curve" smooth="yes"/>
			<point x="231" y="-63"/>
			<point x="259" y="-91"/>
		</contour>
	</outline>
</glyph>
<glyph name="koppa" format="2">
	<unicode hex="03DF"/>
	<advance width="600"/>
	<outline>
		<contour>
			<point x="217" y="-48" type="curve" smooth="yes"/>
			<point x="248" y="-48"/>
			<point x="273" y="-39"/>
			<point x="297" y="-19" type="curve"/>
			<point x="286" y="5" type="line"/>
			<point x="273" y="-3"/>
			<point x="257" y="-8"/>
			<point x="241" y="-8" type="curve" smooth="yes"/>
			<point x="217" y="-8"/>
			<point x="204" y="4"/>
			<point x="204" y="26" type="curve" smooth="yes"/>
			<point x="204" y="50"/>
			<point x="214" y="65"/>
			<point x="272" y="130" type="curve" smooth="yes"/>
			<point x="390" y="262" type="line"/>
			<point x="390" y="276" type="line"/>
			<point x="144" y="276" type="line"/>
			<point x="225" y="366" type="line" smooth="yes"/>
			<point x="272" y="418"/>
			<point x="289" y="448"/>
			<point x="289" y="478" type="curve" smooth="yes"/>
			<point x="289" y="517"/>
			<point x="265" y="539"/>
			<point x="222" y="539" type="curve" smooth="yes"/>
			<point x="192" y="539"/>
			<point x="167" y="530"/>
			<point x="142" y="510" type="curve"/>
			<point x="153" y="486" type="line"/>
			<point x="166" y="494"/>
			<point x="182" y="499"/>
			<point x="198" y="499" type="curve" smooth="yes"/>
			<point x="222" y="499"/>
			<point x="235" y="487"/>
			<point x="235" y="465" type="curve" smooth="yes"/>
			<point x="235" y="442"/>
			<point x="224" y="425"/>
			<point x="167" y="361" type="curve" smooth="yes"/>
			<point x="47" y="227" type="line"/>
			<point x="47" y="213" type="line"/>
			<point x="293" y="213" type="line"/>
			<point x="214" y="125" type="line" smooth="yes"/>
			<point x="167" y="73"/>
			<point x="150" y="44"/>
			<point x="150" y="13" type="curve" smooth="yes"/>
			<point x="150" y="-26"/>
			<point x="174" y="-48"/>
		</contour>
	</outline>
</glyph>
<glyph name="Sampi" format="2">
	<unicode hex="03E0"/>
	<advance width="807"/>
	<outline>
		<contour>
			<point x="269" y="-177" type="line"/>
			<point x="289" y="-163" type="line"/>
			<point x="267" y="-119" type="line" smooth="yes"/>
			<point x="258" y="-101"/>
			<point x="259" y="-89"/>
			<point x="271" y="-80" type="curve" smooth="yes"/>
			<point x="649" y="207" type="line"/>
			<point x="672" y="145"/>
			<point x="683" y="71"/>
			<point x="683" y="-17" type="curve" smooth="yes"/>
			<point x="683" y="-47"/>
			<point x="681" y="-107"/>
			<point x="678" y="-170" type="curve"/>
			<point x="735" y="-172" type="line"/>
			<point x="740" y="-108"/>
			<point x="742" y="-65"/>
			<point x="742" y="-15" type="curve" smooth="yes"/>
			<point x="742" y="351"/>
			<point x="560" y="528"/>
			<point x="180" y="532" type="curve"/>
			<point x="179" y="489" type="line"/>
			<point x="304" y="483"/>
			<point x="405" y="457"/>
			<point x="483" y="411" type="curve"/>
			<point x="130" y="140" type="line" smooth="yes"/>
			<point x="110" y="125"/>
			<point x="95" y="128"/>
			<point x="76" y="149" type="curve" smooth="yes"/>
			<point x="51" y="177" type="line"/>
			<point x="33" y="165" type="line"/>
			<point x="145" y="3" type="line"/>
			<point x="165" y="17" type="line"/>
			<point x="143" y="61" type="line" smooth="yes"/>
			<point x="134" y="79"/>
			<point x="135" y="91"/>
			<point x="147" y="100" type="curve" smooth="yes"/>
			<point x="521" y="385" type="line"/>
			<point x="569" y="347"/>
			<point x="605" y="302"/>
			<point x="631" y="249" type="curve"/>
			<point x="254" y="-40" type="line" smooth="yes"/>
			<point x="234" y="-55"/>
			<point x="219" y="-52"/>
			<point x="200" y="-31" type="curve" smooth="yes"/>
			<point x="175" y="-3" type="line"/>
			<point x="157" y="-15" type="line"/>
		</contour>
	</outline>
</glyph>
<glyph name="sampi" format="2">
	<unicode hex="03E1"/>
	<advance width="600"/>
	<outline>
		<contour>
			<point x="181" y="507" type="curve"/>
			<point x="166" y="465" type="line"/>
			<point x="256" y="445"/>
			<point x="329" y="405"/>
			<point x="382" y="347" type="curve"/>
			<point x="113" y="236" type="line" smooth="yes"/>
			<point x="79" y="223"/>
			<point x="68" y="224"/>
			<point x="58" y="242" type="curve" smooth="yes"/>
			<point x="33" y="285" type="line"/>
			<point x="10" y="275" type="line"/>
			<point x="82" y="92" type="line"/>
			<point x="105" y="100" type="line"/>
			<point x="96" y="150" type="line" smooth="yes"/>
			<point x="93" y="171"/>
			<point x="100" y="179"/>
			<point x="126" y="189" type="curve" smooth="yes"/>
			<point x="414" y="306" type="line"/>
			<point x="449" y="256"/>
			<point x="471" y="196"/>
			<point x="481" y="128" type="curve"/>
			<point x="202" y="13" type="line" smooth="yes"/>
			<point x="168" y="0"/>
			<point x="158" y="1"/>
			<point x="147" y="19" type="curve" smooth="yes"/>
			<point x="122" y="62" type="line"/>
			<point x="99" y="52" type="line"/>
			<point x="171" y="-131" type="line"/>
			<point x="194" y="-123" type="line"/>
			<point x="185" y="-73" type="line" smooth="yes"/>
			<point x="182" y="-52"/>
			<point x="189" y="-44"/>
			<point x="215" y="-34" type="curve" smooth="yes"/>
			<point x="485" y="76" type="line"/>
			<point x="495" y="-6"/>
			<point x="464" y="-146"/>
			<point x="421" y="-238" type="curve"/>
			<point x="472" y="-247" type="line"/>
			<point x="515" y="-151"/>
			<point x="537" y="-48"/>
			<point x="537" y="52" type="curve" smooth="yes"/>
			<point x="537" y="294"/>
			<point x="404" y="463"/>
		</contour>
	</outline>
</glyph>
<glyph name="Dje-cy" format="2">
	<unicode hex="0402"/>
	<advance width="804"/>
	<outline>
		<contour>
			<point x="577" y="-101" type="line"/>
			<point x="695" y="-20"/>
			<point x="753" y="76"/>
			<point x="753" y="193" type="curve" smooth="yes"/>
			<point x="753" y="317"/>
			<point x="684" y="385"/>
			<point x="560" y="385" type="curve" smooth="yes"/>
			<point x="468" y="385"/>
			<point x="393" y="351"/>
			<point x="322" y="296" type="curve"/>
			<point x="322" y="661" type="line"/>
			<point x="510" y="661" type="line" smooth="yes"/>
			<point x="604" y="661"/>
			<point x="623" y="645"/>
			<point x="667" y="500" type="curve"/>
			<point x="695" y="507" type="line"/>
			<point x="655" y="700" type="line"/>
			<point x="73" y="700" type="line"/>
			<point x="33" y="507" type="line"/>
			<point x="61" y="500" type="line"/>
			<point x="105" y="645"/>
			<point x="124" y="661"/>
			<point x="218" y="661" type="curve" smooth="yes"/>
			<point x="273" y="661" type="line"/>
			<point x="273" y="86" type="line" smooth="yes"/>
			<point x="273" y="49"/>
			<point x="262" y="42"/>
			<point x="240" y="38" type="curve" smooth="yes"/>
			<point x="159" y="25" type="line"/>
			<point x="159" y="0" type="line"/>
			<point x="436" y="0" type="line"/>
			<point x="436" y="25" type="line"/>
			<point x="356" y="38" type="line" smooth="yes"/>
			<point x="328" y="43"/>
			<point x="322" y="48"/>
			<point x="322" y="82" type="curve" smooth="yes"/>
			<point x="322" y="250" type="line"/>
			<point x="372" y="295"/>
			<point x="457" y="344"/>
			<point x="546" y="344" type="curve" smooth="yes"/>
			<point x="645" y="344"/>
			<point x="703" y="299"/>
			<point x="703" y="186" type="curve" smooth="yes"/>
			<point x="703" y="92"/>
			<point x="662" y="6"/>
			<point x="561" y="-74" type="curve"/>
		</contour>
	</outline>
</glyph>
<glyph name="Lje-cy" format="2">
	<unicode hex="0409"/>
	<advance width="989"/>
	<outline>
		<contour>
			<point x="80" y="-13" type="curve" smooth="yes"/>
			<point x="155" y="-13"/>
			<point x="226" y="84"/>
			<point x="240" y="349" type="curve" smooth="yes"/>
			<point x="245" y="443"/>
			<point x="250" y="584"/>
			<point x="250" y="661" type="curve"/>
			<point x="522" y="661" type="line"/>
			<point x="522" y="86" type="line" smooth="yes"/>
			<point x="522" y="49"/>
			<point x="516" y="39"/>
			<point x="491" y="35" type="curve" smooth="yes"/>
			<point x="433" y="26" type="line"/>
			<point x="433" y="0" type="line"/>
			<point x="669" y="0" type="line" smooth="yes"/>
			<point x="825" y="0"/>
			<point x="938" y="68"/>
			<point x="938" y="211" type="curve" smooth="yes"/>
			<point x="938" y="352"/>
			<point x="811" y="400"/>
			<point x="685" y="400" type="curve" smooth="yes"/>
			<point x="642" y="400"/>
			<point x="606" y="397"/>
			<point x="571" y="392" type="curve"/>
			<point x="571" y="612" type="line" smooth="yes"/>
			<point x="571" y="649"/>
			<point x="577" y="659"/>
			<point x="602" y="663" type="curve" smooth="yes"/>
			<point x="659" y="672" type="line"/>
			<point x="659" y="700" type="line"/>
			<point x="120" y="700" type="line"/>
			<point x="120" y="672" type="line"/>
			<point x="176" y="663" type="line" smooth="yes"/>
			<point x="201" y="659"/>
			<point x="209" y="651"/>
			<point x="209" y="622" type="curve" smooth="yes"/>
			<point x="209" y="195"/>
			<point x="170" y="99"/>
			<point x="124" y="54" type="curve"/>
			<point x="100" y="97"/>
			<point x="86" y="98"/>
			<point x="68" y="98" type="curve" smooth="yes"/>
			<point x="42" y="98"/>
			<point x="17" y="72"/>
			<point x="17" y="44" type="curve" smooth="yes"/>
			<point x="17" y="14"/>
			<point x="42" y="-13"/>
		</contour>
		<contour>
			<point x="571" y="44" type="curve"/>
			<point x="571" y="354" type="line"/>
			<point x="606" y="359"/>
			<point x="637" y="362"/>
			<point x="679" y="362" type="curve" smooth="yes"/>
			<point x="802" y="362"/>
			<point x="887" y="310"/>
			<point x="887" y="209" type="curve" smooth="yes"/>
			<point x="887" y="91"/>
			<point x="806" y="39"/>
			<point x="658" y="39" type="curve" smooth="yes"/>
			<point x="621" y="39"/>
			<point x="584" y="42"/>
		</contour>
	</outline>
</glyph>
